SplineFontDB: 3.0
FontName: Norican
FullName: Norican
FamilyName: Norican
Weight: Book
Copyright: Copyright (c) 2011 by vernon adams. All rights reserved.
Version: 1
ItalicAngle: 0
UnderlinePosition: -103
UnderlineWidth: 102
Ascent: 1638
Descent: 410
sfntRevision: 0x00010000
LayerCount: 2
Layer: 0 1 "Back"  1
Layer: 1 1 "Fore"  0
XUID: [1021 956 130891471 8737447]
FSType: 0
OS2Version: 3
OS2_WeightWidthSlopeOnly: 0
OS2_UseTypoMetrics: 1
CreationTime: 1322229960
ModificationTime: 1324652344
PfmFamily: 17
TTFWeight: 400
TTFWidth: 5
LineGap: 0
VLineGap: 0
Panose: 2 0 5 4 0 0 0 2 0 4
OS2TypoAscent: 457
OS2TypoAOffset: 1
OS2TypoDescent: -381
OS2TypoDOffset: 1
OS2TypoLinegap: 0
OS2WinAscent: 0
OS2WinAOffset: 1
OS2WinDescent: 0
OS2WinDOffset: 1
HheadAscent: -1072
HheadAOffset: 1
HheadDescent: 405
HheadDOffset: 1
OS2SubXSize: 1331
OS2SubYSize: 1229
OS2SubXOff: 0
OS2SubYOff: 154
OS2SupXSize: 1331
OS2SupYSize: 1229
OS2SupXOff: 0
OS2SupYOff: 717
OS2StrikeYSize: 102
OS2StrikeYPos: 512
OS2Vendor: 'newt'
OS2CodePages: 00000001.00000000
OS2UnicodeRanges: 00000001.00000000.00000000.00000000
Lookup: 4 0 0 "'dlig' Discretionary Ligatures in Latin lookup 2"  {"'dlig' Discretionary Ligatures in Latin lookup 2-1"  } ['dlig' ('DFLT' <'dflt' > 'latn' <'dflt' > ) ]
Lookup: 5 0 0 "'calt' Contextual Alternates in Latin lookup 2"  {"'calt' Contextual Alternates in Latin lookup 2-1"  } ['calt' ('DFLT' <'dflt' > 'latn' <'dflt' > ) ]
Lookup: 4 0 1 "'liga' Standard Ligatures lookup 1"  {"'liga' Standard Ligatures lookup 1 subtable"  } ['liga' ('DFLT' <'dflt' > ) ]
Lookup: 258 0 0 "'kern' Horizontal Kerning lookup 0"  {"'kern' Horizontal Kerning lookup 0 per glyph data 0" [307,30,0] "'kern' Horizontal Kerning lookup 0 kerning class 1" [307,0,0] } ['kern' ('DFLT' <'dflt' > ) ]
MarkAttachClasses: 1
DEI: 91125
KernClass2: 26+ 19 "'kern' Horizontal Kerning lookup 0 kerning class 1" 
 1 D
 1 F
 1 H
 1 K
 1 L
 1 P
 1 T
 1 V
 1 W
 1 b
 1 f
 1 g
 1 t
 1 x

StartChar: A
Encoding: 65 65 4
Width: 1391
Flags: W
LayerCount: 2
Fore
SplineSet
895 193 m 1,0,1
 653.928571429 -57 653.928571429 -57 403 -57 c 0,2,3
 244.783505155 -57 244.783505155 -57 162.391752577 39.2891566265 c 128,-1,4
 80 135.578313253 80 135.578313253 80 328 c 0,5,6
 80 640.56462585 80 640.56462585 313.402393627 948.592274582 c 128,-1,7
 546.804787254 1256.61992331 546.804787254 1256.61992331 876.5 1411.5 c 0,8,9
 1103.20792079 1518 1103.20792079 1518 1313 1518 c 0,10,11
 1428.74193548 1518 1428.74193548 1518 1539.60313359 1480.23409735 c 128,-1,12
 1650.4643317 1442.46819469 1650.4643317 1442.46819469 1693.5 1387 c 0,13,14
 1716 1358 1716 1358 1716 1318.19444444 c 128,-1,15
 1716 1278.38888889 1716 1278.38888889 1651.81690141 1220.1486698 c 128,-1,16
 1587.63380282 1161.9084507 1587.63380282 1161.9084507 1544 1151 c 1,17,18
 1487.75 1421 1487.75 1421 1253 1421 c 0,19,20
 1049.06837607 1421 1049.06837607 1421 803.718628888 1230.89456675 c 128,-1,21
 558.368881707 1040.78913351 558.368881707 1040.78913351 430 794.5 c 0,22,23
 338 617.988372093 338 617.988372093 338 463 c 256,24,25
 338 222.566037736 338 222.566037736 506 156 c 0,26,27
 559 135 559 135 613.5 135 c 0,28,29
 712.954545455 135 712.954545455 135 805.229936131 208.375611863 c 128,-1,30
 897.505326807 281.751223726 897.505326807 281.751223726 915 377 c 0,31,32
 979.143835616 710.547945205 979.143835616 710.547945205 1094.5 1150 c 0,33,34
 1105 1190 1105 1190 1112 1211 c 0,35,36
 1132.33333333 1272 1132.33333333 1272 1319 1272 c 0,37,38
 1346 1272 1346 1272 1346 1239 c 0,39,40
 1346 1227.5 1346 1227.5 1334 1197.25 c 0,41,42
 1279.47603646 1059.80417524 1279.47603646 1059.80417524 1199.45587127 675.191123213 c 128,-1,43
 1119.43570608 290.578071183 1119.43570608 290.578071183 1118.71785304 246.789035591 c 0,44,45
 1117.39344262 166 1117.39344262 166 1155 166 c 0,46,47
 1198 166 1198 166 1223.27272727 178.636363636 c 128,-1,48
 1248.54545455 191.272727273 1248.54545455 191.272727273 1299.14685315 237.342657343 c 128,-1,49
 1349.74825175 283.412587413 1349.74825175 283.412587413 1513 442 c 1,50,-1
 1513 330 l 1,51,52
 1440 254 1440 254 1376 184 c 128,-1,53
 1312 114 1312 114 1252.5 60.5 c 0,54,55
 1121.82242991 -57 1121.82242991 -57 1022 -57 c 0,56,57
 899.888888889 -57 899.888888889 -57 893 98 c 0,58,59
 891 143 891 143 895 193 c 1,0,1
EndSplineSet
EndChar

StartChar: B
Encoding: 66 66 5
Width: 1706
Flags: W
LayerCount: 2
Fore
SplineSet
295 1004 m 0,0,1
 295 891.176470588 295 891.176470588 457 834 c 1,2,3
 457 748.5 457 748.5 434 668 c 1,4,5
 239.563231581 728.999770484 239.563231581 728.999770484 161 873.5 c 0,6,7
 133 925 133 925 133 996 c 0,8,9
 133 1141.30434783 133 1141.30434783 250.806181893 1262.18373446 c 128,-1,10
 368.612363786 1383.0631211 368.612363786 1383.0631211 562.713874201 1450.53156055 c 128,-1,11
 756.815384615 1518 756.815384615 1518 989.610817308 1518 c 128,-1,12
 1222.40625 1518 1222.40625 1518 1374.5 1425 c 0,13,14
 1546 1320.13375796 1546 1320.13375796 1546 1126 c 0,15,16
 1546 1023.15384615 1546 1023.15384615 1476 937 c 0,17,18
 1385.57542909 825.708220416 1385.57542909 825.708220416 1196 823 c 1,19,20
 1388.93567529 724.640636126 1388.93567529 724.640636126 1482.96783765 591.342296085 c 128,-1,21
 1577 458.043956044 1577 458.043956044 1577 344.021978022 c 0,22,23
 1577 142.30075188 1577 142.30075188 1438.94270833 42.6503759398 c 128,-1,24
 1300.88541667 -57 1300.88541667 -57 1094 -57 c 0,25,26
 939 -57 939 -57 838 -4 c 128,-1,27
 737 49 737 49 674 156 c 1,28,29
 539.074775673 -19.4027916251 539.074775673 -19.4027916251 394.5 -48 c 0,30,31
 349 -57 349 -57 302.5 -57 c 0,32,33
 195.982142857 -57 195.982142857 -57 104.991071429 2.94705882353 c 128,-1,34
 14 62.8941176471 14 62.8941176471 14 172 c 0,35,36
 14 303 14 303 211 303 c 1,37,-1
 209 213 l 1,38,39
 209 134.363636364 209 134.363636364 222.5 103.681818182 c 0,40,41
 250.08 41 250.08 41 309.04 41 c 0,42,43
 408.198019802 41 408.198019802 41 474.5 154.5 c 0,44,45
 527.318161334 244.917530419 527.318161334 244.917530419 555.920985429 361.116503305 c 128,-1,46
 584.523809524 477.31547619 584.523809524 477.31547619 612 625 c 2,47,-1
 719 1192 l 1,48,49
 726.6 1249 726.6 1249 916 1249 c 2,50,-1
 948 1249 l 1,51,52
 915.260869565 1008.91304348 915.260869565 1008.91304348 881 889 c 0,53,54
 880 885 880 885 873 848 c 0,55,56
 792.333333333 421.619047619 792.333333333 421.619047619 735 266 c 1,57,58
 764.799582463 186.534446764 764.799582463 186.534446764 848.860575545 132.267223382 c 128,-1,59
 932.921568627 78 932.921568627 78 1016.46078431 78 c 0,60,61
 1161.36 78 1161.36 78 1226.68 155.761904762 c 128,-1,62
 1292 233.523809524 1292 233.523809524 1292 348.737314598 c 128,-1,63
 1292 463.950819672 1292 463.950819672 1227.34054448 581.609828893 c 128,-1,64
 1162.68108896 699.268838114 1162.68108896 699.268838114 1059 756 c 1,65,-1
 1059 872 l 1,66,67
 1194.37802656 878.061702682 1194.37802656 878.061702682 1281.18901328 942.640607438 c 128,-1,68
 1368 1007.2195122 1368 1007.2195122 1368 1106 c 0,69,70
 1368 1391 1368 1391 893 1391 c 0,71,72
 698.343283582 1391 698.343283582 1391 506.5 1286.5 c 0,73,74
 377.513274336 1216.23893805 377.513274336 1216.23893805 323 1115 c 0,75,76
 295 1063 295 1063 295 1004 c 0,0,1
EndSplineSet
EndChar

StartChar: C
Encoding: 67 67 6
Width: 1268
Flags: W
LayerCount: 2
Fore
SplineSet
1096 1149 m 1,0,1
 1042.4 1417 1042.4 1417 926 1417 c 1,2,3
 654.68464174 1405.57619544 654.68464174 1405.57619544 475.84232087 1170.34215177 c 0,4,5
 297 935.108108108 297 935.108108108 297 634.5 c 0,6,7
 297 524 297 524 330 423.5 c 128,-1,8
 363 323 363 323 421.5 257 c 0,9,10
 538.5 125 538.5 125 735 125 c 0,11,12
 973.590163934 125 973.590163934 125 1233 309 c 0,13,14
 1319 370 1319 370 1403 451 c 1,15,-1
 1403 340 l 1,16,17
 984.423913043 -57 984.423913043 -57 616 -57 c 0,18,19
 357.413793103 -57 357.413793103 -57 211 136 c 0,20,21
 82 306.045454545 82 306.045454545 82 540.95430622 c 128,-1,22
 82 775.863157895 82 775.863157895 175.5 985.5 c 0,23,24
 339.044057377 1352.1829918 339.044057377 1352.1829918 683.5 1474.5 c 0,25,26
 806 1518 806 1518 919 1518 c 128,-1,27
 1032 1518 1032 1518 1097.5 1489.5 c 128,-1,28
 1163 1461 1163 1461 1211.5 1413.5 c 0,29,30
 1315 1312.13402062 1315 1312.13402062 1315 1178 c 0,31,32
 1315 1120.5 1315 1120.5 1272 1098.75 c 128,-1,33
 1229 1077 1229 1077 1166.5 1042.5 c 128,-1,34
 1104 1008 1104 1008 951.166666667 924 c 128,-1,35
 798.333333333 840 798.333333333 840 776 840 c 0,36,37
 741 840 741 840 741 882.715053763 c 128,-1,38
 741 925.430107527 741 925.430107527 918.5 1007.5 c 128,-1,39
 1096 1089.56989247 1096 1089.56989247 1096 1149 c 1,0,1
EndSplineSet
EndChar

StartChar: D
Encoding: 68 68 7
Width: 1726
Flags: W
LayerCount: 2
Fore
SplineSet
152 326 m 1,0,-1
 145 221 l 1,1,2
 145 93.8260869565 145 93.8260869565 203 56 c 0,3,4
 226 41 226 41 264 41 c 256,5,6
 302 41 302 41 338 66.5 c 128,-1,7
 374 92 374 92 389 125 c 0,8,9
 426.027027027 206.459459459 426.027027027 206.459459459 460.189984102 301.064571359 c 128,-1,10
 494.352941176 395.669683258 494.352941176 395.669683258 543 594 c 1,11,-1
 662 1208 l 1,12,13
 674 1247 674 1247 791 1247 c 2,14,-1
 885 1247 l 1,15,16
 865 1130 865 1130 851 1012 c 0,17,18
 797.325259516 559.598615917 797.325259516 559.598615917 655 264 c 1,19,20
 684.5 175.5 684.5 175.5 768.638888889 117.25 c 128,-1,21
 852.777777778 59 852.777777778 59 941.888888889 59 c 128,-1,22
 1031 59 1031 59 1117.5 108.5 c 128,-1,23
 1204 158 1204 158 1272.5 248.5 c 0,24,25
 1425 449.97810219 1425 449.97810219 1425 740.297561733 c 128,-1,26
 1425 1030.61702128 1425 1030.61702128 1288.5 1201 c 0,27,28
 1134.68181818 1393 1134.68181818 1393 840 1393 c 0,29,30
 618.554054054 1393 618.554054054 1393 422.5 1269 c 0,31,32
 303.415556199 1193.68163384 303.415556199 1193.68163384 253.5 1102 c 0,33,34
 229 1057 229 1057 229 1014 c 0,35,36
 229 897.363636364 229 897.363636364 393 834 c 1,37,38
 393 717.5 393 717.5 367 672 c 1,39,40
 219.761557178 717.304136253 219.761557178 717.304136253 143.880778589 805.489905964 c 128,-1,41
 68 893.675675676 68 893.675675676 68 1011.18679617 c 128,-1,42
 68 1128.69791667 68 1128.69791667 163 1242.5 c 0,43,44
 324.158027813 1435.55388748 324.158027813 1435.55388748 687 1496.5 c 0,45,46
 815 1518 815 1518 955 1518 c 0,47,48
 1204.11881188 1518 1204.11881188 1518 1364.71741447 1415.98453546 c 128,-1,49
 1525.31601706 1313.96907093 1525.31601706 1313.96907093 1604.15800853 1155.24769336 c 128,-1,50
 1683 996.526315789 1683 996.526315789 1683 851.763157895 c 0,51,52
 1683 589.032258065 1683 589.032258065 1586.62528016 384.883657983 c 128,-1,53
 1490.25056033 180.735057901 1490.25056033 180.735057901 1321.76875843 61.8675289503 c 128,-1,54
 1153.28695652 -57 1153.28695652 -57 937.306844598 -57 c 128,-1,55
 721.326732673 -57 721.326732673 -57 584 133 c 1,56,57
 473.978754051 -26.7927619734 473.978754051 -26.7927619734 307 -48.5 c 0,58,59
 257 -55 257 -55 202 -55 c 0,60,61
 96.3623188406 -55 96.3623188406 -55 21.6811594203 20.7794117647 c 128,-1,62
 -53 96.5588235294 -53 96.5588235294 -53 179.348377282 c 128,-1,63
 -53 262.137931034 -53 262.137931034 4.875 294.068965517 c 128,-1,64
 62.75 326 62.75 326 152 326 c 1,0,-1
EndSplineSet
EndChar

StartChar: F
Encoding: 70 70 8
Width: 1313
Flags: W
LayerCount: 2
Fore
SplineSet
891 795 m 1,0,1
 967 805 967 805 1060.5 805 c 128,-1,2
 1154 805 1154 805 1272 799 c 1,3,4
 1309 799 1309 799 1309 766 c 0,5,6
 1309 728 1309 728 1277.4 688.5 c 128,-1,7
 1245.8 649 1245.8 649 1208 649 c 0,8,9
 966.25 649 966.25 649 860 639 c 1,10,11
 774.50275698 227.263277033 774.50275698 227.263277033 658.5 47 c 0,12,13
 512.421296296 -180 512.421296296 -180 252 -180 c 0,14,15
 125.328358209 -180 125.328358209 -180 53.6641791045 -107.25 c 128,-1,16
 -18 -34.5 -18 -34.5 -18 49 c 0,17,18
 -18 205 -18 205 195 205 c 1,19,20
 184 146.857142857 184 146.857142857 184 70 c 0,21,22
 184 -75.1875 184 -75.1875 293 -82 c 1,23,24
 443.759036145 -82 443.759036145 -82 580 432 c 0,25,26
 602 515 602 515 623 600 c 1,27,-1
 537 575 l 2,28,29
 534 574 534 574 525 574 c 128,-1,30
 516 574 516 574 505.5 578 c 0,31,32
 479 588.095238095 479 588.095238095 479 623.547619048 c 0,33,34
 479 659 479 659 499.160427807 683.192513369 c 0,35,36
 519.320855615 707.385026738 519.320855615 707.385026738 657 750 c 1,37,38
 676 831 676 831 714.483542947 1000.78033653 c 0,39,40
 752.967085893 1170.56067306 752.967085893 1170.56067306 793.51196522 1233.83093154 c 0,41,42
 834.056844547 1297.10119003 834.056844547 1297.10119003 899 1339 c 1,43,-1
 854 1341 l 1,44,45
 621.048387097 1341 621.048387097 1341 431.5 1237 c 0,46,47
 315.81045188 1173.52431873 315.81045188 1173.52431873 270.5 1097 c 0,48,49
 248 1059 248 1059 248 1022 c 0,50,51
 248 900.529411765 248 900.529411765 408 829 c 1,52,53
 408 754.363636364 408 754.363636364 395.5 711.181818182 c 128,-1,54
 383 668 383 668 379 662 c 1,55,56
 141.407068063 759.327225131 141.407068063 759.327225131 81.5 918 c 0,57,58
 63 967 63 967 63 1037 c 128,-1,59
 63 1107 63 1107 114 1190 c 128,-1,60
 165 1273 165 1273 262 1338.5 c 0,61,62
 467.988980443 1477.59565174 467.988980443 1477.59565174 813 1507 c 1,63,64
 965.428571429 1518 965.428571429 1518 1136.21428571 1518 c 128,-1,65
 1307 1518 1307 1518 1374 1517 c 128,-1,66
 1441 1516 1441 1516 1509 1516 c 1,67,-1
 1368 1305 l 1,68,69
 1270 1305 1270 1305 1178.5 1316 c 128,-1,70
 1087 1327 1087 1327 989 1335 c 1,71,72
 961 1192 961 1192 937.5 1057 c 128,-1,73
 914 922 914 922 891 795 c 1,0,1
EndSplineSet
EndChar

StartChar: G
Encoding: 71 71 9
Width: 1458
Flags: W
LayerCount: 2
Fore
SplineSet
-88.9375 299 m 0,0,1
 -117 299 -117 299 -117 365.727272727 c 0,2,3
 -117 393.454545455 -117 393.454545455 -96 403 c 1,4,5
 -73 417 -73 417 47.6206896552 481.422413793 c 128,-1,6
 168.24137931 545.844827586 168.24137931 545.844827586 172 559 c 1,7,8
 172 812.165217391 172 812.165217391 290.891678623 1032.37328301 c 128,-1,9
 409.783357245 1252.58134864 409.783357245 1252.58134864 617.141678623 1385.29067432 c 128,-1,10
 824.5 1518 824.5 1518 1073 1518 c 0,11,12
 1224.80851064 1518 1224.80851064 1518 1334.40425532 1413.93939394 c 128,-1,13
 1444 1309.87878788 1444 1309.87878788 1444 1188 c 0,14,15
 1444 1120 1444 1120 1420.5 1096.5 c 128,-1,16
 1397 1073 1397 1073 1337 1049 c 1,17,-1
 1274 1020 l 1,18,-1
 444 586 l 1,19,20
 469.98816568 471.218934911 469.98816568 471.218934911 548.36155272 382.109467456 c 128,-1,21
 626.734939759 293 626.734939759 293 754.56746988 293 c 128,-1,22
 882.4 293 882.4 293 1061 434 c 1,23,24
 1066.8 445.6 1066.8 445.6 1086.4 526.8 c 128,-1,25
 1106 608 1106 608 1108 621 c 1,26,-1
 1307 621 l 1,27,-1
 1188 119 l 1,28,29
 1284.70134424 164.66452367 1284.70134424 164.66452367 1480.5 342.5 c 0,30,31
 1535 392 1535 392 1583 440 c 1,32,-1
 1583 330 l 1,33,34
 1465.16763006 203.439306358 1465.16763006 203.439306358 1280 67 c 0,35,36
 1197.46875 6.1875 1197.46875 6.1875 1157 -10 c 1,37,38
 1085.78501338 -348.271186441 1085.78501338 -348.271186441 880 -438.5 c 0,39,40
 815 -467 815 -467 755 -467 c 0,41,42
 636.846153846 -467 636.846153846 -467 541.423076923 -395.706896552 c 128,-1,43
 446 -324.413793103 446 -324.413793103 446 -221 c 0,44,45
 446 -146.129032258 446 -146.129032258 491.5 -106.5 c 0,46,47
 507 -93 507 -93 528 -88 c 1,48,-1
 985 45 l 1,49,50
 996 90 996 90 1011.375 151.5 c 128,-1,51
 1026.75 213 1026.75 213 1038 285 c 1,52,-1
 1055 371 l 1,53,54
 953.661608008 271.729738457 953.661608008 271.729738457 804.380099779 194.364869228 c 128,-1,55
 655.098591549 117 655.098591549 117 551 117 c 0,56,57
 313.529411765 117 313.529411765 117 190 453 c 1,58,-1
 70 383 l 2,59,60
 44 368 44 368 -13.5 333.5 c 0,61,62
 -71 299 -71 299 -88.9375 299 c 0,0,1
954 -74 m 1,63,64
 916.562347188 -89.8826405868 916.562347188 -89.8826405868 814.790398686 -116.013276013 c 128,-1,65
 713.018450185 -142.143911439 713.018450185 -142.143911439 678 -161 c 0,66,67
 621 -191.692307692 621 -191.692307692 621 -249.17047817 c 128,-1,68
 621 -306.648648649 621 -306.648648649 648.5 -342.324324324 c 0,69,70
 699.125 -408 699.125 -408 766 -408 c 0,71,72
 856.743243243 -408 856.743243243 -408 924.5 -190 c 0,73,74
 945.390532544 -122.786982249 945.390532544 -122.786982249 954 -74 c 1,63,64
1212.81365314 1080.69501845 m 128,-1,76
 1231 1100.7 1231 1100.7 1231 1142.35 c 0,77,78
 1231 1237.83636364 1231 1237.83636364 1169.5 1334 c 128,-1,79
 1108.10465116 1430 1108.10465116 1430 1042 1430 c 0,80,81
 875.183486239 1430 875.183486239 1430 733.470667986 1317.25038548 c 128,-1,82
 591.757849734 1204.50077096 591.757849734 1204.50077096 508.878924867 1029.30101839 c 128,-1,83
 426 854.101265823 426 854.101265823 426 678 c 1,84,-1
 844 887 l 2,85,86
 895 912 895 912 943 937 c 128,-1,87
 991 962 991 962 1049.10617761 992.156370656 c 128,-1,88
 1107.21235521 1022.31274131 1107.21235521 1022.31274131 1150.91983074 1041.50138911 c 128,-1,75
 1194.62730627 1060.6900369 1194.62730627 1060.6900369 1212.81365314 1080.69501845 c 128,-1,76
EndSplineSet
EndChar

StartChar: H
Encoding: 72 72 10
Width: 1870
Flags: W
LayerCount: 2
Fore
SplineSet
291 256 m 2,0,1
 291 53 291 53 387.940677966 53 c 0,2,3
 531.5 53 531.5 53 609.5 261 c 0,4,5
 650.116022099 369.309392265 650.116022099 369.309392265 670.55801105 473.154696133 c 128,-1,6
 691 577 691 577 702 631 c 1,7,-1
 489 600 l 1,8,9
 460.220338983 597.601694915 460.220338983 597.601694915 446.110169492 610.300847458 c 128,-1,10
 432 623 432 623 432 644 c 0,11,12
 432 707.875 432 707.875 483 727 c 1,13,14
 577.909090909 750.727272727 577.909090909 750.727272727 735 774 c 1,15,16
 778.134020619 978.886597938 778.134020619 978.886597938 818.067010309 1057.44329897 c 128,-1,17
 858 1136 858 1136 902.5 1183.5 c 128,-1,18
 947 1231 947 1231 1012 1266 c 1,19,20
 956 1271 956 1271 813.333333333 1299 c 0,21,22
 670.666666667 1327 670.666666667 1327 585.583333333 1327 c 128,-1,23
 500.5 1327 500.5 1327 420 1313 c 0,24,25
 160 1267.7826087 160 1267.7826087 160 1141 c 0,26,27
 160 1039.33333333 160 1039.33333333 352 954 c 1,28,29
 352 859 352 859 322 819 c 1,30,31
 113.59025788 899.157593123 113.59025788 899.157593123 34.5 1034 c 0,32,33
 4 1086 4 1086 4 1150 c 0,34,35
 4 1272.23076923 4 1272.23076923 83.3967879074 1354.68127975 c 128,-1,36
 162.793575815 1437.13179027 162.793575815 1437.13179027 282.133630013 1476.56589513 c 128,-1,37
 401.473684211 1516 401.473684211 1516 497.736842105 1516 c 128,-1,38
 594 1516 594 1516 663 1504.5 c 128,-1,39
 732 1493 732 1493 857.222222222 1468.5 c 128,-1,40
 982.444444444 1444 982.444444444 1444 1053.28472222 1444 c 128,-1,41
 1124.125 1444 1124.125 1444 1195.77426471 1465.22941176 c 128,-1,42
 1267.42352941 1486.45882353 1267.42352941 1486.45882353 1303 1489 c 1,43,44
 1286.05216426 1390.70255272 1286.05216426 1390.70255272 1229.5 1324 c 0,45,46
 1210 1301 1210 1301 1186 1286 c 1,47,48
 1086.7329591 1146.00801925 1086.7329591 1146.00801925 1012 932 c 0,49,50
 990 869 990 869 967 805 c 1,51,52
 1091.55172414 816.862068966 1091.55172414 816.862068966 1245 823 c 1,53,54
 1347.24155578 1099.05220061 1347.24155578 1099.05220061 1522 1291 c 0,55,56
 1726.85074627 1516 1726.85074627 1516 1950 1516 c 0,57,58
 2031.86206897 1516 2031.86206897 1516 2133.93103448 1468.25806452 c 128,-1,59
 2236 1420.51612903 2236 1420.51612903 2236 1341 c 0,60,61
 2236 1303.84210526 2236 1303.84210526 2166.94098361 1238.41777394 c 128,-1,62
 2097.88196721 1172.99344262 2097.88196721 1172.99344262 2062 1171 c 1,63,-1
 2054 1192 l 1,64,65
 2009.42857143 1348 2009.42857143 1348 1903 1348 c 0,66,67
 1703.87826087 1348 1703.87826087 1348 1522 1057.5 c 0,68,69
 1457.34756618 954.235695986 1457.34756618 954.235695986 1403 829 c 1,70,-1
 1477 829 l 2,71,72
 1710.9 829 1710.9 829 1721.95 816 c 128,-1,73
 1733 803 1733 803 1733 781.285714286 c 128,-1,74
 1733 759.571428571 1733 759.571428571 1701.34482759 726.785714286 c 128,-1,75
 1669.68965517 694 1669.68965517 694 1632 694 c 0,76,77
 1494 694 1494 694 1362 688 c 1,78,79
 1319 540.894736842 1319 540.894736842 1319 432.947368421 c 0,80,81
 1319 90 1319 90 1470 90 c 0,82,83
 1659.24615385 90 1659.24615385 90 1995 442 c 1,84,-1
 1993 328 l 1,85,86
 1761.38810198 69.5345485897 1761.38810198 69.5345485897 1518.5 -24 c 0,87,88
 1438 -55 1438 -55 1381 -55 c 0,89,90
 1272.51807229 -55 1272.51807229 -55 1216.75903614 29.1454545455 c 128,-1,91
 1161 113.290909091 1161 113.290909091 1161 301.020454545 c 128,-1,92
 1161 488.75 1161 488.75 1206 680 c 1,93,94
 1040.5 668.007246377 1040.5 668.007246377 932 657 c 1,95,96
 912 583 912 583 891 501.5 c 0,97,98
 812.033057851 195.033057851 812.033057851 195.033057851 687.016528926 70.0165289256 c 128,-1,99
 562 -55 562 -55 393 -55 c 128,-1,100
 224 -55 224 -55 139.5 29.5 c 128,-1,101
 55 114 55 114 55 195 c 0,102,103
 55 296.741176471 55 296.741176471 206.5 311 c 0,104,105
 249 315 249 315 291 315 c 1,106,-1
 291 256 l 2,0,1
EndSplineSet
EndChar

StartChar: J
Encoding: 74 74 11
Width: 1077
Flags: W
LayerCount: 2
Fore
SplineSet
901 840 m 1,0,1
 1033 840 1033 840 1176 862 c 1,2,3
 1176 782.444444444 1176 782.444444444 1145 748 c 1,4,5
 1007.97241379 710.965517241 1007.97241379 710.965517241 872 700 c 1,6,-1
 754 133 l 1,7,8
 807 165 807 165 857.5 191.5 c 0,9,10
 1054.75893398 295.01211387 1054.75893398 295.01211387 1210 446 c 1,11,-1
 1210 334 l 1,12,13
 1111.06431274 213.863808323 1111.06431274 213.863808323 872.5 79.5 c 0,14,15
 785.167938931 30.3129770992 785.167938931 30.3129770992 731 10 c 1,16,17
 659.721657863 -313.72247054 659.721657863 -313.72247054 462.5 -400.5 c 0,18,19
 400 -428 400 -428 341 -428 c 0,20,21
 227.03125 -428 227.03125 -428 133.015625 -358.034883721 c 128,-1,22
 39 -288.069767442 39 -288.069767442 39 -197.034883721 c 128,-1,23
 39 -106 39 -106 84.5 -60.5 c 0,24,25
 100 -45 100 -45 123 -39 c 2,26,-1
 541 74 l 1,27,28
 558.69630643 181.65253078 558.69630643 181.65253078 612.848153215 416.82626539 c 128,-1,29
 667 652 667 652 676 698 c 1,30,-1
 676 700 l 1,31,32
 344.333641405 716.311460259 344.333641405 716.311460259 234 848 c 0,33,34
 203 885 203 885 193 922 c 1,35,36
 180 954 180 954 195.5 1008.5 c 128,-1,37
 211 1063 211 1063 253.5 1125.5 c 0,38,39
 352.046783626 1270.42174063 352.046783626 1270.42174063 544.960891813 1377.71087031 c 128,-1,40
 737.875 1485 737.875 1485 1001 1485 c 0,41,42
 1046.125 1485 1046.125 1485 1117.77426471 1506.22941176 c 128,-1,43
 1189.42352941 1527.45882353 1189.42352941 1527.45882353 1225 1530 c 1,44,45
 1203.51742627 1408.26541555 1203.51742627 1408.26541555 1132 1345 c 0,46,47
 1106 1322 1106 1322 1073 1311 c 1,48,49
 965.817501559 1123.8559551 965.817501559 1123.8559551 901 840 c 1,0,1
350 947 m 0,50,51
 350 906.666666667 350 906.666666667 438.512195122 877.162601626 c 128,-1,52
 527.024390244 847.658536585 527.024390244 847.658536585 707 840 c 1,53,54
 746.832387604 1006.35879529 746.832387604 1006.35879529 787.916193802 1087.17939764 c 0,55,56
 864.389312977 1237.61832061 864.389312977 1237.61832061 969 1303 c 1,57,58
 768.294117647 1303 768.294117647 1303 628.931781046 1234.3287037 c 128,-1,59
 489.569444444 1165.65740741 489.569444444 1165.65740741 419.784722222 1079.25727513 c 128,-1,60
 350 992.857142857 350 992.857142857 350 947 c 0,50,51
524 -66 m 1,61,62
 476 -82 476 -82 422.5 -92 c 128,-1,63
 369 -102 369 -102 324 -114.5 c 0,64,65
 221 -143.111111111 221 -143.111111111 221 -200 c 0,66,67
 221 -263.666666667 221 -263.666666667 255.625 -309.833333333 c 128,-1,68
 290.25 -356 290.25 -356 339.625 -356 c 128,-1,69
 389 -356 389 -356 418 -324 c 0,70,71
 480.890645586 -254.60342556 480.890645586 -254.60342556 524 -66 c 1,61,62
EndSplineSet
EndChar

StartChar: K
Encoding: 75 75 12
Width: 1888
Flags: W
LayerCount: 2
Fore
SplineSet
156 1141 m 0,0,1
 156 1036.28571429 156 1036.28571429 348 954 c 1,2,3
 348 860.333333333 348 860.333333333 317 819 c 1,4,5
 108.6917238 900.689520078 108.6917238 900.689520078 30.5 1034 c 0,6,7
 0 1086 0 1086 0 1150 c 0,8,9
 0 1272.23076923 0 1272.23076923 79.3967879074 1354.68127975 c 128,-1,10
 158.793575815 1437.13179027 158.793575815 1437.13179027 278.133630013 1476.56589513 c 128,-1,11
 397.473684211 1516 397.473684211 1516 492.236842105 1516 c 128,-1,12
 587 1516 587 1516 653.5 1504.5 c 128,-1,13
 720 1493 720 1493 839.777777778 1468.5 c 128,-1,14
 959.555555556 1444 959.555555556 1444 1029.34027778 1444 c 128,-1,15
 1099.125 1444 1099.125 1444 1170.77426471 1465.22941176 c 128,-1,16
 1242.42352941 1486.45882353 1242.42352941 1486.45882353 1278 1489 c 1,17,18
 1260.79689234 1389.22197558 1260.79689234 1389.22197558 1205.5 1324 c 0,19,20
 1186 1301 1186 1301 1161 1286 c 1,21,22
 1032.96004917 1111.11616472 1032.96004917 1111.11616472 938 793 c 1,23,-1
 920 731 l 1,24,25
 1013 826 1013 826 1096 921 c 128,-1,26
 1179 1016 1179 1016 1256 1103.5 c 0,27,28
 1439.72491909 1312.27831715 1439.72491909 1312.27831715 1553 1398 c 0,29,30
 1711.57142857 1518 1711.57142857 1518 1862 1518 c 0,31,32
 1931.92 1518 1931.92 1518 2004.96 1496 c 128,-1,33
 2078 1474 2078 1474 2113.5 1454.5 c 0,34,35
 2195 1409.73239437 2195 1409.73239437 2195 1341 c 0,36,37
 2195 1303.84210526 2195 1303.84210526 2125.94098361 1238.41777394 c 128,-1,38
 2056.88196721 1172.99344262 2056.88196721 1172.99344262 2021 1171 c 1,39,-1
 2013 1192 l 1,40,41
 1968.42857143 1348 1968.42857143 1348 1862 1348 c 0,42,43
 1675.85714286 1348 1675.85714286 1348 1525 1156 c 0,44,45
 1481 1100 1481 1100 1396.52337079 987.673932584 c 128,-1,46
 1312.04674157 875.347865169 1312.04674157 875.347865169 1233 803 c 1,47,-1
 1442 393 l 1,48,49
 1479 325 1479 325 1507 270.5 c 128,-1,50
 1535 216 1535 216 1558 179.5 c 0,51,52
 1606.30337079 102.844650708 1606.30337079 102.844650708 1649.65168539 117.422325354 c 128,-1,53
 1693 132 1693 132 1779.5 212.5 c 128,-1,54
 1866 293 1866 293 2009 436 c 1,55,-1
 2009 324 l 1,56,57
 1663.85915493 -53 1663.85915493 -53 1573 -53 c 0,58,59
 1438.15909091 -53 1438.15909091 -53 1284 270 c 1,60,-1
 1085 719 l 1,61,-1
 891 625 l 1,62,63
 831.569266589 398.082654249 831.569266589 398.082654249 796.784633295 310.541327125 c 0,64,65
 725.408636545 130.911735306 725.408636545 130.911735306 623.646423536 37.9558676529 c 128,-1,66
 521.884210526 -55 521.884210526 -55 358 -55 c 0,67,68
 150.714285714 -55 150.714285714 -55 63.5 93 c 0,69,70
 31 148.151515152 31 148.151515152 31 191.575757576 c 0,71,72
 31 266.328358209 31 266.328358209 106.5 294.5 c 0,73,74
 161.44 315 161.44 315 266 315 c 1,75,-1
 266 256 l 2,76,77
 266 165.047619048 266 165.047619048 279 128.523809524 c 0,78,79
 305.881355932 53 305.881355932 53 366.440677966 53 c 128,-1,80
 427 53 427 53 470.5 87.5 c 128,-1,81
 514 122 514 122 546.5 177.5 c 128,-1,82
 579 233 579 233 601.5 303.5 c 128,-1,83
 624 374 624 374 640.5 445.5 c 128,-1,84
 657 517 657 517 669.5 583.5 c 128,-1,85
 682 650 682 650 694 698 c 1,86,-1
 715 793 l 2,87,88
 757.996763754 986.485436893 757.996763754 986.485436893 795.998381877 1061.24271845 c 128,-1,89
 834 1136 834 1136 878 1184 c 128,-1,90
 922 1232 922 1232 987 1266 c 1,91,92
 935 1272 935 1272 801.428571429 1299.5 c 0,93,94
 667.857142857 1327 667.857142857 1327 582.178571429 1327 c 128,-1,95
 496.5 1327 496.5 1327 416 1313 c 0,96,97
 156 1267.7826087 156 1267.7826087 156 1141 c 0,0,1
EndSplineSet
EndChar

StartChar: L
Encoding: 76 76 13
Width: 1255
Flags: W
LayerCount: 2
Fore
SplineSet
852 840 m 0,0,1
 817 840 817 840 817 881.285714286 c 128,-1,2
 817 922.571428571 817 922.571428571 992.5 1005.5 c 0,3,4
 1100.03027523 1056.31100917 1100.03027523 1056.31100917 1135.01513761 1088.65550459 c 128,-1,5
 1170 1121 1170 1121 1171 1147 c 1,6,7
 1170 1147 1170 1147 1166.5 1167 c 128,-1,8
 1163 1187 1163 1187 1155.5 1217 c 0,9,10
 1105.5 1417 1105.5 1417 1001 1417 c 1,11,12
 930.075316108 1408.81638263 930.075316108 1408.81638263 824.629612077 1275.71278902 c 128,-1,13
 719.183908046 1142.6091954 719.183908046 1142.6091954 701.091954023 1057.8045977 c 0,14,15
 651.824154589 826.865700483 651.824154589 826.865700483 599.349256782 637.581247677 c 128,-1,16
 546.874358974 448.296794872 546.874358974 448.296794872 469 266 c 1,17,18
 491 260 491 260 509.5 253 c 128,-1,19
 528 246 528 246 545 241.5 c 128,-1,20
 562 237 562 237 590 226.5 c 0,21,22
 876.666666667 119 876.666666667 119 940 119 c 0,23,24
 1068.09565217 119 1068.09565217 119 1376 438 c 1,25,-1
 1376 326 l 1,26,27
 1195.7173913 145.717391304 1195.7173913 145.717391304 1101.85869565 79.3586956522 c 0,28,29
 908.990990991 -57 908.990990991 -57 754 -57 c 0,30,31
 747.285714286 -57 747.285714286 -57 694.680302077 -28.6740088106 c 128,-1,32
 642.074889868 -0.348017621145 642.074889868 -0.348017621145 324 117 c 1,33,34
 97.4482758621 -29 97.4482758621 -29 -39 -29 c 0,35,36
 -96 -29 -96 -29 -132 19 c 0,37,38
 -147 39 -147 39 -147 67.5 c 128,-1,39
 -147 96 -147 96 -129 114.5 c 128,-1,40
 -111 133 -111 133 -86.5 147 c 128,-1,41
 -62 161 -62 161 -36 171.5 c 128,-1,42
 -10 182 -10 182 6 190 c 2,43,-1
 268 309 l 1,44,-1
 500 1137 l 2,45,46
 519.03006012 1208.36272545 519.03006012 1208.36272545 588.5 1257.5 c 0,47,48
 609 1272 609 1272 646.48409894 1299.87279152 c 0,49,50
 683.96819788 1327.74558304 683.96819788 1327.74558304 747.5 1369 c 0,51,52
 976.96 1518 976.96 1518 1063.52325581 1518 c 0,53,54
 1117 1518 1117 1518 1178 1489.5 c 128,-1,55
 1239 1461 1239 1461 1286.5 1413.5 c 0,56,57
 1391 1309 1391 1309 1391 1178 c 0,58,59
 1391 1121.38095238 1391 1121.38095238 1348 1099.19047619 c 128,-1,60
 1305 1077 1305 1077 1242.5 1042.5 c 128,-1,61
 1180 1008 1180 1008 1027.16666667 924 c 128,-1,62
 874.333333333 840 874.333333333 840 852 840 c 0,0,1
EndSplineSet
EndChar

StartChar: M
Encoding: 77 77 14
Width: 1712
Flags: W
LayerCount: 2
Fore
SplineSet
639 -18 m 1,0,1
 586 -2.61290322581 586 -2.61290322581 586 41 c 1,2,-1
 614 1128 l 1,3,-1
 600 1128 l 1,4,-1
 121 131 l 1,5,6
 51.7367149758 6.32608695652 51.7367149758 6.32608695652 -97.8662104133 -126.836956522 c 128,-1,7
 -247.469135802 -260 -247.469135802 -260 -365 -260 c 0,8,9
 -412 -260 -412 -260 -412 -123 c 0,10,11
 -412 -66.2222222222 -412 -66.2222222222 -321.5 -26 c 0,12,13
 -281 -8 -281 -8 -230 10.5 c 0,14,15
 -22.4090712743 85.8025917927 -22.4090712743 85.8025917927 49 213 c 1,16,17
 157.738461538 444.784615385 157.738461538 444.784615385 268.369230769 676.892307692 c 128,-1,18
 379 909 379 909 428.5 1013 c 128,-1,19
 478 1117 478 1117 524 1213 c 128,-1,20
 570 1309 570 1309 608 1391 c 1,21,22
 671.327032136 1508.15500945 671.327032136 1508.15500945 808.5 1548.5 c 0,23,24
 851 1561 851 1561 895 1561 c 1,25,-1
 907 1554 l 1,26,27
 869.577777778 1279.57037037 869.577777778 1279.57037037 854.788888889 949.285185185 c 128,-1,28
 840 619 840 619 831 485 c 1,29,-1
 846 485 l 1,30,31
 867.387096774 531.064516129 867.387096774 531.064516129 958.369224063 702.919645452 c 128,-1,32
 1049.35135135 874.774774775 1049.35135135 874.774774775 1325 1432 c 1,33,-1
 1323 1430 l 1,34,35
 1360.6460177 1492.74336283 1360.6460177 1492.74336283 1516.5 1553.5 c 0,36,37
 1576.7826087 1577 1576.7826087 1577 1599.39130435 1577 c 128,-1,38
 1622 1577 1622 1577 1624 1575 c 1,39,40
 1603 1466 1603 1466 1579 1342 c 0,41,42
 1411 474 1411 474 1411 246.318181818 c 0,43,44
 1411 141 1411 141 1458 141 c 0,45,46
 1523.625 141 1523.625 141 1833 438 c 1,47,-1
 1833 324 l 1,48,49
 1444.525 -55 1444.525 -55 1284 -55 c 0,50,51
 1171 -55 1171 -55 1171 153.592592593 c 128,-1,52
 1171 362.185185185 1171 362.185185185 1272.5 896 c 0,53,54
 1286 967 1286 967 1294.98884758 1023.69888476 c 128,-1,55
 1303.97769517 1080.39776952 1303.97769517 1080.39776952 1317.48884758 1142.32388476 c 128,-1,56
 1331 1204.25 1331 1204.25 1331 1214 c 256,57,58
 1331 1231 1331 1231 1321 1231 c 256,59,60
 1307.8 1231 1307.8 1231 1292.80151515 1199.42424242 c 0,61,62
 1277.8030303 1167.84848485 1277.8030303 1167.84848485 1166 949 c 0,63,64
 683.306569343 4.15328467153 683.306569343 4.15328467153 639 -18 c 1,0,1
EndSplineSet
EndChar

StartChar: N
Encoding: 78 78 15
Width: 1473
Flags: W
LayerCount: 2
Fore
SplineSet
549 1040 m 1,0,1
 949.842105263 1516 949.842105263 1516 1270 1516 c 0,2,3
 1354 1516 1354 1516 1354 1423 c 0,4,5
 1354 1394 1354 1394 1335 1299 c 128,-1,6
 1316 1204 1316 1204 1301.5 1129 c 128,-1,7
 1287 1054 1287 1054 1271 971.5 c 0,8,9
 1188 543.53125 1188 543.53125 1188 345.265625 c 128,-1,10
 1188 147 1188 147 1257 147 c 0,11,12
 1293 147 1293 147 1341 195 c 1,13,-1
 1597 440 l 1,14,-1
 1595 330 l 1,15,16
 1592 327 1592 327 1582.5 316.5 c 128,-1,17
 1573 306 1573 306 1559.5 292 c 128,-1,18
 1546 278 1546 278 1530 262 c 128,-1,19
 1514 246 1514 246 1492.125 223.34375 c 128,-1,20
 1470.25 200.6875 1470.25 200.6875 1456.125 188.34375 c 128,-1,21
 1442 176 1442 176 1415 151 c 0,22,23
 1190.36 -57 1190.36 -57 1100 -57 c 0,24,25
 963 -57 963 -57 963 274.307692308 c 128,-1,26
 963 605.615384615 963 605.615384615 1053 1051 c 0,27,28
 1058 1076 1058 1076 1066 1105.5 c 128,-1,29
 1074 1135 1074 1135 1087 1186.13333333 c 128,-1,30
 1100 1237.26666667 1100 1237.26666667 1100 1273.13333333 c 128,-1,31
 1100 1309 1100 1309 1073 1309 c 0,32,33
 1059.71428571 1309 1059.71428571 1309 1030 1296 c 0,34,35
 795.690986114 1197.91715698 795.690986114 1197.91715698 633.483209711 1014.70405701 c 128,-1,36
 471.275433308 831.490957046 471.275433308 831.490957046 400.5 558.5 c 0,37,38
 379.424460432 477.208633094 379.424460432 477.208633094 342.481460985 307.544487487 c 128,-1,39
 305.538461538 137.88034188 305.538461538 137.88034188 272 0 c 1,40,-1
 66 0 l 1,41,42
 66 126.085714286 66 126.085714286 148 433 c 0,43,44
 183 564 183 564 223 707.5 c 128,-1,45
 263 851 263 851 295 995 c 1,46,-1
 377 1313 l 1,47,-1
 55 1085 l 1,48,-1
 25 1075 l 1,49,50
 -2 1075 -2 1075 -2 1126 c 0,51,52
 -2 1149.8125 -2 1149.8125 23 1167 c 1,53,-1
 453 1438 l 1,54,55
 579.75 1516 579.75 1516 623 1516 c 0,56,57
 643 1516 643 1516 643 1476 c 128,-1,58
 643 1436 643 1436 604 1286.5 c 2,59,-1
 577 1183 l 2,60,61
 565 1137 565 1137 565 1122 c 1,62,-1
 549 1040 l 1,0,1
EndSplineSet
EndChar

StartChar: P
Encoding: 80 80 16
Width: 1317
Flags: W
LayerCount: 2
Fore
SplineSet
61 66 m 1,0,1
 61 -82 61 -82 178 -82 c 0,2,3
 314.330434783 -82 314.330434783 -82 409 204.5 c 0,4,5
 453.700483092 339.777777778 453.700483092 339.777777778 474.850241546 461.388888889 c 128,-1,6
 496 583 496 583 502 614 c 2,7,-1
 612 1190 l 2,8,9
 619.624829468 1233.20736698 619.624829468 1233.20736698 719 1244.5 c 0,10,11
 741 1247 741 1247 752 1247 c 2,12,-1
 840 1249 l 1,13,14
 822.5066313 1123.04774536 822.5066313 1123.04774536 785.75331565 945.023872679 c 128,-1,15
 749 767 749 767 735 711 c 1,16,-1
 760 711 l 2,17,18
 1001.58823529 711 1001.58823529 711 1137.79411765 818.697674419 c 128,-1,19
 1274 926.395348837 1274 926.395348837 1274 1065.07903035 c 128,-1,20
 1274 1203.76271186 1274 1203.76271186 1149.94444444 1298.38135593 c 128,-1,21
 1025.88888889 1393 1025.88888889 1393 816.368972746 1393 c 128,-1,22
 606.849056604 1393 606.849056604 1393 418.5 1310.5 c 0,23,24
 292.001668942 1255.09164012 292.001668942 1255.09164012 237 1177.5 c 0,25,26
 209 1138 209 1138 209 1078.88888889 c 0,27,28
 209 1019.77777778 209 1019.77777778 251.491176471 981.063594771 c 128,-1,29
 293.982352941 942.349411765 293.982352941 942.349411765 373 913 c 1,30,31
 373 811.857142857 373 811.857142857 346 754 c 1,32,33
 227.281609195 790.528735632 227.281609195 790.528735632 137.140804598 874.380646886 c 128,-1,34
 47 958.23255814 47 958.23255814 47 1082.66800321 c 128,-1,35
 47 1207.10344828 47 1207.10344828 171 1314 c 0,36,37
 407.64 1518 407.64 1518 899 1518 c 0,38,39
 1036 1518 1036 1518 1162.5 1483 c 128,-1,40
 1289 1448 1289 1448 1370 1389.5 c 0,41,42
 1528 1275.38888889 1528 1275.38888889 1528 1090.20726496 c 128,-1,43
 1528 905.025641026 1528 905.025641026 1339.94897959 747.512820513 c 128,-1,44
 1151.89795918 590 1151.89795918 590 856 590 c 0,45,46
 788 590 788 590 715 602 c 1,47,48
 630.34059098 44.6588906169 630.34059098 44.6588906169 372 -118 c 0,49,50
 273.529411765 -180 273.529411765 -180 156.764705882 -180 c 128,-1,51
 40 -180 40 -180 -46.5 -118.817073171 c 128,-1,52
 -133 -57.6341463415 -133 -57.6341463415 -133 53 c 0,53,54
 -133 176 -133 176 63 176 c 1,55,-1
 61 66 l 1,0,1
EndSplineSet
EndChar

StartChar: R
Encoding: 82 82 17
Width: 1616
Flags: W
LayerCount: 2
Fore
SplineSet
113 242 m 0,0,1
 113 53 113 53 238 53 c 0,2,3
 358.443243243 53 358.443243243 53 457.5 374.5 c 0,4,5
 524.201344017 590.986818299 524.201344017 590.986818299 572.67738681 861.784022868 c 128,-1,6
 621.153429603 1132.58122744 621.153429603 1132.58122744 633.446880611 1168.46637344 c 128,-1,7
 645.74033162 1204.35151944 645.74033162 1204.35151944 673.216319656 1226.67575972 c 128,-1,8
 700.692307692 1249 700.692307692 1249 791 1249 c 2,9,-1
 821.5 1249 l 2,10,11
 838 1249 838 1249 858 1247 c 1,12,13
 830.554726368 1020.9800995 830.554726368 1020.9800995 762 688 c 1,14,15
 988.2 688 988.2 688 1133.1 818.247191011 c 128,-1,16
 1278 948.494382022 1278 948.494382022 1278 1077.16775176 c 128,-1,17
 1278 1205.8411215 1278 1205.8411215 1162.90804598 1299.42056075 c 128,-1,18
 1047.81609195 1393 1047.81609195 1393 870 1393 c 0,19,20
 635.807692308 1393 635.807692308 1393 434.403846154 1309.216 c 0,21,22
 233 1225.432 233 1225.432 233 1076.60869565 c 0,23,24
 233 1019.2173913 233 1019.2173913 275.985197368 981.83895881 c 128,-1,25
 318.970394737 944.460526316 318.970394737 944.460526316 395 913 c 1,26,27
 395 819 395 819 369 754 c 1,28,29
 167.849318034 819.83113228 167.849318034 819.83113228 98 955.5 c 0,30,31
 72 1006 72 1006 72 1073 c 0,32,33
 72 1202.10526316 72 1202.10526316 188.690327356 1304.46519944 c 128,-1,34
 305.380654713 1406.82513571 305.380654713 1406.82513571 496.265799055 1462.41256786 c 128,-1,35
 687.150943396 1518 687.150943396 1518 891 1518 c 0,36,37
 1152.63013699 1518 1152.63013699 1518 1348.31506849 1401.86178862 c 128,-1,38
 1544 1285.72357724 1544 1285.72357724 1544 1098 c 0,39,40
 1544 846.291866029 1544 846.291866029 1216.5 722.5 c 0,41,42
 1112 683 1112 683 981 649 c 1,43,44
 1072.92406362 598.441765008 1072.92406362 598.441765008 1193.5 339.5 c 0,45,46
 1268.93323551 177.504035216 1268.93323551 177.504035216 1293.96661775 136.752017608 c 128,-1,47
 1319 96 1319 96 1336 96 c 128,-1,48
 1353 96 1353 96 1384 115 c 128,-1,49
 1415 134 1415 134 1452 165 c 128,-1,50
 1489 196 1489 196 1530 233.5 c 128,-1,51
 1571 271 1571 271 1609.5 309 c 128,-1,52
 1648 347 1648 347 1681 380 c 128,-1,53
 1714 413 1714 413 1737 434 c 1,54,-1
 1739 332 l 1,55,56
 1705 296 1705 296 1666.5 252.5 c 0,57,58
 1392.57471264 -57 1392.57471264 -57 1239.02346743 -57 c 128,-1,59
 1085.47222222 -57 1085.47222222 -57 1012.5 85 c 0,60,61
 994 121 994 121 973 150 c 1,62,63
 967 165 967 165 955.5 194.5 c 0,64,65
 852 460 852 460 748 600 c 1,66,67
 694.96875 401.1328125 694.96875 401.1328125 665.984375 325.56640625 c 0,68,69
 599.214808788 151.488608625 599.214808788 151.488608625 506 60 c 0,70,71
 386.79245283 -57 386.79245283 -57 215 -57 c 0,72,73
 89 -57 89 -57 -13 13.125 c 128,-1,74
 -115 83.25 -115 83.25 -115 205 c 0,75,76
 -115 287.769230769 -115 287.769230769 20 312 c 0,77,78
 59 319 59 319 84 319 c 128,-1,79
 109 319 109 319 117 315 c 1,80,81
 113 285 113 285 113 242 c 0,0,1
EndSplineSet
EndChar

StartChar: S
Encoding: 83 83 18
Width: 1069
Flags: W
LayerCount: 2
Fore
SplineSet
965 1225 m 0,0,1
 965 1423 965 1423 756 1423 c 0,2,3
 620.103896104 1423 620.103896104 1423 503.551948052 1339.90277778 c 128,-1,4
 387 1256.80555556 387 1256.80555556 387 1132.09865407 c 128,-1,5
 387 1007.39175258 387 1007.39175258 557.5 861.5 c 0,6,7
 696.071428571 742.928571429 696.071428571 742.928571429 750.035714286 688.964285714 c 0,8,9
 926 513 926 513 926 324 c 0,10,11
 926 165.484848485 926 165.484848485 825.732320516 52.0507060386 c 128,-1,12
 725.464641033 -61.3834364076 725.464641033 -61.3834364076 569.390215253 -120.691718204 c 128,-1,13
 413.315789474 -180 413.315789474 -180 270.962979483 -180 c 128,-1,14
 128.610169492 -180 128.610169492 -180 29.3050847458 -117.670212766 c 128,-1,15
 -70 -55.3404255319 -70 -55.3404255319 -70 51.554787234 c 128,-1,16
 -70 158.45 -70 158.45 33 194.5 c 0,17,18
 63 205 63 205 96 207 c 2,19,-1
 139 209 l 1,20,21
 135 169 135 169 135 120.5 c 128,-1,22
 135 72 135 72 137.5 36.5 c 0,23,24
 146.267605634 -88 146.267605634 -88 328 -88 c 0,25,26
 459.038461538 -88 459.038461538 -88 584.019230769 -3.5974025974 c 128,-1,27
 709 80.8051948052 709 80.8051948052 709 207.069264069 c 128,-1,28
 709 333.333333333 709 333.333333333 569 488.5 c 0,29,30
 509 555 509 555 439.5 621.5 c 128,-1,31
 370 688 370 688 310 755 c 0,32,33
 170 911.333333333 170 911.333333333 170 1024 c 0,34,35
 170 1170.46808511 170 1170.46808511 273 1291 c 0,36,37
 410.577977528 1451.99550562 410.577977528 1451.99550562 660.5 1503 c 0,38,39
 734 1518 734 1518 795 1518 c 0,40,41
 934 1518 934 1518 1027 1456 c 0,42,43
 1145 1377.33333333 1145 1377.33333333 1145 1227 c 0,44,45
 1145 1200.22222222 1145 1200.22222222 839.5 1030.5 c 0,46,47
 728.8 969 728.8 969 698 958 c 1,48,-1
 698 1057 l 1,49,50
 717.662650602 1068.06024096 717.662650602 1068.06024096 795.843696435 1105.16311017 c 0,51,52
 874.024742268 1142.26597938 874.024742268 1142.26597938 919.512371134 1171.64340636 c 128,-1,53
 965 1201.02083333 965 1201.02083333 965 1225 c 0,0,1
EndSplineSet
EndChar

StartChar: T
Encoding: 84 84 19
Width: 1085
Flags: W
LayerCount: 2
Fore
SplineSet
252 1032 m 0,0,1
 252 909.647058824 252 909.647058824 412 840 c 1,2,3
 412 764.363636364 412 764.363636364 399.5 721.181818182 c 128,-1,4
 387 678 387 678 383 672 c 1,5,6
 68 801.036144578 68 801.036144578 68 1026 c 0,7,8
 68 1146.78947368 68 1146.78947368 167.5 1262 c 0,9,10
 321.064927701 1439.81202155 321.064927701 1439.81202155 613 1498.5 c 0,11,12
 710 1518 710 1518 809.160714286 1518 c 128,-1,13
 908.321428571 1518 908.321428571 1518 1110.5 1481 c 128,-1,14
 1312.67857143 1444 1312.67857143 1444 1384.33928571 1444 c 128,-1,15
 1456 1444 1456 1444 1497.5 1454 c 128,-1,16
 1539 1464 1539 1464 1575.5 1477 c 128,-1,17
 1612 1490 1612 1490 1643 1503.5 c 128,-1,18
 1674 1517 1674 1517 1700 1524 c 1,19,20
 1664.79622642 1400.78679245 1664.79622642 1400.78679245 1564.8840287 1326.89339623 c 128,-1,21
 1464.97183099 1253 1464.97183099 1253 1331 1253 c 0,22,23
 1257.48148148 1253 1257.48148148 1253 1194.74074074 1275 c 128,-1,24
 1132 1297 1132 1297 1093.5 1313 c 128,-1,25
 1055 1329 1055 1329 1016 1343 c 1,26,27
 997 1253 997 1253 976.5 1145 c 128,-1,28
 956 1037 956 1037 914.99073294 843.670598147 c 0,29,30
 873.98146588 650.341196293 873.98146588 650.341196293 792.726939142 435.313973096 c 128,-1,31
 711.472412404 220.286749899 711.472412404 220.286749899 591.5 94 c 0,32,33
 448.05 -57 448.05 -57 256 -57 c 0,34,35
 129.328358209 -57 129.328358209 -57 57.6641791045 15.75 c 128,-1,36
 -14 88.5 -14 88.5 -14 172 c 0,37,38
 -14 328 -14 328 199 328 c 1,39,40
 188 269.857142857 188 269.857142857 188 193 c 0,41,42
 188 47.8125 188 47.8125 297 41 c 1,43,44
 486.832579186 41 486.832579186 41 665 828.5 c 0,45,46
 690 939 690 939 724.365695793 1098.25566343 c 128,-1,47
 758.731391586 1257.51132686 758.731391586 1257.51132686 776 1305 c 1,48,49
 837.975 1372 837.975 1372 932 1372 c 2,50,-1
 934 1372 l 1,51,52
 859.333333333 1393 859.333333333 1393 774.166666667 1393 c 128,-1,53
 689 1393 689 1393 590 1360.5 c 128,-1,54
 491 1328 491 1328 416 1276 c 128,-1,55
 341 1224 341 1224 296.5 1160 c 128,-1,56
 252 1096 252 1096 252 1032 c 0,0,1
EndSplineSet
EndChar

StartChar: W
Encoding: 87 87 20
Width: 1978
Flags: W
LayerCount: 2
Fore
SplineSet
1884 1028 m 1,0,-1
 1886 1067 l 1,1,2
 1886 1166.67857143 1886 1166.67857143 1864.5 1227.33928571 c 0,3,4
 1824.92405063 1339 1824.92405063 1339 1776 1339 c 0,5,6
 1720 1339 1720 1339 1720 1256.1 c 128,-1,7
 1720 1173.2 1720 1173.2 1767.16237268 1108.22073098 c 128,-1,8
 1814.32474536 1043.24146195 1814.32474536 1043.24146195 1884 1028 c 1,0,-1
928 326 m 1,9,10
 920 362.8 920 362.8 920 483.037931034 c 0,11,12
 920 603.275862069 920 603.275862069 950.37047905 770.837125794 c 128,-1,13
 980.7409581 938.398389518 980.7409581 938.398389518 1041.5 1044.5 c 0,14,15
 1115.65811966 1174 1115.65811966 1174 1221 1174 c 0,16,17
 1303 1174 1303 1174 1303 1059 c 0,18,19
 1303 867.75 1303 867.75 1128 436.5 c 0,20,21
 1114 402 1114 402 1114 401 c 0,22,23
 1114 314.149253731 1114 314.149253731 1184.75 265.574626866 c 128,-1,24
 1255.5 217 1255.5 217 1338.25 217 c 0,25,26
 1482.39130435 217 1482.39130435 217 1603.77950219 337.341747859 c 128,-1,27
 1725.16770003 457.683495719 1725.16770003 457.683495719 1799.58385001 625.928704381 c 128,-1,28
 1874 794.173913043 1874 794.173913043 1874 922 c 1,29,30
 1794.58852868 934.538653367 1794.58852868 934.538653367 1707 1008 c 0,31,32
 1595 1101.93548387 1595 1101.93548387 1595 1245 c 0,33,34
 1595 1347.47058824 1595 1347.47058824 1648.68518519 1432.73529412 c 128,-1,35
 1702.37037037 1518 1702.37037037 1518 1802.46178093 1518 c 0,36,37
 2003 1518 2003 1518 2003 1092 c 2,38,-1
 2003 1022 l 1,39,40
 2186.28648649 1059.40540541 2186.28648649 1059.40540541 2331 1180 c 1,41,-1
 2331 1065 l 1,42,43
 2158.92105263 945.868421053 2158.92105263 945.868421053 2001 918 c 1,44,45
 1988.3988006 703.779610195 1988.3988006 703.779610195 1845.79000433 441.249780692 c 128,-1,46
 1703.18120805 178.71995119 1703.18120805 178.71995119 1514 44 c 0,47,48
 1372.17021277 -57 1372.17021277 -57 1223.93126023 -57 c 128,-1,49
 1075.69230769 -57 1075.69230769 -57 992 79 c 0,50,51
 954 139 954 139 938 215 c 1,52,53
 864.769956214 114.570225665 864.769956214 114.570225665 734.839523562 29.7851128326 c 128,-1,54
 604.909090909 -55 604.909090909 -55 510 -55 c 0,55,56
 350.532608696 -55 350.532608696 -55 263.5 102 c 0,57,58
 190 234.588235294 190 234.588235294 190 403 c 0,59,60
 190 699.235294118 190 699.235294118 322.5 984.5 c 0,61,62
 365 1076 365 1076 400.89958159 1125.15481172 c 128,-1,63
 436.79916318 1174.30962343 436.79916318 1174.30962343 470.39958159 1234.0437006 c 128,-1,64
 504 1293.77777778 504 1293.77777778 504 1304.38888889 c 128,-1,65
 504 1315 504 1315 501.5 1315 c 128,-1,66
 499 1315 499 1315 489 1309 c 1,67,-1
 375 1221 l 1,68,69
 359 1212 359 1212 313.5 1183.5 c 128,-1,70
 268 1155 268 1155 205.5 1116.5 c 128,-1,71
 143 1078 143 1078 70 1033 c 128,-1,72
 -3 988 -3 988 -74 946 c 1,73,-1
 -74 1057 l 1,74,75
 88.8505747126 1152.17241379 88.8505747126 1152.17241379 282.977287356 1272.0742069 c 128,-1,76
 477.104 1391.976 477.104 1391.976 594.242789474 1460.988 c 128,-1,77
 711.381578947 1530 711.381578947 1530 739.690789474 1530 c 128,-1,78
 768 1530 768 1530 768 1508 c 0,79,80
 768 1480.30769231 768 1480.30769231 676.283783784 1254.54469854 c 128,-1,81
 584.567567568 1028.78170478 584.567567568 1028.78170478 549.5 922.5 c 0,82,83
 473 690.646153846 473 690.646153846 473 553 c 0,84,85
 473 182 473 182 694 182 c 0,86,87
 743.769230769 182 743.769230769 182 819.52875601 226.098828125 c 128,-1,88
 895.28828125 270.19765625 895.28828125 270.19765625 928 326 c 1,9,10
EndSplineSet
EndChar

StartChar: Y
Encoding: 89 89 21
Width: 1554
Flags: W
LayerCount: 2
Fore
SplineSet
723 -301 m 1,0,1
 546.84057971 -383.898550725 546.84057971 -383.898550725 489.5 -479 c 0,2,3
 469 -513 469 -513 469 -566 c 128,-1,4
 469 -619 469 -619 495 -654.5 c 128,-1,5
 521 -690 521 -690 553 -694 c 1,6,7
 617.606557377 -694 617.606557377 -694 707 -627.5 c 0,8,9
 839.415675165 -528.99565628 839.415675165 -528.99565628 923.5 -364 c 0,10,11
 950 -312 950 -312 965 -260 c 2,12,-1
 1001 -139 l 1,13,-1
 723 -301 l 1,0,1
829 1489 m 0,14,15
 829 1467 829 1467 807.5 1401.5 c 128,-1,16
 786 1336 786 1336 762.5 1243 c 128,-1,17
 739 1150 739 1150 714.5 1066.5 c 0,18,19
 680.72972973 951.405405405 680.72972973 951.405405405 602.364864865 699.408585056 c 128,-1,20
 524 447.411764706 524 447.411764706 524 384.920168067 c 128,-1,21
 524 322.428571429 524 322.428571429 547.681818182 285.214285714 c 128,-1,22
 571.363636364 248 571.363636364 248 609.681818182 248 c 0,23,24
 696.451612903 248 696.451612903 248 830.787296262 314.630498946 c 128,-1,25
 965.122979621 381.260997892 965.122979621 381.260997892 1073.72830523 494.003669242 c 128,-1,26
 1182.33363085 606.746340593 1182.33363085 606.746340593 1214 739 c 2,27,-1
 1305 1114 l 1,28,29
 1355.38297872 1340.72340426 1355.38297872 1340.72340426 1405 1458 c 0,30,31
 1416 1484 1416 1484 1423 1487 c 1,32,-1
 1640 1487 l 1,33,-1
 1286 86 l 1,34,-1
 1673 440 l 1,35,-1
 1673 328 l 1,36,-1
 1268 -33 l 1,37,38
 1189.66878981 -234.762208068 1189.66878981 -234.762208068 1115.8343949 -346.881104034 c 0,39,40
 976.987516961 -557.72265943 976.987516961 -557.72265943 815.780795517 -665.861329715 c 128,-1,41
 654.574074074 -774 654.574074074 -774 442 -774 c 0,42,43
 331 -774 331 -774 241.5 -718.595238095 c 128,-1,44
 152 -663.19047619 152 -663.19047619 152 -565 c 0,45,46
 152 -500.461538462 152 -500.461538462 203 -473 c 2,47,-1
 1012 -41 l 1,48,-1
 1171 457 l 1,49,50
 1005.00869565 266.417391304 1005.00869565 266.417391304 785.231620553 124.208695652 c 128,-1,51
 565.454545455 -18 565.454545455 -18 442.594919786 -18 c 0,52,53
 266 -18 266 -18 266 250 c 0,54,55
 266 438.837837838 266 438.837837838 407 848.5 c 0,56,57
 444 956 444 956 477 1053 c 2,58,-1
 584 1364 l 1,59,-1
 276 1151 l 2,60,61
 273.5 1149.5 273.5 1149.5 264.75 1143.25 c 128,-1,62
 256 1137 256 1137 249 1137 c 128,-1,63
 242 1137 242 1137 231.5 1146 c 128,-1,64
 221 1155 221 1155 221 1179.78125 c 128,-1,65
 221 1204.5625 221 1204.5625 242 1219 c 2,66,-1
 653 1487 l 1,67,68
 698.588235294 1518 698.588235294 1518 763.794117647 1518 c 128,-1,69
 829 1518 829 1518 829 1489 c 0,14,15
EndSplineSet
EndChar

StartChar: a
Encoding: 97 97 22
Width: 928
Flags: W
LayerCount: 2
Fore
SplineSet
578 -29 m 0,0,1
 502 -29 502 -29 502 102 c 0,2,3
 502 145.666666667 502 145.666666667 510 199 c 1,4,5
 391.42962443 46.005967006 391.42962443 46.005967006 254.5 -8.5 c 0,6,7
 203 -29 203 -29 152.5 -29 c 0,8,9
 64.3684210526 -29 64.3684210526 -29 25 59 c 0,10,11
 -4 123.823529412 -4 123.823529412 -4 211.411764706 c 0,12,13
 -4 372.272727273 -4 372.272727273 87.464300121 514.666012688 c 128,-1,14
 178.928600242 657.059298104 178.928600242 657.059298104 331.725663757 748.529649052 c 128,-1,15
 484.522727273 840 484.522727273 840 657 840 c 0,16,17
 723.642857143 840 723.642857143 840 825 807 c 1,18,19
 823 797 823 797 814 757.5 c 128,-1,20
 805 718 805 718 793 663 c 128,-1,21
 781 608 781 608 767 544 c 128,-1,22
 753 480 753 480 734 383.347826087 c 128,-1,23
 715 286.695652174 715 286.695652174 715 236.347826087 c 128,-1,24
 715 186 715 186 745 186 c 0,25,26
 811.377358491 186 811.377358491 186 1051 440 c 1,27,-1
 1051 328 l 1,28,29
 898.973856209 168.37254902 898.973856209 168.37254902 761.411170529 69.6862745098 c 128,-1,30
 623.848484848 -29 623.848484848 -29 578 -29 c 0,0,1
637 764 m 1,31,32
 530 764 530 764 431.023255814 689.76744186 c 128,-1,33
 332.046511628 615.534883721 332.046511628 615.534883721 270.523255814 500.974338412 c 128,-1,34
 209 386.413793103 209 386.413793103 209 282.3555452 c 128,-1,35
 209 178.297297297 209 178.297297297 260.5 143.5 c 0,36,37
 279 131 279 131 304.5 131 c 0,38,39
 387.409090909 131 387.409090909 131 522 272 c 1,40,-1
 637 764 l 1,31,32
EndSplineSet
EndChar

StartChar: b
Encoding: 98 98 23
Width: 986
Flags: W
LayerCount: 2
Fore
SplineSet
745 1399 m 0,0,1
 745 1466 745 1466 678 1466 c 0,2,3
 629.732824427 1466 629.732824427 1466 527.5 1222.5 c 0,4,5
 472.467417062 1091.42239336 472.467417062 1091.42239336 451.233708531 1016.71119668 c 128,-1,6
 430 942 430 942 430 924 c 1,7,8
 531.891083823 986.932728243 531.891083823 986.932728243 638.5 1146 c 128,-1,9
 745 1304.9047619 745 1304.9047619 745 1399 c 0,0,1
737 436 m 0,10,11
 737 600 737 600 481 600 c 1,12,13
 495.196261682 654.757009346 495.196261682 654.757009346 570.973130841 715.378504673 c 128,-1,14
 646.75 776 646.75 776 701.875 776 c 0,15,16
 807.533333333 776 807.533333333 776 860.266666667 715.153846154 c 128,-1,17
 913 654.307692308 913 654.307692308 913 547 c 0,18,19
 913 369.5 913 369.5 839 240 c 0,20,21
 811 191 811 191 768 156 c 1,22,23
 841.115910727 196.858891289 841.115910727 196.858891289 1002.5 370.5 c 0,24,25
 1042 413 1042 413 1075 446 c 1,26,-1
 1074 332 l 1,27,28
 1042 301 1042 301 1001 260.5 c 0,29,30
 679.580246914 -57 679.580246914 -57 291 -57 c 0,31,32
 109.705882353 -57 109.705882353 -57 85 63 c 0,33,34
 78 97 78 97 78 169 c 128,-1,35
 78 241 78 241 95.5 351.5 c 128,-1,36
 113 462 113 462 142 581 c 128,-1,37
 171 700 171 700 208.5 830.5 c 128,-1,38
 246 961 246 961 273 1058.5 c 0,39,40
 353.852839931 1350.46858864 353.852839931 1350.46858864 545.288208079 1504.44921085 c 0,41,42
 640.459459459 1581 640.459459459 1581 741 1581 c 0,43,44
 895 1581 895 1581 895 1450 c 0,45,46
 895 1194.80555556 895 1194.80555556 395 733 c 1,47,48
 381 676 381 676 363.5 611 c 128,-1,49
 346 546 346 546 319.5 436.6875 c 128,-1,50
 293 327.375 293 327.375 293 236 c 0,51,52
 293 76 293 76 410 76 c 0,53,54
 518.666666667 76 518.666666667 76 627.833333333 198.8125 c 128,-1,55
 737 321.625 737 321.625 737 436 c 0,10,11
EndSplineSet
EndChar

StartChar: c
Encoding: 99 99 24
Width: 696
Flags: W
LayerCount: 2
Fore
SplineSet
501.09649512 840 m 0,0,1
 707 840 707 840 707 715.714285714 c 0,2,3
 707 673.428571429 707 673.428571429 669.777777778 644.714285714 c 128,-1,4
 632.555555556 616 632.555555556 616 575 616 c 0,5,6
 553.535714286 616 553.535714286 616 539.267857143 639.5 c 128,-1,7
 525 663 525 663 516.5 679.5 c 0,8,9
 483.787878788 743 483.787878788 743 435.393939394 743 c 0,10,11
 344.529411765 743 344.529411765 743 279.764705882 610.120689655 c 128,-1,12
 215 477.24137931 215 477.24137931 215 339.474856322 c 128,-1,13
 215 201.708333333 215 201.708333333 285 156.5 c 0,14,15
 309 141 309 141 344 141 c 0,16,17
 516.625 141 516.625 141 823 442 c 1,18,-1
 823 330 l 1,19,20
 652.677623262 164.68710493 652.677623262 164.68710493 554.338811631 99.3435524652 c 0,21,22
 361.188118812 -29 361.188118812 -29 227 -29 c 0,23,24
 54.5473684211 -29 54.5473684211 -29 9.5 129.5 c 0,25,26
 -4 177 -4 177 -4 236 c 0,27,28
 -4 363.28125 -4 363.28125 64.0275731425 506.776912097 c 128,-1,29
 132.055146285 650.272574195 132.055146285 650.272574195 249.603660099 745.136287097 c 128,-1,30
 367.152173913 840 367.152173913 840 501.09649512 840 c 0,0,1
EndSplineSet
EndChar

StartChar: d
Encoding: 100 100 25
Width: 913
Flags: W
LayerCount: 2
Fore
SplineSet
813 597 m 128,-1,1
 792 516 792 516 766.5 409.21875 c 128,-1,2
 741 302.4375 741 302.4375 741 250.71875 c 128,-1,3
 741 199 741 199 767.330769231 199 c 128,-1,4
 793.661538462 199 793.661538462 199 851.048951049 253.060606061 c 128,-1,5
 908.436363636 307.121212121 908.436363636 307.121212121 1036 440 c 1,6,-1
 1036 328 l 1,7,8
 864.616419919 153.609690444 864.616419919 153.609690444 801.30820996 96.3048452221 c 0,9,10
 662.876190476 -29 662.876190476 -29 606 -29 c 0,11,12
 524 -29 524 -29 524 104 c 0,13,14
 524 168 524 168 541 238 c 1,15,16
 375.604420732 46.4893292683 375.604420732 46.4893292683 222.5 -12 c 0,17,18
 178 -29 178 -29 140.5 -29 c 0,19,20
 69.6875 -29 69.6875 -29 35 45 c 0,21,22
 10 98.3333333333 10 98.3333333333 10 176.166666667 c 0,23,24
 10 322.675324675 10 322.675324675 91.7581908832 477.697348947 c 128,-1,25
 173.516381766 632.719373219 173.516381766 632.719373219 299.36533374 736.35968661 c 128,-1,26
 425.214285714 840 425.214285714 840 545 840 c 0,27,28
 606 840 606 840 676 819 c 1,29,-1
 809 1294 l 1,30,31
 821 1345 821 1345 832 1377.5 c 128,-1,32
 843 1410 843 1410 864 1428 c 0,33,34
 901.333333333 1460 901.333333333 1460 1022 1460 c 2,35,-1
 1057 1460 l 1,36,37
 1050.27692308 1412.93846154 1050.27692308 1412.93846154 1030.13846154 1348.96923077 c 128,-1,38
 1010 1285 1010 1285 991.5 1225.5 c 128,-1,39
 973 1166 973 1166 951 1091.5 c 128,-1,40
 929 1017 929 1017 905 932.5 c 128,-1,41
 881 848 881 848 857.5 763 c 128,-1,0
 834 678 834 678 813 597 c 128,-1,1
657 731 m 1,42,43
 637.5 770 637.5 770 557.654109589 770 c 128,-1,44
 477.808219178 770 477.808219178 770 399.129916041 694.427419355 c 128,-1,45
 320.451612903 618.85483871 320.451612903 618.85483871 270.725806452 503.18828892 c 128,-1,46
 221 387.52173913 221 387.52173913 221 285 c 0,47,48
 221 158 221 158 303 158 c 0,49,50
 367.87804878 158 367.87804878 158 463.301881533 230.451428571 c 128,-1,51
 558.725714286 302.902857143 558.725714286 302.902857143 569 344 c 2,52,-1
 657 731 l 1,42,43
EndSplineSet
EndChar

StartChar: e
Encoding: 101 101 26
Width: 731
Flags: W
LayerCount: 2
Fore
SplineSet
303 565 m 1,0,1
 377.565217391 467 377.565217391 467 471 467 c 0,2,3
 528 467 528 467 571 524.333333333 c 128,-1,4
 614 581.666666667 614 581.666666667 614 645.833333333 c 128,-1,5
 614 710 614 710 589 730 c 128,-1,6
 564 750 564 750 519.5 750 c 0,7,8
 440.879310345 750 440.879310345 750 383.617939355 689.615281501 c 128,-1,9
 326.356568365 629.230563003 326.356568365 629.230563003 303 565 c 1,0,1
231 313 m 0,10,11
 231 82 231 82 399 82 c 0,12,13
 480.5 82 480.5 82 624 215 c 0,14,15
 688.890977444 275.142857143 688.890977444 275.142857143 754.445488722 341.571428571 c 128,-1,16
 820 408 820 408 852 438 c 1,17,-1
 852 328 l 1,18,19
 692.061393152 152.292798111 692.061393152 152.292798111 604.030696576 88.1463990555 c 128,-1,20
 516 24 516 24 453.5 -2.5 c 128,-1,21
 391 -29 391 -29 327 -29 c 0,22,23
 183.515151515 -29 183.515151515 -29 105.257575758 35.5625 c 128,-1,24
 27 100.125 27 100.125 27 258 c 0,25,26
 27 483.344827586 27 483.344827586 166.77027027 661.672413793 c 128,-1,27
 306.540540541 840 306.540540541 840 518 840 c 0,28,29
 754 840 754 840 754 664 c 0,30,31
 754 549.75 754 549.75 661.954545455 465.375 c 128,-1,32
 569.909090909 381 569.909090909 381 457.333855799 381 c 128,-1,33
 344.75862069 381 344.75862069 381 274 489 c 1,34,35
 231 399.260869565 231 399.260869565 231 313 c 0,10,11
EndSplineSet
EndChar

StartChar: f
Encoding: 102 102 27
Width: 453
Flags: W
LayerCount: 2
Fore
SplineSet
547 1358 m 0,0,1
 428.2 1358 428.2 1358 298 707 c 0,2,3
 283 632 283 632 274 586 c 1,4,5
 304 633 304 633 341 687 c 128,-1,6
 378 741 378 741 442.136894825 838.893155259 c 128,-1,7
 506.273789649 936.786310518 506.273789649 936.786310518 561.136894825 1051.4110124 c 128,-1,8
 616 1166.03571429 616 1166.03571429 616 1262.01785714 c 128,-1,9
 616 1358 616 1358 547 1358 c 0,0,1
303 131 m 0,10,11
 223.111111111 131 223.111111111 131 199 193 c 1,12,13
 197 186 197 186 160.743506494 -23.1720779221 c 0,14,15
 124.487012987 -232.344155844 124.487012987 -232.344155844 94 -336 c 1,16,-1
 -74 -336 l 1,17,18
 -13.4714587738 126.610993658 -13.4714587738 126.610993658 202.5 966.5 c 0,19,20
 234 1089 234 1089 254.5 1163 c 0,21,22
 289.019521411 1287.6070529 289.019521411 1287.6070529 409.434760705 1376.80352645 c 128,-1,23
 529.85 1466 529.85 1466 649 1466 c 0,24,25
 733.48 1466 733.48 1466 741 1372 c 0,26,27
 743 1347 743 1347 743 1296 c 128,-1,28
 743 1245 743 1245 720.5 1166 c 128,-1,29
 698 1087 698 1087 662 1011.5 c 128,-1,30
 626 936 626 936 579.5 864.5 c 128,-1,31
 533 793 533 793 484 728.5 c 128,-1,32
 435 664 435 664 388.5 608 c 128,-1,33
 342 552 342 552 283.5 477.25 c 128,-1,34
 225 402.5 225 402.5 225 374.25 c 0,35,36
 225 318.413793103 225 318.413793103 256.513513514 278.206896552 c 128,-1,37
 288.027027027 238 288.027027027 238 327.713513514 238 c 128,-1,38
 367.4 238 367.4 238 497 359.5 c 0,39,40
 549.852459016 409.049180328 549.852459016 409.049180328 575 440 c 1,41,-1
 575 328 l 1,42,43
 458.42288049 202.787538304 458.42288049 202.787538304 366.5 151 c 0,44,45
 331 131 331 131 303 131 c 0,10,11
EndSplineSet
EndChar

StartChar: g
Encoding: 103 103 28
Width: 928
Flags: W
LayerCount: 2
Fore
SplineSet
288.222222222 -547 m 0,0,1
 221.444444444 -547 221.444444444 -547 162.722222222 -509.25 c 128,-1,2
 104 -471.5 104 -471.5 104 -405.125 c 128,-1,3
 104 -338.75 104 -338.75 202 -263.5 c 0,4,5
 230 -242 230 -242 260 -219 c 2,6,-1
 537 -6 l 1,7,-1
 569 164 l 1,8,9
 388.448275862 2.03448275862 388.448275862 2.03448275862 264.5 -21.5 c 0,10,11
 225 -29 225 -29 189 -29 c 0,12,13
 124.724137931 -29 124.724137931 -29 87.8620689655 32.0857142857 c 128,-1,14
 51 93.1714285714 51 93.1714285714 51 170.085714286 c 0,15,16
 51 325.771428571 51 325.771428571 124.465427831 481.098333128 c 128,-1,17
 197.930855661 636.425237684 197.930855661 636.425237684 326.450276315 738.212618842 c 128,-1,18
 454.96969697 840 454.96969697 840 612 840 c 0,19,20
 703 840 703 840 911 801 c 1,21,-1
 758 154 l 1,22,23
 805 198 805 198 892.525773196 279.690721649 c 128,-1,24
 980.051546392 361.381443299 980.051546392 361.381443299 1051 440 c 1,25,-1
 1051 328 l 1,26,-1
 737 23 l 1,27,28
 690.960339943 -230.218130312 690.960339943 -230.218130312 558.429149564 -388.609065156 c 0,29,30
 425.897959184 -547 425.897959184 -547 288.222222222 -547 c 0,0,1
360 -256 m 2,31,32
 342 -271 342 -271 323 -285.5 c 128,-1,33
 304 -300 304 -300 277 -330.272727273 c 128,-1,34
 250 -360.545454545 250 -360.545454545 250 -412.272727273 c 128,-1,35
 250 -464 250 -464 268 -478 c 128,-1,36
 286 -492 286 -492 326 -492 c 0,37,38
 403.287128713 -492 403.287128713 -492 453.939190795 -389.682834594 c 128,-1,39
 504.591252877 -287.365669188 504.591252877 -287.365669188 524 -117 c 1,40,-1
 360 -256 l 2,31,32
270 324 m 0,41,42
 270 131 270 131 367 131 c 0,43,44
 452.219178082 131 452.219178082 131 584 279 c 1,45,-1
 700 766 l 1,46,47
 626 784 626 784 591 784 c 0,48,49
 512.898550725 784 512.898550725 784 436.970995511 713.202685003 c 128,-1,50
 361.043440297 642.405370007 361.043440297 642.405370007 315.521720148 534.423615236 c 128,-1,51
 270 426.441860465 270 426.441860465 270 324 c 0,41,42
EndSplineSet
EndChar

StartChar: h
Encoding: 104 104 29
Width: 881
Flags: W
LayerCount: 2
Fore
SplineSet
596 -29 m 0,0,1
 532 -29 532 -29 532 47 c 0,2,3
 532 88 532 88 590.5 286.9 c 0,4,5
 649 485.8 649 485.8 649 598 c 0,6,7
 649 655 649 655 592 655 c 0,8,9
 502.658119658 655 502.658119658 655 405.034808694 525.205370651 c 128,-1,10
 307.411497731 395.410741301 307.411497731 395.410741301 266.431358621 239.748053577 c 128,-1,11
 225.451219512 84.0853658537 225.451219512 84.0853658537 204.725609756 49.5426829268 c 128,-1,12
 184 15 184 15 166 0 c 1,13,-1
 10 0 l 1,14,15
 25.2824858757 122.259887006 25.2824858757 122.259887006 319 1204 c 0,16,17
 367.425616063 1386.0803164 367.425616063 1386.0803164 404.610767215 1424.0401582 c 128,-1,18
 441.795918367 1462 441.795918367 1462 513.56462585 1462 c 128,-1,19
 585.333333333 1462 585.333333333 1462 596 1458 c 1,20,-1
 334 510 l 1,21,22
 408.44852071 648.261538462 408.44852071 648.261538462 528.548436179 744.130769231 c 128,-1,23
 648.648351648 840 648.648351648 840 762 840 c 0,24,25
 860 840 860 840 860 723 c 0,26,27
 860 679.181818182 860 679.181818182 819.5 562.590909091 c 128,-1,28
 779 446 779 446 755 369.034482759 c 128,-1,29
 731 292.068965517 731 292.068965517 731 247.534482759 c 128,-1,30
 731 203 731 203 746.5 203 c 128,-1,31
 762 203 762 203 866.5 307.5 c 128,-1,32
 971 412 971 412 1008 444 c 1,33,-1
 1008 332 l 1,34,35
 984 305 984 305 951 267.5 c 128,-1,36
 918 230 918 230 880 190 c 0,37,38
 671.95 -29 671.95 -29 596 -29 c 0,0,1
EndSplineSet
EndChar

StartChar: i
Encoding: 105 105 30
Width: 469
Flags: W
LayerCount: 2
Fore
SplineSet
266.970588235 133 m 128,-1,1
 302.941176471 133 302.941176471 133 590 438 c 1,2,-1
 590 326 l 1,3,4
 390.322033898 128.699152542 390.322033898 128.699152542 324.661016949 75.3495762712 c 0,5,6
 200.71024735 -25.3604240283 200.71024735 -25.3604240283 117 -29 c 1,7,8
 72.6216216216 -29 72.6216216216 -29 50.8108108108 9.42857142857 c 128,-1,9
 29 47.8571428571 29 47.8571428571 29 98.3708791209 c 128,-1,10
 29 148.884615385 29 148.884615385 74.5165879595 360.711813196 c 128,-1,11
 120.033175919 572.539011008 120.033175919 572.539011008 151.51658796 657.269505504 c 128,-1,12
 183 742 183 742 204 763.5 c 128,-1,13
 225 785 225 785 256.842105263 796 c 128,-1,14
 288.684210526 807 288.684210526 807 389 807 c 1,15,16
 381 779 381 779 366 730 c 0,17,18
 231 289 231 289 231 187.5 c 0,19,0
 231 133 231 133 266.970588235 133 c 128,-1,1
460.333333333 1288 m 0,20,21
 559 1288 559 1288 559 1206.20930233 c 0,22,23
 559 1166.41860465 559 1166.41860465 511.178571429 1119.70930233 c 128,-1,24
 463.357142857 1073 463.357142857 1073 403 1073 c 0,25,26
 332 1073 332 1073 332 1145 c 0,27,28
 332 1194.52941176 332 1194.52941176 358.5 1227.26470588 c 0,29,30
 407.666666667 1288 407.666666667 1288 460.333333333 1288 c 0,20,21
EndSplineSet
EndChar

StartChar: k
Encoding: 107 107 31
Width: 905
Flags: W
LayerCount: 2
Fore
SplineSet
684 188 m 1,0,1
 684 121 684 121 702 121 c 0,2,3
 709 121 709 121 715.5 127.5 c 128,-1,4
 722 134 722 134 740 151.5 c 128,-1,5
 758 169 758 169 784.5 195.5 c 128,-1,6
 811 222 811 222 843.5 254 c 128,-1,7
 876 286 876 286 909 319.5 c 128,-1,8
 942 353 942 353 973 384 c 128,-1,9
 1004 415 1004 415 1028 440 c 1,10,-1
 1028 328 l 1,11,12
 917 219 917 219 846.5 149.5 c 128,-1,13
 776 80 776 80 711.151898734 25.5 c 128,-1,14
 646.303797468 -29 646.303797468 -29 590 -29 c 0,15,16
 496 -29 496 -29 496 113 c 1,17,-1
 510 303 l 1,18,19
 510 346.666666667 510 346.666666667 466 366.833333333 c 128,-1,20
 422 387 422 387 289 387 c 1,21,-1
 283 360 l 2,22,23
 282 356 282 356 277 332 c 128,-1,24
 272 308 272 308 263 273.5 c 0,25,26
 204.785923754 50.3460410557 204.785923754 50.3460410557 145 0 c 1,27,-1
 -10 0 l 1,28,29
 8.27071823204 146.165745856 8.27071823204 146.165745856 299 1204 c 1,30,31
 347.798296319 1387.48159416 347.798296319 1387.48159416 379.399148159 1419.74079708 c 128,-1,32
 411 1452 411 1452 444 1457 c 128,-1,33
 477 1462 477 1462 520.666666667 1462 c 128,-1,34
 564.333333333 1462 564.333333333 1462 575 1458 c 1,35,36
 529.433962264 1293.96226415 529.433962264 1293.96226415 471.216981132 1096.48113208 c 128,-1,37
 413 899 413 899 393 829.5 c 128,-1,38
 373 760 373 760 360 717 c 128,-1,39
 347 674 347 674 348 674 c 0,40,41
 490.285714286 840 490.285714286 840 696 840 c 0,42,43
 787.711538462 840 787.711538462 840 819.5 753 c 0,44,45
 829 727 829 727 829 680 c 0,46,47
 829 581.829268293 829 581.829268293 743 521 c 0,48,49
 691.910323253 484.863399374 691.910323253 484.863399374 522 424 c 1,50,51
 663.24137931 424 663.24137931 424 681 321 c 0,52,53
 686 292 686 292 686 262 c 2,54,-1
 684 188 l 1,0,1
362 457 m 2,55,56
 461.826086957 457 461.826086957 457 525.913043478 490.5 c 128,-1,57
 590 524 590 524 620.5 560 c 128,-1,58
 651 596 651 596 651 647 c 0,59,60
 651 741 651 741 573 741 c 0,61,62
 514.631578947 741 514.631578947 741 409.137969206 640.781070746 c 128,-1,63
 303.644359465 540.562141491 303.644359465 540.562141491 295 457 c 1,64,-1
 362 457 l 2,55,56
EndSplineSet
EndChar

StartChar: l
Encoding: 108 108 32
Width: 553
Flags: W
LayerCount: 2
Fore
SplineSet
680.5 1417 m 128,-1,1
 640 1417 640 1417 605 1362 c 128,-1,2
 570 1307 570 1307 521.708860759 1164.88607595 c 128,-1,3
 473.417721519 1022.7721519 473.417721519 1022.7721519 389 618 c 1,4,5
 578.666515632 811.245129135 578.666515632 811.245129135 682 1143 c 0,6,7
 721 1268.21052632 721 1268.21052632 721 1342.60526316 c 128,-1,0
 721 1417 721 1417 680.5 1417 c 128,-1,1
332 117 m 0,8,9
 371.731343284 117 371.731343284 117 619.5 380.5 c 0,10,11
 651 414 651 414 674 440 c 1,12,-1
 674 328 l 1,13,14
 499.456521739 140.989130435 499.456521739 140.989130435 416.72826087 79.9945652174 c 128,-1,15
 334 19 334 19 282 -3.5 c 128,-1,16
 230 -26 230 -26 188 -27.5 c 128,-1,17
 146 -29 146 -29 128 -6 c 128,-1,18
 110 17 110 17 100 58.1764705882 c 128,-1,19
 90 99.3529411765 90 99.3529411765 90 202.176470588 c 0,20,21
 90 398.12 90 398.12 141.325516471 627.031803462 c 128,-1,22
 192.651032942 855.943606924 192.651032942 855.943606924 281.940646495 1066.03681528 c 128,-1,23
 371.230260047 1276.13002364 371.230260047 1276.13002364 479.719130024 1404.06501182 c 128,-1,24
 588.208 1532 588.208 1532 690.815864407 1532 c 128,-1,25
 793.423728814 1532 793.423728814 1532 824.5 1435.5 c 0,26,27
 834 1406 834 1406 834 1341 c 0,28,29
 834 1194.89705882 834 1194.89705882 759 1008.5 c 0,30,31
 632.654506596 694.494288452 632.654506596 694.494288452 356 422 c 1,32,33
 297 265.823529412 297 265.823529412 297 191.411764706 c 128,-1,34
 297 117 297 117 332 117 c 0,8,9
EndSplineSet
EndChar

StartChar: m
Encoding: 109 109 33
Width: 1348
Flags: W
LayerCount: 2
Fore
SplineSet
1102 557.5 m 0,0,1
 1102 655 1102 655 1030.75409836 655 c 0,2,3
 959.508196721 655 959.508196721 655 869.5 516 c 0,4,5
 803.529958901 414.122215012 803.529958901 414.122215012 745.480665725 263.816009467 c 128,-1,6
 687.431372549 113.509803922 687.431372549 113.509803922 655 0 c 1,7,-1
 463 0 l 1,8,9
 463 118.142857143 463 118.142857143 499 241.571428571 c 128,-1,10
 535 365 535 365 564.5 460.204545455 c 0,11,12
 594 555.409090909 594 555.409090909 594 589.5 c 2,13,-1
 594 600 l 2,14,15
 594 629 594 629 579.5 644 c 128,-1,16
 565 659 565 659 553.5 659 c 0,17,18
 501.989473684 659 501.989473684 659 448.494736842 598.5 c 128,-1,19
 395 538 395 538 342.74123954 451.598849372 c 0,20,21
 290.482479079 365.197698745 290.482479079 365.197698745 238.672612089 225.628261137 c 128,-1,22
 186.862745098 86.0588235294 186.862745098 86.0588235294 166 0 c 1,23,-1
 -25 0 l 1,24,25
 -14.6767857143 190.979464286 -14.6767857143 190.979464286 79 543.5 c 0,26,27
 135.559687416 756.343034223 135.559687416 756.343034223 181.5 784.5 c 0,28,29
 210.820197044 802.47044335 210.820197044 802.47044335 262.910098522 804.735221675 c 128,-1,30
 315 807 315 807 362 807 c 1,31,32
 344.890625 721.453125 344.890625 721.453125 304.4453125 602.7265625 c 128,-1,33
 264 484 264 484 252 440 c 1,34,35
 420.308214528 746.014935506 420.308214528 746.014935506 607 819.5 c 0,36,37
 654 838 654 838 690.5 838 c 128,-1,38
 727 838 727 838 742 824 c 0,39,40
 782 786.666666667 782 786.666666667 782 699.807017544 c 128,-1,41
 782 612.947368421 782 612.947368421 729 440 c 1,42,43
 801.975609756 585.951219512 801.975609756 585.951219512 930.587804878 712.975609756 c 128,-1,44
 1059.2 840 1059.2 840 1184 840 c 0,45,46
 1296 840 1296 840 1296 684.370967742 c 128,-1,47
 1296 528.741935484 1296 528.741935484 1217.5 313.5 c 0,48,49
 1196 254.548387097 1196 254.548387097 1196 231.774193548 c 128,-1,50
 1196 209 1196 209 1208.5 209 c 128,-1,51
 1221 209 1221 209 1245 227 c 128,-1,52
 1269 245 1269 245 1302 276 c 128,-1,53
 1335 307 1335 307 1377 349.5 c 128,-1,54
 1419 392 1419 392 1468 440 c 1,55,-1
 1468 328 l 1,56,57
 1286.36842105 141.026315789 1286.36842105 141.026315789 1171.68421053 55.0131578947 c 128,-1,58
 1057 -31 1057 -31 1022 -31 c 0,59,60
 963 -31 963 -31 963 47.5 c 128,-1,61
 963 126 963 126 984.5 194 c 128,-1,62
 1006 262 1006 262 1054 380.641509434 c 0,63,64
 1102 499.283018868 1102 499.283018868 1102 557.5 c 0,0,1
EndSplineSet
EndChar

StartChar: n
Encoding: 110 110 34
Width: 838
Flags: W
LayerCount: 2
Fore
SplineSet
588 592.647058824 m 0,0,1
 588 655 588 655 540.432432432 655 c 128,-1,2
 492.864864865 655 492.864864865 655 425 574 c 0,3,4
 318.012609649 446.305372807 318.012609649 446.305372807 217.5 166.5 c 0,5,6
 185.022222222 76.0888888889 185.022222222 76.0888888889 166 0 c 1,7,-1
 -25 0 l 1,8,9
 -25 142.27027027 -25 142.27027027 55.6557320442 438.734582649 c 128,-1,10
 136.311464088 735.198895028 136.311464088 735.198895028 166.372827354 767.264349178 c 128,-1,11
 196.43419062 799.329803328 196.43419062 799.329803328 231.71709531 803.164901664 c 128,-1,12
 267 807 267 807 293 807 c 2,13,-1
 360 807 l 1,14,15
 339 735 339 735 324.5 686.5 c 128,-1,16
 310 638 310 638 301 607.5 c 128,-1,17
 292 577 292 577 276.25 525.375 c 128,-1,18
 260.5 473.75 260.5 473.75 252 444 c 1,19,20
 325.873754153 580.666445183 325.873754153 580.666445183 460.284438052 710.333222591 c 128,-1,21
 594.695121951 840 594.695121951 840 719 840 c 0,22,23
 817 840 817 840 817 723 c 0,24,25
 817 661.378378378 817 661.378378378 772.5 532.689189189 c 128,-1,26
 728 404 728 404 702 325.161290323 c 128,-1,27
 676 246.322580645 676 246.322580645 676 225.661290323 c 128,-1,28
 676 205 676 205 688.5 205 c 128,-1,29
 701 205 701 205 725.832631579 221.021052632 c 0,30,31
 750.665263158 237.042105263 750.665263158 237.042105263 840.982631579 325.396052632 c 128,-1,32
 931.3 413.75 931.3 413.75 958 436 c 1,33,-1
 958 324 l 1,34,35
 605 -29 605 -29 518 -29 c 0,36,37
 453 -29 453 -29 441 23 c 0,38,39
 438 36 438 36 438 88.7058823529 c 0,40,41
 438 141.411764706 438 141.411764706 468.473684211 236.417956656 c 128,-1,42
 498.947368421 331.424148607 498.947368421 331.424148607 543.473684211 445.359133127 c 128,-1,43
 588 559.294117647 588 559.294117647 588 592.647058824 c 0,0,1
EndSplineSet
EndChar

StartChar: o
Encoding: 111 111 35
Width: 907
Flags: W
LayerCount: 2
Fore
SplineSet
819 220 m 0,0,1
 793 210 793 210 763 210 c 128,-1,2
 733 210 733 210 695 214 c 1,3,4
 580.205495267 46.7280073886 580.205495267 46.7280073886 414.5 -10 c 0,5,6
 359 -29 359 -29 293 -29 c 0,7,8
 164.080808081 -29 164.080808081 -29 97.5404040404 73.9296875 c 128,-1,9
 31 176.859375 31 176.859375 31 308.4296875 c 0,10,11
 31 559.993975904 31 559.993975904 203.151851852 699.996987952 c 128,-1,12
 375.303703704 840 375.303703704 840 662 840 c 0,13,14
 680.75 840 680.75 840 684 827 c 1,15,16
 684 812 684 812 681.5 803.5 c 128,-1,17
 679 795 679 795 662 784 c 1,18,19
 467.019230769 784 467.019230769 784 363.509615385 675.262626263 c 128,-1,20
 260 566.525252525 260 566.525252525 260 412 c 0,21,22
 260 302.6 260 302.6 313.428571429 227.8 c 128,-1,23
 366.857142857 153 366.857142857 153 452.97574124 153 c 128,-1,24
 539.094339623 153 539.094339623 153 624 253 c 1,25,26
 516.883977901 316.690607735 516.883977901 316.690607735 484.5 436 c 0,27,28
 475 471 475 471 475 506 c 0,29,30
 475 583.531914894 475 583.531914894 523.208333333 632.765957447 c 128,-1,31
 571.416666667 682 571.416666667 682 668 682 c 0,32,33
 794.4375 682 794.4375 682 826.5 574 c 0,34,35
 836 542 836 542 836 506 c 0,36,37
 836 379.744680851 836 379.744680851 736 284 c 1,38,-1
 767 284 l 2,39,40
 805.3125 284 805.3125 284 845.15625 321.5 c 128,-1,41
 885 359 885 359 914.5 391.5 c 128,-1,42
 944 424 944 424 981 462 c 1,43,-1
 981 352 l 1,44,45
 878.496350365 242.883211679 878.496350365 242.883211679 819 220 c 0,0,1
741 494 m 0,46,47
 741 586 741 586 659.5 586 c 128,-1,48
 578 586 578 586 578 489 c 0,49,50
 578 420.263157895 578 420.263157895 640 355 c 0,51,52
 659 335 659 335 681 320 c 1,53,54
 716.681233933 359.249357326 716.681233933 359.249357326 735.5 446.5 c 0,55,56
 741 472 741 472 741 494 c 0,46,47
EndSplineSet
EndChar

StartChar: p
Encoding: 112 112 36
Width: 836
Flags: W
LayerCount: 2
Fore
SplineSet
395 -16 m 0,0,1
 336 -16 336 -16 336 39.5 c 0,2,3
 336 69.4347826087 336 69.4347826087 358.096153846 98.2558528428 c 128,-1,4
 380.192307692 127.076923077 380.192307692 127.076923077 428.475119008 183.013971509 c 0,5,6
 476.757930323 238.95101994 476.757930323 238.95101994 535.378965162 365.041547706 c 128,-1,7
 594 491.132075472 594 491.132075472 594 573 c 128,-1,8
 594 655 594 655 528 655 c 0,9,10
 373.409756098 655 373.409756098 655 236.5 290.5 c 0,11,12
 198 188 198 188 166 84 c 2,13,-1
 139 -2 l 1,14,15
 105.854271357 -122.884422111 105.854271357 -122.884422111 77.9271356784 -241.942211055 c 128,-1,16
 50 -361 50 -361 43 -389 c 1,17,-1
 -137 -389 l 1,18,19
 -100 -253 -100 -253 -71.5 -111 c 128,-1,20
 -43 31 -43 31 6.97432239658 276.563480742 c 128,-1,21
 56.9486447932 522.126961484 56.9486447932 522.126961484 133 727 c 1,22,23
 161.151315789 798.657894737 161.151315789 798.657894737 232.5 805 c 0,24,25
 255 807 255 807 283 807 c 2,26,-1
 350 807 l 1,27,28
 297 625 297 625 242 444 c 1,29,30
 309.102564103 578.205128205 309.102564103 578.205128205 436.807379612 709.102564103 c 128,-1,31
 564.512195122 840 564.512195122 840 688 840 c 0,32,33
 817 840 817 840 817 688 c 0,34,35
 817 558.181818182 817 558.181818182 726.597363083 385.594965886 c 128,-1,36
 636.194726166 213.00811359 636.194726166 213.00811359 528 145 c 1,37,38
 592.285714286 145 592.285714286 145 648.142857143 179.5 c 128,-1,39
 704 214 704 214 773.464285714 269.571428571 c 128,-1,40
 842.928571429 325.142857143 842.928571429 325.142857143 983 469 c 1,41,-1
 983 354 l 1,42,43
 893 267 893 267 823 198 c 128,-1,44
 753 129 753 129 687 81.5 c 0,45,46
 551.526315789 -16 551.526315789 -16 395 -16 c 0,0,1
EndSplineSet
EndChar

StartChar: r
Encoding: 114 114 37
Width: 659
Flags: W
LayerCount: 2
Fore
SplineSet
322 647 m 1,0,1
 156 686.058823529 156 686.058823529 156 776.5 c 0,2,3
 156 834 156 834 209 887 c 128,-1,4
 262 940 262 940 350 940 c 0,5,6
 395 940 395 940 395 887.954545455 c 128,-1,7
 395 835.909090909 395 835.909090909 358 790.5 c 0,8,9
 347 777 347 777 334 770 c 1,10,11
 380.347826087 729 380.347826087 729 492 729 c 1,12,-1
 612 743 l 257,13,14
 641 743 641 743 641 729 c 256,15,16
 641 715.48 641 715.48 566.71835443 560.974177215 c 128,-1,17
 492.436708861 406.46835443 492.436708861 406.46835443 453.21835443 313.091320072 c 128,-1,18
 414 219.714285714 414 219.714285714 414 198.357142857 c 128,-1,19
 414 177 414 177 413.5 169.5 c 0,20,21
 411.333333333 137 411.333333333 137 432.678571429 137 c 0,22,23
 476.194029851 137 476.194029851 137 670.611888112 323.085664336 c 0,24,25
 750.769230769 399.807692308 750.769230769 399.807692308 780 440 c 1,26,-1
 780 328 l 1,27,28
 423 -29 423 -29 299 -29 c 0,29,30
 233.978723404 -29 233.978723404 -29 216 55.5 c 0,31,32
 211 79 211 79 211 101 c 128,-1,33
 211 123 211 123 222 162 c 128,-1,34
 233 201 233 201 250.5 248 c 128,-1,35
 268 295 268 295 289.5 347 c 128,-1,36
 311 399 311 399 331 446 c 128,-1,37
 351 493 351 493 368 530.5 c 128,-1,38
 385 568 385 568 393 588 c 1,39,40
 348 542 348 542 270.294701987 470.561258278 c 128,-1,41
 192.589403974 399.122516556 192.589403974 399.122516556 119 324 c 1,42,-1
 119 436 l 1,43,-1
 322 647 l 1,0,1
EndSplineSet
EndChar

StartChar: s
Encoding: 115 115 38
Width: 645
Flags: W
LayerCount: 2
Fore
SplineSet
125 610.75 m 0,0,1
 125 807.422018349 125 807.422018349 282.5 871 c 0,2,3
 337 893 337 893 406 893 c 128,-1,4
 475 893 475 893 475 858.5 c 0,5,6
 475 796.12 475 796.12 421 761.56 c 128,-1,7
 367 727 367 727 307 727 c 1,8,9
 333.307142857 648.078571429 333.307142857 648.078571429 373.653571429 598.539285714 c 128,-1,10
 414 549 414 549 452 510 c 128,-1,11
 490 471 490 471 517.5 437.5 c 128,-1,12
 545 404 545 404 545 366.5 c 0,13,14
 545 293.486486486 545 293.486486486 475 197 c 1,15,-1
 772 440 l 1,16,-1
 772 330 l 1,17,18
 734 297 734 297 689.5 258 c 128,-1,19
 645 219 645 219 596.5 179 c 0,20,21
 344.3 -29 344.3 -29 178.814179104 -29 c 128,-1,22
 13.328358209 -29 13.328358209 -29 -58.5 58.5 c 0,23,24
 -86 92 -86 92 -86 138.5 c 128,-1,25
 -86 185 -86 185 -58 230.5 c 128,-1,26
 -30 276 -30 276 8.5 320.5 c 128,-1,27
 47 365 47 365 87 405.5 c 128,-1,28
 127 446 127 446 152 477 c 1,29,30
 125 544.5 125 544.5 125 610.75 c 0,0,1
195 399 m 1,31,32
 179 381 179 381 149 355 c 0,33,34
 16 239.733333333 16 239.733333333 16 195.866666667 c 0,35,36
 16 125.094339623 16 125.094339623 73.4861111111 86.0471698113 c 128,-1,37
 130.972222222 47 130.972222222 47 197.986111111 47 c 0,38,39
 265 47 265 47 306.5 69.825 c 128,-1,40
 348 92.65 348 92.65 348 131.825 c 128,-1,41
 348 171 348 171 332.5 206 c 128,-1,42
 317 241 317 241 294 274 c 128,-1,43
 271 307 271 307 244.5 338.5 c 128,-1,44
 218 370 218 370 195 399 c 1,31,32
EndSplineSet
EndChar

StartChar: t
Encoding: 116 116 39
Width: 545
Flags: W
LayerCount: 2
Fore
SplineSet
124.5 735 m 2,0,1
 63 735 63 735 63 778 c 0,2,3
 63 789 63 789 67.5 795.5 c 128,-1,4
 72 802 72 802 100 805 c 2,5,-1
 184 813 l 1,6,7
 252.31211857 1035.64690497 252.31211857 1035.64690497 296.656059285 1104.82345248 c 128,-1,8
 341 1174 341 1174 393 1207.5 c 128,-1,9
 445 1241 445 1241 522 1241 c 1,10,-1
 526 1237 l 1,11,12
 526 1232 526 1232 470.625 1076.95 c 128,-1,13
 415.25 921.9 415.25 921.9 385 813 c 1,14,-1
 690 827 l 1,15,-1
 668 791 l 1,16,17
 642.125 745 642.125 745 369 745 c 0,18,19
 364.926229508 745 364.926229508 745 306.463114754 514.919354839 c 0,20,21
 248 284.838709677 248 284.838709677 248 235.419354839 c 128,-1,22
 248 186 248 186 257 163.5 c 128,-1,23
 266 141 266 141 297 141 c 0,24,25
 349.492537313 141 349.492537313 141 678 451 c 1,26,-1
 678 338 l 1,27,28
 605 272 605 272 536.5 206.5 c 0,29,30
 290.213740458 -29 290.213740458 -29 154 -29 c 0,31,32
 35 -29 35 -29 35 137 c 0,33,34
 35 203.555555556 35 203.555555556 46.5 259.777777778 c 128,-1,35
 58 316 58 316 63 342.5 c 128,-1,36
 68 369 68 369 73.5 394.5 c 128,-1,37
 79 420 79 420 84.5 443 c 128,-1,38
 90 466 90 466 96 489.5 c 128,-1,39
 102 513 102 513 110 545.5 c 128,-1,40
 118 578 118 578 129 623.5 c 128,-1,41
 140 669 140 669 156 735 c 1,42,-1
 124.5 735 l 2,0,1
EndSplineSet
EndChar

StartChar: u
Encoding: 117 117 40
Width: 993
Flags: W
LayerCount: 2
Fore
SplineSet
545 195 m 1,0,1
 310.333333333 -29 310.333333333 -29 154 -29 c 0,2,3
 37 -29 37 -29 37 139 c 0,4,5
 37 196.333333333 37 196.333333333 50 246.666666667 c 0,6,7
 103.808695652 455.002898551 103.808695652 455.002898551 217 782 c 1,8,9
 219.777777778 807 219.777777778 807 379 807 c 2,10,-1
 414 807 l 1,11,12
 414 803.243243243 414 803.243243243 383.5 707.621621622 c 0,13,14
 250 289.081081081 250 289.081081081 250 217.040540541 c 128,-1,15
 250 145 250 145 317 145 c 0,16,17
 373.317073171 145 373.317073171 145 457.802100942 193.787128713 c 128,-1,18
 542.287128713 242.574257426 542.287128713 242.574257426 557 272 c 1,19,-1
 666 688 l 2,20,21
 687.47327249 772.103650587 687.47327249 772.103650587 728 794.5 c 0,22,23
 750.619047619 807 750.619047619 807 819 807 c 2,24,-1
 887 807 l 1,25,26
 836.173913043 618.217391304 836.173913043 618.217391304 808.586956522 519.108695652 c 128,-1,27
 781 420 781 420 770 377 c 128,-1,28
 759 334 759 334 750 299.5 c 128,-1,29
 741 265 741 265 735 232 c 128,-1,30
 729 199 729 199 729 170.5 c 128,-1,31
 729 142 729 142 733 135.5 c 128,-1,32
 737 129 737 129 759.2 129 c 0,33,34
 781.4 129 781.4 129 860.116167665 198.696606786 c 128,-1,35
 938.832335329 268.393213573 938.832335329 268.393213573 1114 438 c 1,36,-1
 1114 326 l 1,37,38
 1052 269 1052 269 986 206.5 c 0,39,40
 737.312 -29 737.312 -29 622.052380952 -29 c 0,41,42
 535 -29 535 -29 535 102 c 0,43,44
 535 161 535 161 545 195 c 1,0,1
EndSplineSet
EndChar

StartChar: v
Encoding: 118 118 41
Width: 778
Flags: W
LayerCount: 2
Fore
SplineSet
639 119 m 0,0,1
 605.933333333 119 605.933333333 119 563 211 c 1,2,3
 490.134724858 78.9316888046 490.134724858 78.9316888046 446.567362429 40.9658444023 c 0,4,5
 366.278688525 -29 366.278688525 -29 246 -29 c 0,6,7
 155.981132075 -29 155.981132075 -29 105.490566038 138.25 c 128,-1,8
 55 305.5 55 305.5 55 543 c 2,9,-1
 55 579.5 l 2,10,11
 55 669.6 55 669.6 68 758 c 1,12,13
 71.0839694656 795.007633588 71.0839694656 795.007633588 186.5 805.5 c 0,14,15
 203 807 203 807 214 807 c 2,16,-1
 305 807 l 1,17,18
 274 658.2 274 658.2 274 498.421428571 c 0,19,20
 274 338.642857143 274 338.642857143 305.343434343 227.821428571 c 128,-1,21
 336.686868687 117 336.686868687 117 375 117 c 0,22,23
 407.507462687 117 407.507462687 117 494 269.5 c 0,24,25
 513 303 513 303 524 319 c 1,26,27
 522 319 522 319 522 325 c 2,28,-1
 522 348 l 2,29,30
 522 514.62962963 522 514.62962963 564.645631068 677.314814815 c 128,-1,31
 607.291262136 840 607.291262136 840 688 840 c 0,32,33
 739 840 739 840 739 743 c 0,34,35
 739 585.8 739 585.8 641 306.5 c 0,36,37
 631 278 631 278 627 268 c 1,38,39
 641.4 241 641.4 241 647 213 c 1,40,41
 675.444444444 213 675.444444444 213 725.222222222 262 c 128,-1,42
 775 311 775 311 816 353.5 c 128,-1,43
 857 396 857 396 907 446 c 1,44,-1
 907 334 l 1,45,46
 869 295 869 295 831.5 256.5 c 0,47,48
 697.571428571 119 697.571428571 119 639 119 c 0,0,1
EndSplineSet
EndChar

StartChar: w
Encoding: 119 119 42
Width: 1139
Flags: W
LayerCount: 2
Fore
SplineSet
1103.5 187.5 m 128,-1,1
 1082 174 1082 174 1052.46551724 174 c 128,-1,2
 1022.93103448 174 1022.93103448 174 985 229 c 1,3,4
 913.099406528 54.384272997 913.099406528 54.384272997 773.5 -7.5 c 0,5,6
 725 -29 725 -29 665 -29 c 128,-1,7
 605 -29 605 -29 561 0.5 c 128,-1,8
 517 30 517 30 496 78 c 1,9,10
 382.3125 -29 382.3125 -29 239.327482877 -29 c 128,-1,11
 96.3424657534 -29 96.3424657534 -29 52 95.5 c 0,12,13
 39 132 39 132 39 171.5 c 0,14,15
 39 328.21875 39 328.21875 174 729 c 0,16,17
 200 807 200 807 332 807 c 2,18,-1
 391 807 l 1,19,20
 382.6 774.8 382.6 774.8 356.3 695.9 c 0,21,22
 254 389 254 389 254 244.5 c 128,-1,23
 254 100 254 100 350 100 c 0,24,25
 410.571428571 100 410.571428571 100 477 160 c 1,26,-1
 477 174 l 2,27,28
 477 285.121212121 477 285.121212121 525.5 436.5 c 0,29,30
 585.893203883 625 585.893203883 625 672 625 c 0,31,32
 723 625 723 625 723 562.833333333 c 128,-1,33
 723 500.666666667 723 500.666666667 698 417.333333333 c 128,-1,34
 673 334 673 334 662 297.5 c 128,-1,35
 651 261 651 261 651 246 c 0,36,37
 651 175 651 175 677 137.5 c 128,-1,38
 703 100 703 100 745.990909091 100 c 128,-1,39
 788.981818182 100 788.981818182 100 837.283348463 161.781027104 c 128,-1,40
 885.584878745 223.562054208 885.584878745 223.562054208 895 297 c 1,41,42
 900 320 900 320 903.5 369 c 0,43,44
 920.909090909 612.727272727 920.909090909 612.727272727 958.787878788 726.363636364 c 128,-1,45
 996.666666667 840 996.666666667 840 1069 840 c 0,46,47
 1102.44776119 840 1102.44776119 840 1116.5 705.5 c 0,48,49
 1120 672 1120 672 1120 647 c 0,50,51
 1120 542.769230769 1120 542.769230769 1026 315 c 1,52,53
 1041 279 1041 279 1065 279 c 0,54,55
 1106.40909091 279 1106.40909091 279 1262 442 c 1,56,-1
 1262 328 l 1,57,58
 1230 299 1230 299 1202 271.5 c 128,-1,59
 1174 244 1174 244 1149.5 222.5 c 128,-1,0
 1125 201 1125 201 1103.5 187.5 c 128,-1,1
EndSplineSet
EndChar

StartChar: y
Encoding: 121 121 43
Width: 860
Flags: W
LayerCount: 2
Fore
SplineSet
276 145 m 0,0,1
 332.317073171 145 332.317073171 145 416.802100942 193.787128713 c 128,-1,2
 501.287128713 242.574257426 501.287128713 242.574257426 516 272 c 1,3,-1
 625 688 l 2,4,5
 646.47327249 772.103650587 646.47327249 772.103650587 687 794.5 c 0,6,7
 709.619047619 807 709.619047619 807 778 807 c 2,8,-1
 846 807 l 1,9,10
 823.393442623 748.868852459 823.393442623 748.868852459 775.196721311 568.93442623 c 128,-1,11
 727 389 727 389 713 337.5 c 128,-1,12
 699 286 699 286 688.5 246.5 c 128,-1,13
 678 207 678 207 672 184.5 c 2,14,-1
 666 164 l 1,15,-1
 767 248.5 l 2,16,17
 901.454545455 360.545454545 901.454545455 360.545454545 983 440 c 1,18,-1
 983 328 l 1,19,-1
 649 27 l 1,20,-1
 649 23 l 1,21,22
 604.307901907 -222.80653951 604.307901907 -222.80653951 474.38014143 -355.903269755 c 128,-1,23
 344.452380952 -489 344.452380952 -489 205 -489 c 0,24,25
 135.682926829 -489 135.682926829 -489 93.3414634146 -458 c 0,26,27
 16 -401.375 16 -401.375 16 -332 c 0,28,29
 16 -241.090909091 16 -241.090909091 172 -156 c 1,30,-1
 473 35 l 1,31,-1
 506 195 l 1,32,33
 271.333333333 -29 271.333333333 -29 113 -29 c 0,34,35
 -4 -29 -4 -29 -4 139 c 0,36,37
 -4 271.189189189 -4 271.189189189 176 782 c 1,38,39
 178.777777778 807 178.777777778 807 338 807 c 2,40,-1
 373 807 l 1,41,42
 373 803.243243243 373 803.243243243 342.5 707.621621622 c 0,43,44
 209 289.081081081 209 289.081081081 209 217.040540541 c 128,-1,45
 209 145 209 145 276 145 c 0,0,1
276 -205 m 2,46,47
 221.714285714 -239.285714286 221.714285714 -239.285714286 193.857142857 -267.142857143 c 128,-1,48
 166 -295 166 -295 166 -338 c 0,49,50
 166 -420 166 -420 240 -420 c 0,51,52
 370.884297521 -420 370.884297521 -420 432.5 -218.5 c 0,53,54
 451 -158 451 -158 461 -88 c 1,55,-1
 276 -205 l 2,46,47
EndSplineSet
EndChar

StartChar: z
Encoding: 122 122 44
Width: 737
Flags: W
LayerCount: 2
Fore
SplineSet
424 940 m 0,0,1
 475 940 475 940 475 882 c 0,2,3
 475 838.454545455 475 838.454545455 453 810.227272727 c 128,-1,4
 431 782 431 782 414 772 c 1,5,6
 457 729 457 729 569 729 c 1,7,-1
 688 743 l 1,8,9
 715 743 715 743 715 713 c 0,10,11
 715 702 715 702 713 700 c 2,12,-1
 578 418 l 1,13,14
 550 353 550 353 524 300.5 c 128,-1,15
 498 248 498 248 481 213 c 1,16,17
 537.961702128 190.710638298 537.961702128 190.710638298 545 152 c 1,18,19
 629.810408922 206.87732342 629.810408922 206.87732342 795 376 c 0,20,21
 837 419 837 419 872 453 c 1,22,-1
 913 379 l 1,23,24
 690.5 154 690.5 154 575 63 c 1,25,26
 554.643431862 -187.385788092 554.643431862 -187.385788092 440.225195254 -355.33916293 c 128,-1,27
 325.806958645 -523.292537769 325.806958645 -523.292537769 158 -535 c 1,28,29
 42 -535 42 -535 -21 -489 c 128,-1,30
 -84 -443 -84 -443 -84 -365.5 c 0,31,32
 -84 -214.066115702 -84 -214.066115702 35.0311335817 -109.790907771 c 128,-1,33
 154.062267163 -5.51569984034 154.062267163 -5.51569984034 389 70 c 1,34,35
 371 74 371 74 307.5 86.7 c 128,-1,36
 244 99.4 244 99.4 244 111 c 0,37,38
 244 145.588235294 244 145.588235294 326.5 320.294117647 c 128,-1,39
 409 495 409 495 438 561 c 1,40,-1
 377 575 l 1,41,42
 359 557 359 557 267.5 470 c 128,-1,43
 176 383 176 383 115 322 c 1,44,-1
 115 432 l 1,45,-1
 309 637 l 1,46,47
 236 673.5 236 673.5 236 770 c 0,48,49
 236 828.4375 236 828.4375 288.5 884.21875 c 128,-1,50
 341 940 341 940 424 940 c 0,0,1
451 -4 m 1,51,52
 393.777188329 -34.7307692308 393.777188329 -34.7307692308 307.888594164 -65.8653846154 c 128,-1,53
 222 -97 222 -97 190 -112.5 c 0,54,55
 90 -160.9375 90 -160.9375 90 -311 c 0,56,57
 90 -388 90 -388 133.5 -417 c 0,58,59
 150 -428 150 -428 175.5 -428 c 0,60,61
 226.375 -428 226.375 -428 290.3773017 -359.730878187 c 128,-1,62
 354.379603399 -291.461756374 354.379603399 -291.461756374 400.699846343 -192.504873723 c 128,-1,63
 447.020089286 -93.5479910714 447.020089286 -93.5479910714 451 -4 c 1,51,52
EndSplineSet
EndChar

StartChar: V
Encoding: 86 86 45
Width: 1415
Flags: W
LayerCount: 2
Fore
SplineSet
543 459 m 0,0,1
 543 182 543 182 698 182 c 0,2,3
 798.4 182 798.4 182 926 314 c 0,4,5
 1096.39548023 490.271186441 1096.39548023 490.271186441 1226 774 c 0,6,7
 1263 855 1263 855 1286 922 c 1,8,9
 1206.58852868 934.538653367 1206.58852868 934.538653367 1119 1008 c 0,10,11
 1008 1101.09677419 1008 1101.09677419 1008 1245 c 0,12,13
 1008 1347.47058824 1008 1347.47058824 1061.68518519 1432.73529412 c 128,-1,14
 1115.37037037 1518 1115.37037037 1518 1223 1518 c 0,15,16
 1425 1518 1425 1518 1425 1022 c 1,17,18
 1618.48955224 1058.50746269 1618.48955224 1058.50746269 1774 1180 c 1,19,-1
 1774 1065 l 1,20,21
 1664.14953271 991.76635514 1664.14953271 991.76635514 1521 944.5 c 0,22,23
 1468 927 1468 927 1413 918 c 1,24,25
 1338.4425 582.49125 1338.4425 582.49125 1149 295.5 c 0,26,27
 1008.36508851 82.4486042315 1008.36508851 82.4486042315 823.5 -9.5 c 0,28,29
 728 -57 728 -57 623.5 -57 c 0,30,31
 430.158273381 -57 430.158273381 -57 338 95.5 c 0,32,33
 260 224.571428571 260 224.571428571 260 434.223214286 c 128,-1,34
 260 643.875 260 643.875 311.936729663 848.375873048 c 128,-1,35
 363.873459326 1052.8767461 363.873459326 1052.8767461 438.936729663 1167.27170638 c 128,-1,36
 514 1281.66666667 514 1281.66666667 514 1309 c 0,37,38
 514 1315 514 1315 511.5 1315 c 128,-1,39
 509 1315 509 1315 507 1313.5 c 128,-1,40
 505 1312 505 1312 500 1309 c 2,41,-1
 385 1221 l 1,42,43
 369 1212 369 1212 323.5 1183.5 c 128,-1,44
 278 1155 278 1155 215.5 1116.5 c 128,-1,45
 153 1078 153 1078 80 1033 c 128,-1,46
 7 988 7 988 -63 946 c 1,47,-1
 -63 1057 l 1,48,49
 89.4245524297 1146.07928389 89.4245524297 1146.07928389 302.712276215 1277.53964194 c 128,-1,50
 516 1409 516 1409 619.486842105 1469.5 c 128,-1,51
 722.973684211 1530 722.973684211 1530 750.486842105 1530 c 128,-1,52
 778 1530 778 1530 778 1509 c 1,53,-1
 768 1482 l 1,54,55
 599.637168142 1010.5840708 599.637168142 1010.5840708 553 616.5 c 0,56,57
 543 532 543 532 543 459 c 0,0,1
1296 1028 m 1,58,-1
 1298 1067 l 1,59,60
 1298 1166.67857143 1298 1166.67857143 1276.5 1227.33928571 c 0,61,62
 1236.92405063 1339 1236.92405063 1339 1188 1339 c 0,63,64
 1133 1339 1133 1339 1133 1256.1 c 128,-1,65
 1133 1173.2 1133 1173.2 1180.25674056 1108.090713 c 128,-1,66
 1227.51348113 1042.981426 1227.51348113 1042.981426 1296 1028 c 1,58,-1
EndSplineSet
EndChar

StartChar: U
Encoding: 85 85 46
Width: 1645
Flags: W
LayerCount: 2
Fore
SplineSet
632 -57 m 0,0,1
 223 -57 223 -57 223 404.693627451 c 0,2,3
 223 620.470588235 223 620.470588235 312.147439852 872.181006641 c 128,-1,4
 401.294879704 1123.89142505 401.294879704 1123.89142505 537 1311 c 1,5,6
 537 1315 537 1315 533 1315 c 128,-1,7
 529 1315 529 1315 527 1313.5 c 128,-1,8
 525 1312 525 1312 520 1309 c 2,9,-1
 406 1221 l 1,10,11
 382.794520548 1208.34246575 382.794520548 1208.34246575 226.635999013 1110.97303468 c 128,-1,12
 70.4774774775 1013.6036036 70.4774774775 1013.6036036 -43 946 c 1,13,-1
 -43 1057 l 1,14,15
 88.4923076923 1133.84615385 88.4923076923 1133.84615385 232.746153846 1222.42307692 c 128,-1,16
 377 1311 377 1311 457 1360 c 128,-1,17
 537 1409 537 1409 601.5 1447 c 128,-1,18
 666 1485 666 1485 711 1507.5 c 128,-1,19
 756 1530 756 1530 777.5 1530 c 128,-1,20
 799 1530 799 1530 799 1509 c 0,21,22
 799 1497.04166667 799 1497.04166667 739.691489362 1366.06870567 c 0,23,24
 461 750.625 461 750.625 461 448.8125 c 128,-1,25
 461 147 461 147 745 147 c 0,26,27
 923.236363636 147 923.236363636 147 1075.28612513 260.009957871 c 128,-1,28
 1227.33588663 373.019915741 1227.33588663 373.019915741 1320.01618439 552.132401285 c 128,-1,29
 1412.69648214 731.244886828 1412.69648214 731.244886828 1425 924 c 1,30,31
 1345.8 937.2 1345.8 937.2 1259 1010 c 0,32,33
 1147 1103.93548387 1147 1103.93548387 1147 1247 c 0,34,35
 1147 1349.47058824 1147 1349.47058824 1200.68518519 1434.73529412 c 128,-1,36
 1254.37037037 1520 1254.37037037 1520 1362 1520 c 0,37,38
 1492.28089888 1520 1492.28089888 1520 1536.5 1288.5 c 0,39,40
 1556.93200837 1181.53242678 1556.93200837 1181.53242678 1555.46600418 1106.76621339 c 128,-1,41
 1554 1032 1554 1032 1554 1024 c 1,42,43
 1697.61445783 1052.72289157 1697.61445783 1052.72289157 1821 1161 c 1,44,-1
 1821 1047 l 1,45,46
 1670.95652174 939.826086957 1670.95652174 939.826086957 1552 920 c 1,47,48
 1501.62705583 529.60968265 1501.62705583 529.60968265 1249.5 245 c 0,49,50
 1081.87046739 55.7740245416 1081.87046739 55.7740245416 860.5 -19 c 0,51,52
 748 -57 748 -57 632 -57 c 0,0,1
1430 1028 m 1,53,-1
 1432 1067 l 1,54,55
 1432 1233.26829268 1432 1233.26829268 1367.5 1313.5 c 0,56,57
 1347 1339 1347 1339 1321 1339 c 0,58,59
 1266 1339 1266 1339 1266 1256.1 c 128,-1,60
 1266 1173.2 1266 1173.2 1313.36048527 1107.94777585 c 128,-1,61
 1360.72097054 1042.6955517 1360.72097054 1042.6955517 1430 1028 c 1,53,-1
EndSplineSet
EndChar

StartChar: I
Encoding: 73 73 47
Width: 1061
Flags: W
LayerCount: 2
Fore
SplineSet
403 303 m 1,0,-1
 401 213 l 1,1,2
 401 133.869565217 401 133.869565217 415 103.434782609 c 0,3,4
 443.72 41 443.72 41 502.36 41 c 128,-1,5
 561 41 561 41 599.5 72.5 c 128,-1,6
 638 104 638 104 668 154.5 c 128,-1,7
 698 205 698 205 720 269 c 128,-1,8
 742 333 742 333 758.5 398 c 128,-1,9
 775 463 775 463 786 522.5 c 128,-1,10
 797 582 797 582 805 625 c 2,11,-1
 819 702 l 1,12,13
 590.978375595 718.417556957 590.978375595 718.417556957 476.489187798 791.942723433 c 128,-1,14
 362 865.467889908 362 865.467889908 362 954.733944954 c 128,-1,15
 362 1044 362 1044 456 1162 c 0,16,17
 628.718420803 1378.81674101 628.718420803 1378.81674101 934 1456.5 c 0,18,19
 1046 1485 1046 1485 1127.5 1485 c 128,-1,20
 1209 1485 1209 1485 1237.5 1491.5 c 128,-1,21
 1266 1498 1266 1498 1315.71176471 1512.72941176 c 128,-1,22
 1365.42352941 1527.45882353 1365.42352941 1527.45882353 1401 1530 c 1,23,24
 1379.51742627 1408.26541555 1379.51742627 1408.26541555 1308 1345 c 0,25,26
 1282 1322 1282 1322 1249 1311 c 1,27,28
 1123.94255569 1095.32121923 1123.94255569 1095.32121923 1057 793 c 1,29,-1
 1024 647 l 1,30,31
 981.421825144 436.947670708 981.421825144 436.947670708 950.710912572 345.973835354 c 0,32,33
 886.365384615 155.365384615 886.365384615 155.365384615 791 60 c 0,34,35
 674 -57 674 -57 494 -57 c 0,36,37
 388.982142857 -57 388.982142857 -57 297.991071429 2.94705882353 c 128,-1,38
 207 62.8941176471 207 62.8941176471 207 172 c 0,39,40
 207 303 207 303 403 303 c 1,0,-1
604 880.5 m 128,-1,42
 682 851 682 851 854 842 c 1,43,44
 899.009419152 1010.19309262 899.009419152 1010.19309262 944.004709576 1089.59654631 c 128,-1,45
 989 1169 989 1169 1035 1218.5 c 128,-1,46
 1081 1268 1081 1268 1145 1303 c 1,47,48
 944.294117647 1303 944.294117647 1303 804.931781046 1234.3287037 c 128,-1,49
 665.569444444 1165.65740741 665.569444444 1165.65740741 595.784722222 1079.25727513 c 128,-1,50
 526 992.857142857 526 992.857142857 526 951.428571429 c 128,-1,41
 526 910 526 910 604 880.5 c 128,-1,42
EndSplineSet
EndChar

StartChar: O
Encoding: 79 79 48
Width: 1653
Flags: W
LayerCount: 2
Fore
SplineSet
1139 1403 m 1,0,1
 1097.4 1411 1097.4 1411 1013.7 1411 c 128,-1,2
 930 1411 930 1411 835 1382.5 c 0,3,4
 559.020576132 1299.70617284 559.020576132 1299.70617284 417.382720193 1054.75599845 c 0,5,6
 328 900.176470588 328 900.176470588 328 748 c 0,7,8
 328 460 328 460 478 310 c 128,-1,9
 628 160 628 160 829.521978022 160 c 128,-1,10
 1031.04395604 160 1031.04395604 160 1172.64537134 252.703084833 c 128,-1,11
 1314.24678663 345.406169666 1314.24678663 345.406169666 1395 496 c 1,12,-1
 1382 496 l 2,13,14
 1163.31775701 496 1163.31775701 496 1010.6588785 607.880136986 c 128,-1,15
 858 719.760273973 858 719.760273973 858 928.343099949 c 128,-1,16
 858 1136.92592593 858 1136.92592593 1055.5 1213 c 0,17,18
 1123 1239 1123 1239 1203.5 1239 c 0,19,20
 1363.40517241 1239 1363.40517241 1239 1474.20258621 1116.5952381 c 128,-1,21
 1585 994.19047619 1585 994.19047619 1585 768 c 0,22,23
 1585 698 1585 698 1573 637 c 1,24,25
 1710 658 1710 658 1853 743 c 1,26,-1
 1853 651 l 1,27,28
 1721.03960396 546.207920792 1721.03960396 546.207920792 1540 510 c 1,29,30
 1448.99603296 257.537381752 1448.99603296 257.537381752 1210.71013769 100.268690876 c 128,-1,31
 972.424242424 -57 972.424242424 -57 711.540692641 -57 c 128,-1,32
 450.657142857 -57 450.657142857 -57 286 112.5 c 0,33,34
 100 303.970588235 100 303.970588235 100 664 c 0,35,36
 100 863.560747664 100 863.560747664 211.991658271 1062.42443992 c 128,-1,37
 323.983316542 1261.28813218 323.983316542 1261.28813218 530.379658271 1389.64406609 c 128,-1,38
 736.776 1518 736.776 1518 1006 1518 c 0,39,40
 1067.16666667 1518 1067.16666667 1518 1143 1505 c 1,41,-1
 1139 1403 l 1,0,1
1190 1126 m 0,42,43
 1030 1126 1030 1126 1030 987 c 0,44,45
 1030 919 1030 919 1061.5 851.5 c 128,-1,46
 1093 784 1093 784 1148.5 734.5 c 0,47,48
 1266.79770735 628.991233985 1266.79770735 628.991233985 1448 627 c 1,49,50
 1475 709.928571429 1475 709.928571429 1475 787.964285714 c 0,51,52
 1475 942.61971831 1475 942.61971831 1401.02272727 1034.30985915 c 128,-1,53
 1327.04545455 1126 1327.04545455 1126 1190 1126 c 0,42,43
EndSplineSet
EndChar

StartChar: Q
Encoding: 81 81 49
Width: 1632
Flags: W
LayerCount: 2
Fore
SplineSet
427 -518 m 0,0,1
 224.103448276 -518 224.103448276 -518 141 -397.5 c 0,2,3
 111 -354 111 -354 111 -281.5 c 128,-1,4
 111 -209 111 -209 178 -209 c 1,5,-1
 563 -236 l 1,6,7
 592.462809917 -200.644628099 592.462809917 -200.644628099 647.231404959 -50.3223140496 c 128,-1,8
 702 100 702 100 723.5 158.5 c 128,-1,9
 745 217 745 217 761 262 c 128,-1,10
 777 307 777 307 785.721105528 331.150753769 c 128,-1,11
 794.442211055 355.301507538 794.442211055 355.301507538 840.665549972 363.150753769 c 128,-1,12
 886.888888889 371 886.888888889 371 977 371 c 1,13,-1
 754 -229 l 1,14,15
 989.43814433 -197.608247423 989.43814433 -197.608247423 1055 -152 c 1,16,-1
 1065 -272 l 1,17,18
 991.265625 -311.325 991.265625 -311.325 773.5 -343 c 0,19,20
 746 -347 746 -347 729 -348 c 1,21,22
 679.92938803 -463.666442502 679.92938803 -463.666442502 533 -504 c 0,23,24
 482 -518 482 -518 427 -518 c 0,0,1
422 -334 m 2,25,26
 411 -334 411 -334 301 -324 c 1,27,28
 275 -324 275 -324 265.5 -326.5 c 128,-1,29
 256 -329 256 -329 256 -343 c 0,30,31
 256 -370.5 256 -370.5 309.5 -397.25 c 128,-1,32
 363 -424 363 -424 409.5 -424 c 128,-1,33
 456 -424 456 -424 473 -415.5 c 0,34,35
 512.25 -395.875 512.25 -395.875 537 -334 c 1,36,-1
 422 -334 l 2,25,26
1100 1403 m 1,37,38
 1058.4 1411 1058.4 1411 975.2 1411 c 128,-1,39
 892 1411 892 1411 796.5 1382.5 c 0,40,41
 520.219223485 1300.04971591 520.219223485 1300.04971591 378.382720193 1054.75599845 c 0,42,43
 289 900.176470588 289 900.176470588 289 748 c 0,44,45
 289 460 289 460 439 310 c 128,-1,46
 589 160 589 160 790.521978022 160 c 128,-1,47
 992.043956044 160 992.043956044 160 1133.64537134 252.703084833 c 128,-1,48
 1275.24678663 345.406169666 1275.24678663 345.406169666 1356 496 c 1,49,-1
 1343 496 l 2,50,51
 1124.31775701 496 1124.31775701 496 971.658878505 607.880136986 c 128,-1,52
 819 719.760273973 819 719.760273973 819 928.343099949 c 128,-1,53
 819 1136.92592593 819 1136.92592593 1016.5 1213 c 0,54,55
 1084 1239 1084 1239 1164.5 1239 c 0,56,57
 1324.40517241 1239 1324.40517241 1239 1435.20258621 1116.5952381 c 128,-1,58
 1546 994.19047619 1546 994.19047619 1546 768 c 0,59,60
 1546 698 1546 698 1534 637 c 1,61,62
 1671 658 1671 658 1814 743 c 1,63,-1
 1814 651 l 1,64,65
 1682.03960396 546.207920792 1682.03960396 546.207920792 1501 510 c 1,66,67
 1409.99603296 257.537381752 1409.99603296 257.537381752 1171.71013769 100.268690876 c 128,-1,68
 933.424242424 -57 933.424242424 -57 672.540692641 -57 c 128,-1,69
 411.657142857 -57 411.657142857 -57 247 112.5 c 0,70,71
 61 303.970588235 61 303.970588235 61 664 c 0,72,73
 61 863.560747664 61 863.560747664 172.991658271 1062.42443992 c 128,-1,74
 284.983316542 1261.28813218 284.983316542 1261.28813218 491.379658271 1389.64406609 c 128,-1,75
 697.776 1518 697.776 1518 967 1518 c 0,76,77
 1028.16666667 1518 1028.16666667 1518 1104 1505 c 1,78,-1
 1100 1403 l 1,37,38
1151 1126 m 0,79,80
 991 1126 991 1126 991 987 c 0,81,82
 991 919 991 919 1022.5 851.5 c 128,-1,83
 1054 784 1054 784 1109.5 734.5 c 0,84,85
 1227.79770735 628.991233985 1227.79770735 628.991233985 1409 627 c 1,86,87
 1436 709.928571429 1436 709.928571429 1436 787.964285714 c 0,88,89
 1436 942.61971831 1436 942.61971831 1362.02272727 1034.30985915 c 128,-1,90
 1288.04545455 1126 1288.04545455 1126 1151 1126 c 0,79,80
EndSplineSet
EndChar

StartChar: E
Encoding: 69 69 50
Width: 1403
Flags: W
LayerCount: 2
Fore
SplineSet
320.5 595 m 1,0,1
 274 595 274 595 274 642.722222222 c 128,-1,2
 274 690.444444444 274 690.444444444 326 702 c 1,3,4
 393 728 393 728 551 760 c 1,5,6
 663.906422018 1160.30458716 663.906422018 1160.30458716 737 1262 c 0,7,8
 773.617777778 1313.59777778 773.617777778 1313.59777778 842 1360 c 1,9,10
 750.8 1368 750.8 1368 627.4 1368 c 0,11,12
 384.881355932 1368 384.881355932 1368 267.440677966 1308.26724138 c 128,-1,13
 150 1248.53448276 150 1248.53448276 150 1143 c 0,14,15
 150 1087 150 1087 200 1037 c 128,-1,16
 250 987 250 987 346 952 c 1,17,18
 346 894.4 346 894.4 334.5 862.2 c 128,-1,19
 323 830 323 830 317 825 c 1,20,21
 84.6444318824 907.353872244 84.6444318824 907.353872244 21.5 1038.5 c 0,22,23
 2 1079 2 1079 2 1120 c 0,24,25
 2 1299.08284024 2 1299.08284024 178.176190476 1408.54142012 c 128,-1,26
 354.352380952 1518 354.352380952 1518 657 1518 c 2,27,-1
 948 1518 l 2,28,29
 1569 1518 1569 1518 1569 1491 c 0,30,31
 1569 1479 1569 1479 1550 1460 c 1,32,-1
 1450 1346 l 1,33,34
 1399.6875 1311 1399.6875 1311 1344.34375 1311 c 128,-1,35
 1289 1311 1289 1311 1156.03767123 1332.2739726 c 128,-1,36
 1023.07534247 1353.54794521 1023.07534247 1353.54794521 963 1356 c 1,37,38
 929 1235 929 1235 893 1090.5 c 128,-1,39
 857 946 857 946 809 795 c 1,40,41
 927 805 927 805 1040.5 805 c 128,-1,42
 1154 805 1154 805 1272 799 c 1,43,44
 1309 799 1309 799 1309 766 c 256,45,46
 1309 735.571428571 1309 735.571428571 1277.34482759 702.785714286 c 128,-1,47
 1245.68965517 670 1245.68965517 670 1208 670 c 0,48,49
 918.375 670 918.375 670 774 659 c 1,50,-1
 774 657 l 1,51,52
 723.780033841 471.813874788 723.780033841 471.813874788 584 238 c 1,53,-1
 616 240 l 1,54,-1
 674 238 l 1,55,-1
 691.5 238 l 2,56,57
 701 238 701 238 711 240 c 1,58,59
 721 237 721 237 748 226.5 c 128,-1,60
 775 216 775 216 902.537037037 167.5 c 128,-1,61
 1030.07407407 119 1030.07407407 119 1072.39417989 119 c 128,-1,62
 1114.71428571 119 1114.71428571 119 1163 145 c 1,63,64
 1189.21374046 149.368956743 1189.21374046 149.368956743 1308.38277113 243.569238131 c 128,-1,65
 1427.5518018 337.76951952 1427.5518018 337.76951952 1524 438 c 1,66,-1
 1524 328 l 1,67,68
 1430 245 1430 245 1352.5 174.5 c 128,-1,69
 1275 104 1275 104 1202 52.5 c 0,70,71
 1046.78640777 -57 1046.78640777 -57 893 -57 c 0,72,73
 887.8 -57 887.8 -57 868.9 -46.5 c 0,74,75
 765.044354839 11.1975806452 765.044354839 11.1975806452 442 109 c 1,76,77
 230.727272727 -57 230.727272727 -57 100 -57 c 0,78,79
 42.25 -57 42.25 -57 7 -10 c 0,80,81
 -8 10 -8 10 -8 38.5 c 128,-1,82
 -8 67 -8 67 10 85.5 c 128,-1,83
 28 104 28 104 52.5 118.5 c 128,-1,84
 77 133 77 133 103 143.5 c 128,-1,85
 129 154 129 154 145 162 c 2,86,-1
 401 279 l 1,87,88
 426.853503185 316.343949045 426.853503185 316.343949045 461.426751592 441.671974522 c 128,-1,89
 496 567 496 567 514 631 c 1,90,-1
 320.5 595 l 1,0,1
EndSplineSet
EndChar

StartChar: zero
Encoding: 48 48 51
Width: 1210
Flags: W
LayerCount: 2
Fore
SplineSet
113.559506804 812.503056755 m 0,0,1
 153.182593429 989.76423376 153.182593429 989.76423376 237.77277356 1151.72348109 c 128,-1,2
 322.362953692 1313.68272841 322.362953692 1313.68272841 447.785437242 1415.84136421 c 128,-1,3
 573.207920792 1518 573.207920792 1518 727 1518 c 0,4,5
 923.179104478 1518 923.179104478 1518 1027 1370 c 0,6,7
 1161.51502732 1178.24453552 1161.51502732 1178.24453552 1117.5 815.5 c 0,8,9
 1086.92336367 563.506341983 1086.92336367 563.506341983 972.169374143 341.107017145 c 128,-1,10
 857.415384615 118.707692308 857.415384615 118.707692308 663 21.5 c 0,11,12
 562 -29 562 -29 466.5 -29 c 128,-1,13
 371 -29 371 -29 319.5 -4.5 c 128,-1,14
 268 20 268 20 229.5 61 c 0,15,16
 158.089518229 137.047526042 158.089518229 137.047526042 120 267 c 0,17,18
 47.1676482136 515.486847271 47.1676482136 515.486847271 113.559506804 812.503056755 c 0,0,1
890.5 1304 m 0,19,20
 861 1327 861 1327 815.891304348 1327 c 128,-1,21
 770.782608696 1327 770.782608696 1327 728.682784168 1304.99327354 c 128,-1,22
 686.582959641 1282.98654709 686.582959641 1282.98654709 616.791479821 1226.99327354 c 128,-1,23
 547 1171 547 1171 472.5 1065 c 128,-1,24
 398 959 398 959 347.5 837.5 c 0,25,26
 241.840795308 583.290230296 241.840795308 583.290230296 254 332 c 1,27,28
 258.138869505 207.833914864 258.138869505 207.833914864 319.5 161.5 c 0,29,30
 344 143 344 143 395.5 143 c 0,31,32
 503.78 143 503.78 143 613.245302045 243.42688261 c 128,-1,33
 722.71060409 343.85376522 722.71060409 343.85376522 805.660188146 500.421105126 c 128,-1,34
 888.609772202 656.988445031 888.609772202 656.988445031 938.161670021 839.858544124 c 128,-1,35
 987.713567839 1022.72864322 987.713567839 1022.72864322 962 1171.5 c 0,36,37
 946.667714631 1260.20822249 946.667714631 1260.20822249 890.5 1304 c 0,19,20
EndSplineSet
EndChar

StartChar: eight
Encoding: 56 56 52
Width: 1286
Flags: W
LayerCount: 2
Fore
SplineSet
1036 1270 m 1,0,1
 949 1386 949 1386 817.583333333 1386 c 128,-1,2
 686.166666667 1386 686.166666667 1386 593 1308 c 128,-1,3
 500 1230.13953488 500 1230.13953488 500 1128 c 0,4,5
 500 989.404255319 500 989.404255319 674 895 c 1,6,7
 704 910 704 910 745.5 934 c 0,8,9
 1095.59114927 1136.46235139 1095.59114927 1136.46235139 1210 1143 c 1,10,-1
 1243 1096 l 1,11,12
 1186 1064 1186 1064 1130.5 1034.5 c 0,13,14
 918.620271581 921.879243453 918.620271581 921.879243453 786 811 c 1,15,16
 907.200706298 702.424367275 907.200706298 702.424367275 951.100353149 641.212183637 c 0,17,18
 1038 520.042253521 1038 520.042253521 1038 399 c 0,19,20
 1038 191.016 1038 191.016 824.5 59.5 c 0,21,22
 635.376623377 -57 635.376623377 -57 402.938311688 -57 c 128,-1,23
 170.5 -57 170.5 -57 83 118 c 0,24,25
 53 178 53 178 53 249.5 c 128,-1,26
 53 321 53 321 77 373 c 128,-1,27
 101 425 101 425 137 469 c 128,-1,28
 173 513 173 513 215 549 c 128,-1,29
 257 585 257 585 294.5 613 c 128,-1,30
 332 641 332 641 358.5 661 c 128,-1,31
 385 681 385 681 389 692 c 1,32,33
 221 836 221 836 221 974.106382979 c 128,-1,34
 221 1112.21276596 221 1112.21276596 318.852084039 1239.21227929 c 128,-1,35
 416.704168079 1366.21179261 416.704168079 1366.21179261 575.769892258 1442.10589631 c 128,-1,36
 734.835616438 1518 734.835616438 1518 890.503522505 1518 c 128,-1,37
 1046.17142857 1518 1046.17142857 1518 1119.5 1474.5 c 0,38,39
 1149 1457 1149 1457 1149 1430.5 c 0,40,41
 1149 1376.90909091 1149 1376.90909091 1111.5 1323.5 c 128,-1,42
 1073.93617021 1270 1073.93617021 1270 1036 1270 c 1,0,1
508 590 m 1,43,44
 272 406.444444444 272 406.444444444 272 215 c 0,45,46
 272 95.3802816901 272 95.3802816901 379.5 54.5 c 0,47,48
 415 41 415 41 464 41 c 0,49,50
 572.328358209 41 572.328358209 41 664.164179104 113.388235294 c 128,-1,51
 756 185.776470588 756 185.776470588 756 305.247785856 c 128,-1,52
 756 424.719101124 756 424.719101124 599.5 535.5 c 0,53,54
 555 567 555 567 508 590 c 1,43,44
EndSplineSet
EndChar

StartChar: six
Encoding: 54 54 53
Width: 1094
Flags: W
LayerCount: 2
Fore
SplineSet
472.029316392 1205.82496195 m 0,0,1
 614.903381643 1378.77777778 614.903381643 1378.77777778 665.560386473 1420.38888889 c 128,-1,2
 716.217391304 1462 716.217391304 1462 768 1462 c 2,3,-1
 924 1462 l 1,4,5
 727.003003003 1255.76876877 727.003003003 1255.76876877 644.001501502 1154.38438438 c 0,6,7
 461.962881582 932.028486228 461.962881582 932.028486228 357.981440791 721.12273368 c 128,-1,8
 254 510.216981132 254 510.216981132 254 295 c 0,9,10
 254 203.151515152 254 203.151515152 274 165.575757576 c 0,11,12
 315.290322581 88 315.290322581 88 422 88 c 0,13,14
 500.447058824 88 500.447058824 88 590.5 182.5 c 0,15,16
 715.05687974 313.207836764 715.05687974 313.207836764 772.5 492.5 c 0,17,18
 812.650183762 617.817240227 812.650183762 617.817240227 785.402448851 709.291778857 c 128,-1,19
 758.15471394 800.766317486 758.15471394 800.766317486 647 809 c 0,20,21
 593 813 593 813 520 813 c 1,22,23
 549.442379182 867.959107807 549.442379182 867.959107807 585.405400117 885.479553903 c 128,-1,24
 621.368421053 903 621.368421053 903 693.184210526 903 c 0,25,26
 857.88 903 857.88 903 943.594571843 829.108127721 c 128,-1,27
 1029.30914369 755.216255443 1029.30914369 755.216255443 1016 586 c 1,28,29
 1000.84578129 355.655875605 1000.84578129 355.655875605 819.927127933 163.327937803 c 128,-1,30
 639.008474576 -29 639.008474576 -29 394 -29 c 0,31,32
 305 -29 305 -29 237.5 9.5 c 0,33,34
 42.7961107837 120.553329405 42.7961107837 120.553329405 69.0102505138 435.123006166 c 128,-1,35
 95.2243902439 749.692682927 95.2243902439 749.692682927 472.029316392 1205.82496195 c 0,0,1
EndSplineSet
EndChar

StartChar: nine
Encoding: 57 57 54
Width: 1094
Flags: W
LayerCount: 2
Fore
SplineSet
315 -29 m 1,0,1
 825 745.807692308 825 745.807692308 825 1174 c 0,2,3
 825 1327.75 825 1327.75 745 1381.5 c 0,4,5
 713 1403 713 1403 662.5 1403 c 0,6,7
 566.9375 1403 566.9375 1403 477.905592105 1319.20526316 c 128,-1,8
 388.873684211 1235.41052632 388.873684211 1235.41052632 333.936842105 1112.85910931 c 128,-1,9
 279 990.307692308 279 990.307692308 279 879 c 0,10,11
 279 720.365853659 279 720.365853659 396 669 c 0,12,13
 437 651 437 651 474 651 c 2,14,-1
 528 651 l 2,15,16
 545 651 545 651 563 653 c 1,17,18
 550.495969909 550.466953251 550.495969909 550.466953251 468 541.5 c 0,19,20
 445 539 445 539 395.5 539 c 128,-1,21
 346 539 346 539 277 562.5 c 128,-1,22
 208 586 208 586 156 631.5 c 0,23,24
 43 730.375 43 730.375 43 895 c 0,25,26
 43 1132.98148148 43 1132.98148148 218.279661017 1324.49074074 c 128,-1,27
 393.559322034 1516 393.559322034 1516 647 1516 c 0,28,29
 828.495495495 1516 828.495495495 1516 932.247747748 1401.97524752 c 128,-1,30
 1036 1287.95049505 1036 1287.95049505 1036 1084.30858086 c 128,-1,31
 1036 880.666666667 1036 880.666666667 919.5 570 c 0,32,33
 767.774590164 165.398907104 767.774590164 165.398907104 581.5 21 c 0,34,35
 517 -29 517 -29 455 -29 c 2,36,-1
 315 -29 l 1,0,1
EndSplineSet
EndChar

StartChar: two
Encoding: 50 50 55
Width: 1149
Flags: W
LayerCount: 2
Fore
SplineSet
233 -25 m 128,-1,1
 180 -29 180 -29 118.5 -29 c 128,-1,2
 57 -29 57 -29 57 12 c 0,3,4
 57 41 57 41 104 88 c 2,5,-1
 125 109 l 1,6,7
 189 171 189 171 268.5 241.5 c 0,8,9
 587.691512383 524.556624189 587.691512383 524.556624189 720.845756191 730.44217764 c 128,-1,10
 854 936.327731092 854 936.327731092 854 1124 c 0,11,12
 854 1268 854 1268 813 1338.5 c 128,-1,13
 772 1409 772 1409 676 1409 c 0,14,15
 628 1409 628 1409 569.5 1384.5 c 128,-1,16
 511 1360 511 1360 460.5 1310 c 0,17,18
 342 1192.67326733 342 1192.67326733 342 999 c 1,19,20
 373.951219512 954.268292683 373.951219512 954.268292683 416.975609756 927.634146341 c 128,-1,21
 460 901 460 901 473.5 888.5 c 128,-1,22
 487 876 487 876 487 855.681818182 c 128,-1,23
 487 835.363636364 487 835.363636364 475.071428571 820.181818182 c 128,-1,24
 463.142857143 805 463.142857143 805 441.071428571 805 c 128,-1,25
 419 805 419 805 350.111111111 848.055555556 c 128,-1,26
 281.222222222 891.111111111 281.222222222 891.111111111 217.611111111 941.091269841 c 128,-1,27
 154 991.071428571 154 991.071428571 154 1006 c 0,28,29
 154 1242.17293233 154 1242.17293233 294.019083969 1380.08646617 c 128,-1,30
 434.038167939 1518 434.038167939 1518 625.697655398 1518 c 128,-1,31
 817.357142857 1518 817.357142857 1518 917.247252747 1447.37062937 c 0,32,33
 1085 1328.75757576 1085 1328.75757576 1085 1127 c 0,34,35
 1085 977.291666667 1085 977.291666667 979 794 c 0,36,37
 794.230125523 474.50209205 794.230125523 474.50209205 334 137 c 1,38,39
 389 146 389 146 534.596153846 179.5 c 128,-1,40
 680.192307692 213 680.192307692 213 786 213 c 0,41,42
 934 213 934 213 934 145 c 0,43,44
 934 98.1538461538 934 98.1538461538 914 55.0769230769 c 0,45,46
 874.964285714 -29 874.964285714 -29 838.482142857 -29 c 0,47,48
 781.636363636 -29 781.636363636 -29 694.5 -15.5 c 128,-1,49
 607.363636364 -2 607.363636364 -2 552.681818182 -2 c 128,-1,50
 498 -2 498 -2 445 -6 c 128,-1,51
 392 -10 392 -10 339 -15.5 c 128,-1,0
 286 -21 286 -21 233 -25 c 128,-1,1
EndSplineSet
EndChar

StartChar: j
Encoding: 106 106 56
Width: 442
Flags: W
LayerCount: 2
Fore
SplineSet
20 137 m 1,0,1
 113.166666667 602.833333333 113.166666667 602.833333333 147.179333333 688.672666667 c 128,-1,2
 181.192 774.512 181.192 774.512 238 794.5 c 0,3,4
 273.526315789 807 273.526315789 807 375 807 c 1,5,6
 367 779 367 779 350.5 723 c 0,7,8
 195 195.242424242 195 195.242424242 195 106 c 1,9,10
 225.709677419 117.516129032 225.709677419 117.516129032 364.35483871 246.258064516 c 128,-1,11
 503 375 503 375 567 440 c 1,12,-1
 567 328 l 1,13,14
 420.108935129 178.438188494 420.108935129 178.438188494 332.605869433 102.08747431 c 128,-1,15
 245.102803738 25.7367601246 245.102803738 25.7367601246 158 -16 c 1,16,17
 145 -80 145 -80 134.5 -128 c 128,-1,18
 124 -176 124 -176 102.597435897 -274.2 c 128,-1,19
 81.1948717949 -372.4 81.1948717949 -372.4 54.5974358974 -466.7 c 128,-1,20
 28 -561 28 -561 -11 -610 c 128,-1,21
 -50 -659 -50 -659 -104 -699.5 c 0,22,23
 -226 -791 -226 -791 -346 -791 c 0,24,25
 -408.666666667 -791 -408.666666667 -791 -432 -721 c 0,26,27
 -449.909090909 -667.272727273 -449.909090909 -667.272727273 -437.512861453 -579.247578681 c 128,-1,28
 -425.116631996 -491.222430089 -425.116631996 -491.222430089 -352.5 -372.5 c 0,29,30
 -231.779527559 -175.131608549 -231.779527559 -175.131608549 -18 2 c 1,31,-1
 20 137 l 1,0,1
-248.931034483 -682 m 0,32,33
 -127.949579832 -682 -127.949579832 -682 -43 -222.5 c 0,34,35
 -32 -163 -32 -163 -23 -117 c 1,36,37
 -231.834586466 -364.120927318 -231.834586466 -364.120927318 -276.529839359 -466.54754853 c 128,-1,38
 -321.225092251 -568.974169742 -321.225092251 -568.974169742 -317.612546125 -601.487084871 c 0,39,40
 -308.666666667 -682 -308.666666667 -682 -248.931034483 -682 c 0,32,33
317 1155.26470588 m 0,41,42
 317 1194.52941176 317 1194.52941176 354.833333333 1241.26470588 c 128,-1,43
 392.666666667 1288 392.666666667 1288 445.333333333 1288 c 128,-1,44
 498 1288 498 1288 521.5 1267 c 128,-1,45
 545 1246 545 1246 545 1219.5 c 128,-1,46
 545 1193 545 1193 532.5 1167.5 c 128,-1,47
 520 1142 520 1142 498.5 1121 c 0,48,49
 449.357142857 1073 449.357142857 1073 383.178571429 1073 c 128,-1,50
 317 1073 317 1073 317 1155.26470588 c 0,41,42
EndSplineSet
EndChar

StartChar: x
Encoding: 120 120 57
Width: 903
Flags: W
LayerCount: 2
Fore
SplineSet
358 356 m 1,0,-1
 209 645 l 2,1,2
 195.111111111 670 195.111111111 670 179.355555556 670 c 128,-1,3
 163.6 670 163.6 670 93.1644067797 609.279661017 c 128,-1,4
 22.7288135593 548.559322034 22.7288135593 548.559322034 -6 516 c 1,5,-1
 -29 571 l 1,6,7
 108.673925181 739.761585706 108.673925181 739.761585706 227 810.5 c 0,8,9
 273 838 273 838 317.472222222 838 c 128,-1,10
 361.944444444 838 361.944444444 838 387 797 c 1,11,12
 391 788 391 788 402.5 764 c 128,-1,13
 414 740 414 740 442.8 677.9 c 128,-1,14
 471.6 615.8 471.6 615.8 510 539 c 1,15,-1
 649 707 l 1,16,17
 748.75 840 748.75 840 834 840 c 0,18,19
 863 840 863 840 880 821.5 c 128,-1,20
 897 803 897 803 897 781 c 128,-1,21
 897 759 897 759 880.5 746.5 c 128,-1,22
 864 734 864 734 818.815298507 706.496268657 c 128,-1,23
 773.630597015 678.992537313 773.630597015 678.992537313 735.372763928 630.170112448 c 128,-1,24
 697.11493084 581.347687582 697.11493084 581.347687582 565 428 c 1,25,26
 666.462365591 229.906810036 666.462365591 229.906810036 717 176 c 0,27,28
 719 174 719 174 729.476744186 174 c 0,29,30
 739.953488372 174 739.953488372 174 817.248420487 236.710982659 c 128,-1,31
 894.543352601 299.421965318 894.543352601 299.421965318 1028 444 c 1,32,-1
 1028 328 l 1,33,34
 957 262 957 262 893 198 c 128,-1,35
 829 134 829 134 775 83.5 c 0,36,37
 654.702970297 -29 654.702970297 -29 604 -29 c 0,38,39
 573.428571429 -29 573.428571429 -29 550.11038961 1.22727272727 c 128,-1,40
 526.792207792 31.4545454545 526.792207792 31.4545454545 489 102 c 1,41,-1
 414 248 l 1,42,43
 331.777777778 150.222222222 331.777777778 150.222222222 274.388888889 78.1111111111 c 0,44,45
 168.453775039 -55 168.453775039 -55 90 -55 c 0,46,47
 61 -55 61 -55 44 -37 c 128,-1,48
 27 -19 27 -19 27 2 c 128,-1,49
 27 23 27 23 43 36 c 128,-1,50
 59 49 59 49 103.601351351 77.1182432432 c 128,-1,51
 148.202702703 105.236486486 148.202702703 105.236486486 172 133 c 2,52,-1
 358 356 l 1,0,-1
EndSplineSet
EndChar

StartChar: fi
Encoding: 64257 64257 58
Width: 971
Flags: W
LayerCount: 2
Fore
SplineSet
240 432 m 1,0,1
 240 291 240 291 305 291 c 0,2,3
 379.923076923 291 379.923076923 291 509.021062271 447.638888889 c 128,-1,4
 638.119047619 604.277777778 638.119047619 604.277777778 666.55952381 673.138888889 c 128,-1,5
 695 742 695 742 716 763.5 c 128,-1,6
 737 785 737 785 768.842105263 796 c 128,-1,7
 800.684210526 807 800.684210526 807 901 807 c 1,8,9
 893 779 893 779 878 728.5 c 0,10,11
 743 274 743 274 743 171.189655172 c 0,12,13
 743 117 743 117 778 117 c 256,14,15
 808.218181818 117 808.218181818 117 969 236.5 c 0,16,17
 1006 264 1006 264 1026 281 c 1,18,-1
 1049 225 l 1,19,20
 860.030696576 52.4628099174 860.030696576 52.4628099174 691.5 -14 c 0,21,22
 597.21244168 -51.1838258165 597.21244168 -51.1838258165 560.5 13.5 c 0,23,24
 541 47.8571428571 541 47.8571428571 541 84.9285714286 c 0,25,26
 541 184 541 184 600 420 c 1,27,28
 394.653846154 139 394.653846154 139 276 139 c 256,29,30
 224.92 139 224.92 139 199 193 c 1,31,32
 197 186 197 186 190.5 148.5 c 0,33,34
 124.487012987 -232.344155844 124.487012987 -232.344155844 94 -336 c 1,35,-1
 -74 -336 l 1,36,37
 -13.4714587738 126.610993658 -13.4714587738 126.610993658 202.5 966.5 c 0,38,39
 234 1089 234 1089 254.5 1163 c 0,40,41
 289.019521411 1287.6070529 289.019521411 1287.6070529 409.434760705 1376.80352645 c 128,-1,42
 529.85 1466 529.85 1466 649 1466 c 0,43,44
 733.48 1466 733.48 1466 741 1372 c 0,45,46
 743 1347 743 1347 743 1296 c 0,47,48
 743 1178.47887324 743 1178.47887324 673.381456241 1025.51418554 c 0,49,50
 534.354825394 720.047221993 534.354825394 720.047221993 240 432 c 1,0,1
547 1358 m 0,51,52
 428.2 1358 428.2 1358 298 707 c 0,53,54
 283 632 283 632 274 586 c 1,55,56
 304 633 304 633 341 687 c 128,-1,57
 378 741 378 741 442.136894825 838.893155259 c 128,-1,58
 506.273789649 936.786310518 506.273789649 936.786310518 561.136894825 1051.4110124 c 128,-1,59
 616 1166.03571429 616 1166.03571429 616 1262.01785714 c 128,-1,60
 616 1358 616 1358 547 1358 c 0,51,52
881 1073 m 0,61,62
 809 1073 809 1073 809 1145 c 0,63,64
 809 1194.52941176 809 1194.52941176 835.5 1227.26470588 c 0,65,66
 884.666666667 1288 884.666666667 1288 937.333333333 1288 c 128,-1,67
 990 1288 990 1288 1013 1267 c 128,-1,68
 1036 1246 1036 1246 1036 1206.5 c 128,-1,69
 1036 1167 1036 1167 989 1120 c 128,-1,70
 942 1073 942 1073 881 1073 c 0,61,62
EndSplineSet
EndChar

StartChar: one
Encoding: 49 49 60
Width: 709
Flags: W
LayerCount: 2
Fore
SplineSet
49 1085 m 1,0,1
 23 1094.28571429 23 1094.28571429 23 1123.73376623 c 128,-1,2
 23 1153.18181818 23 1153.18181818 84 1192 c 0,3,4
 423.225177969 1409.39078306 423.225177969 1409.39078306 621 1509 c 0,5,6
 637.2 1518 637.2 1518 649 1518 c 0,7,8
 674 1518 674 1518 674 1481 c 2,9,-1
 674 1466.5 l 2,10,11
 674 1460 674 1460 672 1452 c 2,12,-1
 395 221 l 1,13,14
 378.772727273 69.5454545455 378.772727273 69.5454545455 361.386363636 34.7727272727 c 128,-1,15
 344 0 344 0 326 0 c 2,16,-1
 123 0 l 2,17,18
 96 0 96 0 96 45.5 c 128,-1,19
 96 91 96 91 124 220.5 c 128,-1,20
 152 350 152 350 191.5 488.5 c 128,-1,21
 231 627 231 627 263 752.5 c 128,-1,22
 295 878 295 878 316.5 962 c 128,-1,23
 338 1046 338 1046 370.4 1175.6 c 0,24,25
 402.8 1305.2 402.8 1305.2 408 1313 c 1,26,27
 204.043956044 1149.83516484 204.043956044 1149.83516484 91 1097.5 c 0,28,29
 64 1085 64 1085 49 1085 c 1,0,1
EndSplineSet
EndChar

StartChar: three
Encoding: 51 51 61
Width: 1188
Flags: W
LayerCount: 2
Fore
SplineSet
549 698 m 1,0,1
 489 698 489 698 489 751.235294118 c 128,-1,2
 489 804.470588235 489 804.470588235 528 812.5 c 0,3,4
 545 816 545 816 564.5 815.5 c 0,5,6
 708.675276753 811.803198032 708.675276753 811.803198032 814.5 972.5 c 0,7,8
 901 1103.85185185 901 1103.85185185 901 1239.07977208 c 128,-1,9
 901 1374.30769231 901 1374.30769231 808.5 1417 c 0,10,11
 776 1432 776 1432 731.5 1432 c 0,12,13
 687 1432 687 1432 613.825301205 1383.21686747 c 128,-1,14
 540.65060241 1334.43373494 540.65060241 1334.43373494 482.325301205 1265.10365992 c 128,-1,15
 424 1195.77358491 424 1195.77358491 424 1145 c 1,16,17
 437 1122.71428571 437 1122.71428571 483.5 1082.85714286 c 128,-1,18
 530 1043 530 1043 543 1030 c 1,19,20
 537.111111111 977 537.111111111 977 504 977 c 0,21,22
 478.195121951 977 478.195121951 977 361.097560976 1054.43548387 c 128,-1,23
 244 1131.87096774 244 1131.87096774 244 1151 c 0,24,25
 244 1218 244 1218 283 1283.5 c 128,-1,26
 322 1349 322 1349 386.5 1401 c 0,27,28
 531.625 1518 531.625 1518 707 1518 c 0,29,30
 1002.03389831 1518 1002.03389831 1518 1091.5 1365 c 0,31,32
 1126 1306 1126 1306 1126 1221.5 c 0,33,34
 1126 1070.75 1126 1070.75 1025.30301624 955.368039443 c 128,-1,35
 924.606032483 839.986078886 924.606032483 839.986078886 788 784 c 1,36,37
 892.789022298 754.89193825 892.789022298 754.89193825 958.394511149 668.12338848 c 128,-1,38
 1024 581.35483871 1024 581.35483871 1024 492.677419355 c 0,39,40
 1024 335.571428571 1024 335.571428571 937.527346244 219.245120542 c 128,-1,41
 851.054692488 102.918812513 851.054692488 102.918812513 714.947981165 36.9594062567 c 128,-1,42
 578.841269841 -29 578.841269841 -29 443.420634921 -29 c 128,-1,43
 308 -29 308 -29 178.5 42.225 c 128,-1,44
 49 113.45 49 113.45 49 238 c 0,45,46
 49 300.595238095 49 300.595238095 94.2804878049 344.797619048 c 128,-1,47
 139.56097561 389 139.56097561 389 189.280487805 389 c 128,-1,48
 239 389 239 389 260.405172414 360.040060852 c 0,49,50
 281.810344828 331.080121704 281.810344828 331.080121704 302.5 232.5 c 0,51,52
 335.345679012 76 335.345679012 76 444.342857143 76 c 0,53,54
 586.12195122 76 586.12195122 76 682.06097561 211.637931034 c 128,-1,55
 778 347.275862069 778 347.275862069 778 492.552216749 c 128,-1,56
 778 637.828571429 778 637.828571429 677 684 c 0,57,58
 642 700 642 700 592 700 c 1,59,-1
 549 698 l 1,0,1
EndSplineSet
EndChar

StartChar: four
Encoding: 52 52 62
Width: 1264
Flags: W
LayerCount: 2
Fore
SplineSet
266 340 m 1,0,1
 186.789473684 297 186.789473684 297 128.519736842 297 c 128,-1,2
 70.25 297 70.25 297 35 344 c 0,3,4
 20 364 20 364 20 401.413043478 c 0,5,6
 20 438.826086957 20 438.826086957 39.8663366337 456.10116229 c 128,-1,7
 59.7326732673 473.376237624 59.7326732673 473.376237624 104 489 c 2,8,-1
 215 528 l 1,9,-1
 508 1208 l 1,10,11
 560.543978349 1353.69012179 560.543978349 1353.69012179 590.907545536 1410.3140714 c 0,12,13
 621.271112722 1466.93802102 621.271112722 1466.93802102 671.421270647 1492.46901051 c 128,-1,14
 721.571428571 1518 721.571428571 1518 819 1518 c 0,15,16
 854.307692308 1518 854.307692308 1518 866 1499 c 1,17,18
 737.402061856 1203.70103093 737.402061856 1203.70103093 600.701030928 914.350515464 c 128,-1,19
 464 625 464 625 403 494 c 1,20,21
 511.484848485 460.851851852 511.484848485 460.851851852 608 444 c 1,22,23
 643 535 643 535 680.5 626.5 c 128,-1,24
 718 718 718 718 756 811 c 1,25,26
 774 838 774 838 860 838 c 2,27,-1
 952 838 l 1,28,29
 928.857142857 745.428571429 928.857142857 745.428571429 799 428 c 1,30,31
 930.6 428 930.6 428 1008 471 c 1,32,33
 1031.00653595 475.60130719 1031.00653595 475.60130719 1100.50326797 523.800653595 c 128,-1,34
 1170 572 1170 572 1196 594 c 1,35,-1
 1245 508 l 1,36,37
 1185.2 464.3 1185.2 464.3 1100.33188406 391.751449275 c 0,38,39
 1015.46376812 319.202898551 1015.46376812 319.202898551 959.231884058 294.601449275 c 128,-1,40
 903 270 903 270 801 270 c 2,41,-1
 769.5 270 l 2,42,43
 754 270 754 270 737 272 c 1,44,-1
 666 96 l 1,45,46
 653.203125 46.640625 653.203125 46.640625 636.1015625 23.3203125 c 128,-1,47
 619 0 619 0 608 0 c 2,48,-1
 455 0 l 1,49,-1
 449 20 l 1,50,51
 502.672727273 169.836363636 502.672727273 169.836363636 549 291 c 1,52,53
 419.70212766 310.723404255 419.70212766 310.723404255 266 340 c 1,0,1
EndSplineSet
EndChar

StartChar: five
Encoding: 53 53 63
Width: 1327
Flags: W
LayerCount: 2
Fore
SplineSet
600 866 m 1,0,1
 747.5 946 747.5 946 889.697916667 946 c 128,-1,2
 1031.89583333 946 1031.89583333 946 1135.44791667 844.56122449 c 128,-1,3
 1239 743.12244898 1239 743.12244898 1239 581.778615794 c 128,-1,4
 1239 420.434782609 1239 420.434782609 1141 274.5 c 0,5,6
 998.578970572 62.4165105257 998.578970572 62.4165105257 743 -7 c 0,7,8
 662 -29 662 -29 609 -29 c 0,9,10
 407.181818182 -29 407.181818182 -29 288.030041436 75.0213923967 c 0,11,12
 225 130.047619048 225 130.047619048 225 219 c 0,13,14
 225 260.533333333 225 260.533333333 259 292.266666667 c 0,15,16
 325.142857143 354 325.142857143 354 401 354 c 1,17,18
 401 175.670588235 401 175.670588235 507.5 103 c 0,19,20
 550 74 550 74 621.5 74 c 0,21,22
 758.147058824 74 758.147058824 74 845.565757391 143.121761658 c 128,-1,23
 932.984455959 212.243523316 932.984455959 212.243523316 969.492227979 311.336047372 c 128,-1,24
 1006 410.428571429 1006 410.428571429 1006 481.214285714 c 0,25,26
 1006 603.543209877 1006 603.543209877 916.979452055 683.771604938 c 128,-1,27
 827.95890411 764 827.95890411 764 707 764 c 128,-1,28
 585.846153846 764 585.846153846 764 475 633 c 1,29,30
 444.454545455 638.090909091 444.454545455 638.090909091 434 659 c 1,31,32
 541.741935484 1116.90322581 541.741935484 1116.90322581 638.5 1421 c 0,33,34
 655.045454545 1473 655.045454545 1473 680 1473 c 2,35,-1
 686 1473 l 1,36,37
 927.666666667 1448 927.666666667 1448 1064.01515152 1448 c 128,-1,38
 1200.36363636 1448 1200.36363636 1448 1364 1468 c 1,39,-1
 1421 1450 l 1,40,41
 1416.63728814 1409.28135593 1416.63728814 1409.28135593 1385.81864407 1354.14067797 c 128,-1,42
 1355 1299 1355 1299 1338.5 1270 c 128,-1,43
 1322 1241 1322 1241 1294.05 1221.5 c 128,-1,44
 1266.1 1202 1266.1 1202 1173.05 1202 c 128,-1,45
 1080 1202 1080 1202 1000.87272727 1210.72727273 c 0,46,47
 921.745454545 1219.45454545 921.745454545 1219.45454545 853.897727273 1263.22727273 c 128,-1,48
 786.05 1307 786.05 1307 745 1307 c 1,49,50
 729 1257 729 1257 670.489361702 1085.45744681 c 128,-1,51
 611.978723404 913.914893617 611.978723404 913.914893617 600 866 c 1,0,1
EndSplineSet
EndChar

StartChar: seven
Encoding: 55 55 64
Width: 1022
Flags: W
LayerCount: 2
Fore
SplineSet
215 1421 m 1,0,1
 397.285714286 1399 397.285714286 1399 512.698412698 1399 c 128,-1,2
 628.111111111 1399 628.111111111 1399 754.777777778 1411 c 128,-1,3
 881.444444444 1423 881.444444444 1423 920.222222222 1423 c 128,-1,4
 959 1423 959 1423 967.5 1419.5 c 128,-1,5
 976 1416 976 1416 992 1403.55555556 c 128,-1,6
 1008 1391.11111111 1008 1391.11111111 1008 1378.05555556 c 0,7,8
 1008 1338.75776398 1008 1338.75776398 891 1124.37888199 c 128,-1,9
 774 910 774 910 694 760 c 0,10,11
 494.363636364 385.681818182 494.363636364 385.681818182 403 139 c 0,12,13
 393.076923077 110.884615385 393.076923077 110.884615385 368.038461538 55.4423076923 c 128,-1,14
 343 0 343 0 344 0 c 2,15,-1
 115 0 l 1,16,17
 191.264774229 369.023101107 191.264774229 369.023101107 545.5 894.5 c 0,18,19
 651 1051 651 1051 770 1225 c 1,20,21
 646.773584906 1154.58490566 646.773584906 1154.58490566 360.5 1135.5 c 0,22,23
 323 1133 323 1133 246.5 1133 c 128,-1,24
 170 1133 170 1133 125 1140.94117647 c 128,-1,25
 80 1148.88235294 80 1148.88235294 80 1176 c 0,26,27
 80 1194 80 1194 110.051522248 1249.40749415 c 0,28,29
 140.103044496 1304.81498829 140.103044496 1304.81498829 149.5 1330.5 c 0,30,31
 182.609756098 1421 182.609756098 1421 215 1421 c 1,0,1
EndSplineSet
EndChar

StartChar: q
Encoding: 113 113 65
Width: 897
Flags: W
LayerCount: 2
Fore
SplineSet
373 -55 m 0,0,1
 55 -55 55 -55 55 258 c 0,2,3
 55 469.034482759 55 469.034482759 195.32173913 654.517241379 c 128,-1,4
 335.643478261 840 335.643478261 840 565 840 c 0,5,6
 650.666666667 840 650.666666667 840 864 760 c 1,7,-1
 711 123 l 1,8,9
 779.768328446 200.020527859 779.768328446 200.020527859 874.353035818 288.036852775 c 128,-1,10
 968.937743191 376.053177691 968.937743191 376.053177691 1022 440 c 1,11,-1
 1022 328 l 1,12,-1
 690 18 l 1,13,-1
 690 14 l 1,14,15
 687 -1 687 -1 677.5 -36.5 c 128,-1,16
 668 -72 668 -72 626.053097345 -234.544247788 c 128,-1,17
 584.10619469 -397.088495575 584.10619469 -397.088495575 561 -440 c 1,18,-1
 371 -379 l 1,19,-1
 481 -47 l 1,20,21
 436.2 -55 436.2 -55 373 -55 c 0,0,1
653 766 m 1,22,23
 579 784 579 784 546.5 784 c 0,24,25
 478.72 784 478.72 784 410.885170068 706.914965986 c 128,-1,26
 343.050340136 629.829931973 343.050340136 629.829931973 302.525170068 512.520229144 c 128,-1,27
 262 395.210526316 262 395.210526316 262 290.412955466 c 128,-1,28
 262 185.615384615 262 185.615384615 301.193548387 123.307692308 c 128,-1,29
 340.387096774 61 340.387096774 61 424 61 c 0,30,31
 464.571428571 61 464.571428571 61 496 72 c 1,32,-1
 653 766 l 1,22,23
EndSplineSet
EndChar

StartChar: X
Encoding: 88 88 66
Width: 1544
Flags: W
LayerCount: 2
Fore
SplineSet
66 147 m 1,0,-1
 215 135 l 1,1,2
 313.790960452 135 313.790960452 135 577 441.5 c 0,3,4
 653 530 653 530 731 625 c 1,5,6
 591.100917431 954.174311927 591.100917431 954.174311927 527.550458716 1084.08715596 c 128,-1,7
 464 1214 464 1214 457 1230 c 128,-1,8
 450 1246 450 1246 437.333333333 1265 c 128,-1,9
 424.666666667 1284 424.666666667 1284 389.028985507 1284 c 128,-1,10
 353.391304348 1284 353.391304348 1284 306.695652174 1254.5 c 128,-1,11
 260 1225 260 1225 208.75 1199.375 c 128,-1,12
 157.5 1173.75 157.5 1173.75 35 1102 c 1,13,-1
 35 1212 l 1,14,15
 255 1339.01030928 255 1339.01030928 312 1372.50515464 c 128,-1,16
 369 1406 369 1406 407.068403909 1428.10423453 c 128,-1,17
 445.136807818 1450.20846906 445.136807818 1450.20846906 500.092072548 1484.10423453 c 128,-1,18
 555.047337278 1518 555.047337278 1518 590.023668639 1518 c 0,19,20
 663.14 1518 663.14 1518 705 1427 c 1,21,22
 713 1407 713 1407 734 1354 c 128,-1,23
 755 1301 755 1301 785 1226 c 128,-1,24
 815 1151 815 1151 851 1058.5 c 128,-1,25
 887 966 887 966 926 868 c 1,26,27
 1014.34693878 980.224489796 1014.34693878 980.224489796 1063 1038 c 1,28,29
 1238.82484076 1280.80573248 1238.82484076 1280.80573248 1293.91242038 1341.90286624 c 128,-1,30
 1349 1403 1349 1403 1373.28286853 1426.75498008 c 128,-1,31
 1397.56573705 1450.50996016 1397.56573705 1450.50996016 1436.28286853 1479.75498008 c 128,-1,32
 1475 1509 1475 1509 1493.5 1513.5 c 128,-1,33
 1512 1518 1512 1518 1539.5 1518 c 128,-1,34
 1567 1518 1567 1518 1594.5 1504.25 c 128,-1,35
 1622 1490.5 1622 1490.5 1622 1464.25 c 128,-1,36
 1622 1438 1622 1438 1601.29898403 1411.21044993 c 0,37,38
 1580.59796807 1384.42089985 1580.59796807 1384.42089985 1488 1311.5 c 0,39,40
 1317.81927711 1177.48268072 1317.81927711 1177.48268072 1210 1018 c 1,41,42
 1096.91304348 867.217391304 1096.91304348 867.217391304 981 727 c 1,43,-1
 1087 459 l 1,44,45
 1165.69075145 280.910404624 1165.69075145 280.910404624 1200.84537572 226.455202312 c 128,-1,46
 1236 172 1236 172 1259 153.5 c 128,-1,47
 1282 135 1282 135 1308.5 135 c 128,-1,48
 1335 135 1335 135 1367.5 156 c 128,-1,49
 1400 177 1400 177 1442 217 c 128,-1,50
 1484 257 1484 257 1538.5 313 c 128,-1,51
 1593 369 1593 369 1665 440 c 1,52,-1
 1667 328 l 1,53,54
 1458.86046512 106.518187239 1458.86046512 106.518187239 1398.93023256 53.7590936196 c 0,55,56
 1273.11650485 -57 1273.11650485 -57 1186 -57 c 0,57,58
 1048.38341969 -57 1048.38341969 -57 909 217.5 c 0,59,60
 860 314 860 314 805 451 c 1,61,-1
 786 494 l 1,62,63
 562.410339257 224.864297254 562.410339257 224.864297254 426.232196655 82.9321486268 c 128,-1,64
 290.054054054 -59 290.054054054 -59 123 -59 c 0,65,66
 54.4444444444 -59 54.4444444444 -59 27.2222222222 -41.5 c 0,67,68
 -25 -7.92857142857 -25 -7.92857142857 -25 63.0811688312 c 128,-1,69
 -25 134.090909091 -25 134.090909091 29.5 144 c 0,70,71
 46 147 46 147 66 147 c 1,0,-1
EndSplineSet
EndChar

StartChar: Z
Encoding: 90 90 67
Width: 1450
Flags: W
LayerCount: 2
Fore
SplineSet
698 260 m 1,0,1
 1152.33333333 119 1152.33333333 119 1231 119 c 0,2,3
 1266.71428571 119 1266.71428571 119 1293.35714286 133 c 0,4,5
 1425.54340836 202.459807074 1425.54340836 202.459807074 1503 268 c 1,6,-1
 1503 168 l 1,7,8
 1441 133 1441 133 1385.5 93.5 c 128,-1,9
 1330 54 1330 54 1275 20.5 c 0,10,11
 1147.76119403 -57 1147.76119403 -57 1044 -57 c 0,12,13
 1039 -57 1039 -57 1034 -54.5 c 0,14,15
 927 -1 927 -1 573 117 c 1,16,17
 423.140327869 18.228852459 423.140327869 18.228852459 292.5 -17 c 0,18,19
 248 -29 248 -29 215.333333333 -29 c 128,-1,20
 182.666666667 -29 182.666666667 -29 151 -11.5 c 0,21,22
 102 15.5789473684 102 15.5789473684 102 78.7459954233 c 128,-1,23
 102 141.913043478 102 141.913043478 198 192 c 0,24,25
 221 204 221 204 236 211 c 2,26,-1
 483 322 l 1,27,28
 637.978448276 523.142241379 637.978448276 523.142241379 721 655 c 1,29,-1
 1167 1376 l 1,30,31
 1001.25 1393 1001.25 1393 819.551470588 1393 c 128,-1,32
 637.852941176 1393 637.852941176 1393 498.926470588 1353.96280992 c 128,-1,33
 360 1314.92561983 360 1314.92561983 360 1280 c 0,34,35
 360 1154.70588235 360 1154.70588235 422 1100 c 1,36,37
 422 1074.6 422 1074.6 354 1061 c 1,38,39
 177.117647059 1126.61764706 177.117647059 1126.61764706 131 1276.5 c 0,40,41
 117 1322 117 1322 117 1370 c 0,42,43
 117 1395 117 1395 164.5 1421.5 c 128,-1,44
 212 1448 212 1448 310 1469.5 c 0,45,46
 531.069767442 1518 531.069767442 1518 918 1518 c 0,47,48
 1059.23076923 1518 1059.23076923 1518 1200.11538462 1501.5 c 128,-1,49
 1341 1485 1341 1485 1405 1481 c 1,50,-1
 1448 1384 l 1,51,52
 1412 1328 1412 1328 1365 1247 c 128,-1,53
 1318 1166 1318 1166 1219.89331476 997.185793872 c 0,54,55
 941.801498751 518.667443797 941.801498751 518.667443797 698 260 c 1,0,1
EndSplineSet
EndChar

StartChar: acute
Encoding: 180 180 68
Width: 1706
Flags: W
LayerCount: 2
Fore
SplineSet
1292 1083 m 2,0,1
 1123.27272727 1016.09090909 1123.27272727 1016.09090909 895 940 c 1,2,-1
 872 995 l 1,3,4
 1063.15194346 1169.53003534 1063.15194346 1169.53003534 1229 1233.5 c 0,5,6
 1293.48562171 1258.37302552 1293.48562171 1258.37302552 1320.24281085 1243.18651276 c 128,-1,7
 1347 1228 1347 1228 1373 1202.8125 c 128,-1,8
 1399 1177.625 1399 1177.625 1399 1150.40340909 c 128,-1,9
 1399 1123.18181818 1399 1123.18181818 1380 1118 c 1,10,-1
 1292 1083 l 2,0,1
EndSplineSet
EndChar

StartChar: grave
Encoding: 96 96 70
Width: 1706
Flags: W
LayerCount: 2
Fore
SplineSet
700 1118 m 1,0,1
 682 1122.90909091 682 1122.90909091 682 1149.95454545 c 128,-1,2
 682 1177 682 1177 718 1213 c 128,-1,3
 754 1249 754 1249 796.093137255 1247.64215686 c 0,4,5
 838.18627451 1246.28431373 838.18627451 1246.28431373 953.477065826 1184.20465686 c 128,-1,6
 1068.76785714 1122.125 1068.76785714 1122.125 1208 995 c 1,7,-1
 1186 940 l 1,8,9
 951.454545455 1018.18181818 951.454545455 1018.18181818 788 1083 c 2,10,-1
 700 1118 l 1,0,1
EndSplineSet
EndChar

StartChar: ring
Encoding: 730 730 71
Width: 666
Flags: W
LayerCount: 2
Fore
SplineSet
442.5 1190 m 128,-1,1
 422 1219 422 1219 371.763888889 1219 c 0,2,3
 321.527777778 1219 321.527777778 1219 290.763888889 1180.81034483 c 128,-1,4
 260 1142.62068966 260 1142.62068966 260 1108.31034483 c 0,5,6
 260 997 260 997 338.222222222 997 c 0,7,8
 398.666666667 997 398.666666667 997 430.833333333 1035.6 c 128,-1,9
 463 1074.2 463 1074.2 463 1117.6 c 128,-1,0
 463 1161 463 1161 442.5 1190 c 128,-1,1
243.461538462 959 m 0,10,11
 182 1012.26666667 182 1012.26666667 182 1089.84761905 c 128,-1,12
 182 1167.42857143 182 1167.42857143 233.875 1226.71428571 c 128,-1,13
 285.75 1286 285.75 1286 369.375 1286 c 128,-1,14
 453 1286 453 1286 495 1238.75 c 128,-1,15
 537 1191.5 537 1191.5 537 1135.75 c 0,16,17
 537 1038.6 537 1038.6 478.441176471 984.3 c 128,-1,18
 419.882352941 930 419.882352941 930 348.402714932 930 c 128,-1,19
 276.923076923 930 276.923076923 930 243.461538462 959 c 0,10,11
EndSplineSet
EndChar

StartChar: hungarumlaut
Encoding: 733 733 72
Width: 1706
Flags: W
LayerCount: 2
Fore
SplineSet
1034 1389 m 0,0,1
 1141 1389 1141 1389 1141 1343 c 0,2,3
 1141 1312.65517241 1141 1312.65517241 1090 1251.32758621 c 128,-1,4
 1039 1190 1039 1190 1004 1145 c 128,-1,5
 969 1100 969 1100 938 1059.5 c 128,-1,6
 907 1019 907 1019 882 986 c 128,-1,7
 857 953 857 953 842 934 c 1,8,-1
 797 973 l 1,9,10
 824.191256831 1085.16393443 824.191256831 1085.16393443 870.595628415 1180.08196721 c 128,-1,11
 917 1275 917 1275 941 1310.5 c 0,12,13
 994.070422535 1389 994.070422535 1389 1034 1389 c 0,0,1
1407 1225 m 2,14,15
 1361 1183 1361 1183 1263.24 1093.56 c 0,16,17
 1165.48 1004.12 1165.48 1004.12 1092 944 c 1,18,-1
 1049 987 l 1,19,20
 1095.56465517 1090.875 1095.56465517 1090.875 1160.78232759 1180.9375 c 128,-1,21
 1226 1271 1226 1271 1257.5 1305 c 0,22,23
 1328.83823529 1382 1328.83823529 1382 1369.39530812 1382 c 128,-1,24
 1409.95238095 1382 1409.95238095 1382 1448.47619048 1358.20588235 c 128,-1,25
 1487 1334.41176471 1487 1334.41176471 1487 1313.70588235 c 128,-1,26
 1487 1293 1487 1293 1477 1288 c 1,27,-1
 1407 1225 l 2,14,15
EndSplineSet
EndChar

StartChar: caron
Encoding: 711 711 73
Width: 1706
Flags: W
LayerCount: 2
Fore
SplineSet
1094 1092 m 1,0,-1
 1315 1362 l 1,1,-1
 1411 1339 l 1,2,3
 1290 1130 1290 1130 1172.5 1012.5 c 0,4,5
 1104 944 1104 944 1065 944 c 0,6,7
 1010.875 944 1010.875 944 902.5 1233 c 0,8,9
 866 1330.33333333 866 1330.33333333 866 1339 c 1,10,-1
 979 1362 l 1,11,12
 1000 1315 1000 1315 1018.5 1270.5 c 128,-1,13
 1037 1226 1037 1226 1057 1179 c 128,-1,14
 1077 1132 1077 1132 1094 1092 c 1,0,-1
EndSplineSet
EndChar

StartChar: circumflex
Encoding: 710 710 74
Width: 1706
Flags: W
LayerCount: 2
Fore
SplineSet
1120 1214 m 1,0,-1
 858 944 l 1,1,-1
 799 987 l 1,2,3
 919.209708738 1194.63495146 919.209708738 1194.63495146 1040.5 1314 c 0,4,5
 1109.59677419 1382 1109.59677419 1382 1149 1382 c 0,6,7
 1199.02247191 1382 1199.02247191 1382 1310 1091.5 c 0,8,9
 1327 1047 1327 1047 1337 1017 c 128,-1,10
 1347 987 1347 987 1348 985 c 1,11,-1
 1276 944 l 1,12,13
 1260.22580645 965.032258065 1260.22580645 965.032258065 1201.61290323 1069.51612903 c 128,-1,14
 1143 1174 1143 1174 1120 1214 c 1,0,-1
EndSplineSet
EndChar

StartChar: dieresis
Encoding: 168 168 103
Width: 1706
Flags: W
LayerCount: 2
Fore
SplineSet
372 1074.2972973 m 0,0,1
 372 1117.59459459 372 1117.59459459 412.308510638 1168.7972973 c 128,-1,2
 452.617021277 1220 452.617021277 1220 511.308510638 1220 c 128,-1,3
 570 1220 570 1220 596 1196.5 c 128,-1,4
 622 1173 622 1173 622 1144.5 c 128,-1,5
 622 1116 622 1116 608 1088 c 128,-1,6
 594 1060 594 1060 570.5 1037 c 0,7,8
 516.347826087 984 516.347826087 984 444.173913043 984 c 128,-1,9
 372 984 372 984 372 1074.2972973 c 0,0,1
854 1073.66216216 m 0,10,11
 854 1116.32432432 854 1116.32432432 894.808510638 1168.16216216 c 128,-1,12
 935.617021277 1220 935.617021277 1220 994.308510638 1220 c 128,-1,13
 1053 1220 1053 1220 1078.5 1196.5 c 128,-1,14
 1104 1173 1104 1173 1104 1144.5 c 128,-1,15
 1104 1116 1104 1116 1090.5 1088 c 128,-1,16
 1077 1060 1077 1060 1053.5 1037 c 0,17,18
 999.347826087 984 999.347826087 984 926.673913043 984 c 128,-1,19
 854 984 854 984 854 1073.66216216 c 0,10,11
EndSplineSet
EndChar

StartChar: period
Encoding: 46 46 104
Width: 422
Flags: W
LayerCount: 2
Fore
SplineSet
78 60.6621621622 m 0,0,1
 78 103.324324324 78 103.324324324 118.808510638 155.162162162 c 128,-1,2
 159.617021277 207 159.617021277 207 218.308510638 207 c 128,-1,3
 277 207 277 207 302.5 183.5 c 128,-1,4
 328 160 328 160 328 131.5 c 0,5,6
 328 73.4255319149 328 73.4255319149 275.673913043 22.2127659574 c 128,-1,7
 223.347826087 -29 223.347826087 -29 150.673913043 -29 c 128,-1,8
 78 -29 78 -29 78 60.6621621622 c 0,0,1
EndSplineSet
EndChar

StartChar: breve
Encoding: 728 728 116
Width: 1706
Flags: W
LayerCount: 2
Fore
SplineSet
1452 1257 m 1,0,1
 1432.25754527 1143.48088531 1432.25754527 1143.48088531 1347.12877264 1045.74044266 c 0,2,3
 1262 948 1262 948 1134.33333333 948 c 128,-1,4
 1006.66666667 948 1006.66666667 948 942.5 1025 c 128,-1,5
 878.445945946 1101.86486486 878.445945946 1101.86486486 870.5 1229 c 0,6,7
 869 1253 869 1253 868 1257 c 1,8,-1
 989 1282 l 1,9,10
 989 1159.17021277 989 1159.17021277 1068.5 1113.5 c 0,11,12
 1092 1100 1092 1100 1122 1100 c 0,13,14
 1211.09784259 1100 1211.09784259 1100 1288.17752443 1190.23452769 c 0,15,16
 1323 1231 1323 1231 1350 1282 c 1,17,-1
 1452 1257 l 1,0,1
EndSplineSet
EndChar

StartChar: dotaccent
Encoding: 729 729 117
Width: 743
Flags: W
LayerCount: 2
Fore
SplineSet
332 1134.2972973 m 0,0,1
 332 1177.59459459 332 1177.59459459 372.308510638 1228.7972973 c 128,-1,2
 412.617021277 1280 412.617021277 1280 471.308510638 1280 c 128,-1,3
 530 1280 530 1280 556 1256.5 c 128,-1,4
 582 1233 582 1233 582 1204.5 c 128,-1,5
 582 1176 582 1176 568 1148 c 128,-1,6
 554 1120 554 1120 530.5 1097 c 0,7,8
 476.347826087 1044 476.347826087 1044 404.173913043 1044 c 128,-1,9
 332 1044 332 1044 332 1134.2972973 c 0,0,1
EndSplineSet
EndChar

StartChar: ogonek
Encoding: 731 731 118
Width: 1706
Flags: W
LayerCount: 2
Fore
SplineSet
879 -547 m 1,0,1
 844 -553 844 -553 809 -553 c 0,2,3
 632.912280702 -553 632.912280702 -553 537.768817204 -444.536451613 c 0,4,5
 487 -386.66 487 -386.66 487 -295 c 0,6,7
 487 -135.589285714 487 -135.589285714 666 -36.5 c 0,8,9
 694 -21 694 -21 713.5 -12.5 c 128,-1,10
 733 -4 733 -4 737 0 c 1,11,-1
 885 0 l 2,12,13
 874.5 0 874.5 0 833.25 -21 c 0,14,15
 637 -120.909090909 637 -120.909090909 637 -254 c 256,16,17
 637 -361.344262295 637 -361.344262295 753.5 -411 c 0,18,19
 826.230769231 -442 826.230769231 -442 879 -442 c 1,20,-1
 879 -547 l 1,0,1
EndSplineSet
EndChar

StartChar: comma
Encoding: 44 44 119
Width: 483
Flags: W
LayerCount: 2
Fore
SplineSet
190 -29 m 1,0,1
 113 -29 113 -29 113 60.6621621622 c 0,2,3
 113 103.324324324 113 103.324324324 153.808510638 155.162162162 c 128,-1,4
 194.617021277 207 194.617021277 207 266.5 207 c 0,5,6
 356 207 356 207 356 90 c 0,7,8
 356 15.5 356 15.5 184 -264 c 1,9,-1
 127 -244 l 1,10,11
 170.73006135 -116.785276074 170.73006135 -116.785276074 190 -29 c 1,0,1
EndSplineSet
EndChar

StartChar: cedilla
Encoding: 184 184 120
Width: 709
Flags: W
LayerCount: 2
Fore
SplineSet
299 -174 m 1,0,1
 221 -150.6 221 -150.6 221 -90 c 0,2,3
 221 -54.7647058824 221 -54.7647058824 256.807692308 -27.3823529412 c 128,-1,4
 292.615384615 -9.54097911787e-18 292.615384615 -9.54097911787e-18 355.807692308 -4.77048955894e-18 c 128,-1,5
 419 0 419 0 442 -31.5 c 128,-1,6
 465 -63 465 -63 465 -114.5 c 0,7,8
 465 -166 465 -166 439.05 -250.3375 c 128,-1,9
 413.1 -334.675 413.1 -334.675 359.294923332 -406.070197886 c 128,-1,10
 305.489846664 -477.465395773 305.489846664 -477.465395773 231 -492 c 1,11,-1
 215 -430 l 1,12,13
 299 -339 299 -339 299 -174 c 1,0,1
EndSplineSet
EndChar

StartChar: tilde
Encoding: 732 732 123
Width: 1118
Flags: W
LayerCount: 2
Fore
SplineSet
784 942 m 1,0,1
 768.16 1030 768.16 1030 709 1030 c 0,2,3
 674.75 1030 674.75 1030 575 988 c 0,4,5
 475.25 946 475.25 946 423.125 946 c 128,-1,6
 371 946 371 946 340.5 961.5 c 128,-1,7
 310 977 310 977 291 1000.5 c 128,-1,8
 272 1024 272 1024 262 1052 c 128,-1,9
 252 1080 252 1080 247.5 1104.5 c 128,-1,10
 243 1129 243 1129 242 1146.5 c 128,-1,11
 241 1164 241 1164 240 1167 c 1,12,-1
 348 1188 l 1,13,14
 358.25 1106 358.25 1106 430 1106 c 0,15,16
 468.285714286 1106 468.285714286 1106 575.5 1144 c 0,17,18
 682.714285714 1182 682.714285714 1182 730.357142857 1182 c 128,-1,19
 778 1182 778 1182 808.5 1166.5 c 128,-1,20
 839 1151 839 1151 858 1127.5 c 128,-1,21
 877 1104 877 1104 887 1076 c 128,-1,22
 897 1048 897 1048 901.5 1023.5 c 128,-1,23
 906 999 906 999 907 981.5 c 128,-1,24
 908 964 908 964 909 961 c 1,25,-1
 784 942 l 1,0,1
EndSplineSet
EndChar

StartChar: fraction
Encoding: 8260 8260 129
Width: 821
Flags: W
LayerCount: 2
Fore
SplineSet
1094 1579 m 0,0,1
 1114 1579 1114 1579 1114 1553.5 c 128,-1,2
 1114 1528 1114 1528 1108 1513 c 1,3,-1
 330 -43 l 2,4,5
 318 -66 318 -66 305.5 -97 c 0,6,7
 254.693548387 -223 254.693548387 -223 135 -223 c 0,8,9
 113 -223 113 -223 113 -197 c 128,-1,10
 113 -171 113 -171 120.5 -151.5 c 128,-1,11
 128 -132 128 -132 139 -112.5 c 128,-1,12
 150 -93 150 -93 162 -73.5 c 128,-1,13
 174 -54 174 -54 187 -20 c 128,-1,14
 200 14 200 14 239 97.5 c 128,-1,15
 278 181 278 181 330 286 c 128,-1,16
 382 391 382 391 442.5 510.5 c 128,-1,17
 503 630 503 630 564 748 c 128,-1,18
 625 866 625 866 682 975.5 c 128,-1,19
 739 1085 739 1085 783 1171 c 128,-1,20
 827 1257 827 1257 855 1311.5 c 128,-1,21
 883 1366 883 1366 902.846153846 1432.15384615 c 128,-1,22
 922.692307692 1498.30769231 922.692307692 1498.30769231 962.161371237 1538.65384615 c 128,-1,23
 1001.63043478 1579 1001.63043478 1579 1094 1579 c 0,0,1
EndSplineSet
EndChar

StartChar: slash
Encoding: 47 47 130
Width: 1014
Flags: W
LayerCount: 2
Fore
SplineSet
29 -223 m 0,0,1
 6 -223 6 -223 6 -197 c 128,-1,2
 6 -171 6 -171 13.5 -151.5 c 128,-1,3
 21 -132 21 -132 32 -112.5 c 128,-1,4
 43 -93 43 -93 55 -73.5 c 128,-1,5
 67 -54 67 -54 80.5 -20 c 128,-1,6
 94 14 94 14 133 97.5 c 128,-1,7
 172 181 172 181 224 286 c 128,-1,8
 276 391 276 391 336.5 510.5 c 128,-1,9
 397 630 397 630 458 748 c 128,-1,10
 519 866 519 866 575.5 975.5 c 128,-1,11
 632 1085 632 1085 703.345108696 1222.88043478 c 128,-1,12
 774.690217391 1360.76086957 774.690217391 1360.76086957 795.035618888 1429.37517853 c 0,13,14
 815.381020385 1497.9894875 815.381020385 1497.9894875 855.005727584 1538.49474375 c 128,-1,15
 894.630434783 1579 894.630434783 1579 987 1579 c 0,16,17
 995 1579 995 1579 1001.5 1569 c 128,-1,18
 1008 1559 1008 1559 1008 1544.75 c 128,-1,19
 1008 1530.5 1008 1530.5 1001 1513 c 1,20,-1
 223 -43 l 2,21,22
 211 -66 211 -66 199 -97 c 0,23,24
 150.225806452 -223 150.225806452 -223 29 -223 c 0,0,1
EndSplineSet
EndChar

StartChar: dotlessi
Encoding: 305 305 131
Width: 469
Flags: W
LayerCount: 2
Fore
SplineSet
266.970588235 133 m 128,-1,1
 302.941176471 133 302.941176471 133 590 438 c 1,2,-1
 590 326 l 1,3,4
 390.322033898 128.699152542 390.322033898 128.699152542 324.661016949 75.3495762712 c 0,5,6
 200.71024735 -25.3604240283 200.71024735 -25.3604240283 117 -29 c 1,7,8
 72.6216216216 -29 72.6216216216 -29 50.8108108108 9.42857142857 c 128,-1,9
 29 47.8571428571 29 47.8571428571 29 98.3708791209 c 0,10,11
 29 148.884615385 29 148.884615385 74.5165879595 360.711813196 c 128,-1,12
 120.033175919 572.539011008 120.033175919 572.539011008 151.51658796 657.269505504 c 128,-1,13
 183 742 183 742 204 763.5 c 128,-1,14
 225 785 225 785 256.842105263 796 c 128,-1,15
 288.684210526 807 288.684210526 807 389 807 c 1,16,17
 381 779 381 779 366 730 c 0,18,19
 231 289 231 289 231 187.5 c 0,20,0
 231 133 231 133 266.970588235 133 c 128,-1,1
EndSplineSet
EndChar

StartChar: Oslash
Encoding: 216 216 137
Width: 1653
Flags: W
LayerCount: 2
Fore
SplineSet
892 756 m 1,0,1
 858 832 858 832 858 909.5 c 0,2,3
 858 1059.95454545 858 1059.95454545 949.604651163 1149.47727273 c 128,-1,4
 1041.20930233 1239 1041.20930233 1239 1217 1239 c 0,5,6
 1245 1239 1245 1239 1268 1235 c 1,7,-1
 1393 1393 l 2,8,9
 1425 1433 1425 1433 1445 1460 c 128,-1,10
 1465 1487 1465 1487 1487.33823529 1511.5 c 128,-1,11
 1509.67647059 1536 1509.67647059 1536 1550 1536 c 0,12,13
 1555 1536 1555 1536 1563.5 1536.5 c 0,14,15
 1602 1538.76470588 1602 1538.76470588 1602 1509 c 0,16,17
 1602 1490.2 1602 1490.2 1591 1477 c 2,18,-1
 1374 1198 l 1,19,20
 1521.24369748 1117.68525592 1521.24369748 1117.68525592 1568.5 921.5 c 0,21,22
 1585 853 1585 853 1585 775.5 c 128,-1,23
 1585 698 1585 698 1573 637 c 1,24,25
 1710 658 1710 658 1853 743 c 1,26,-1
 1853 651 l 1,27,28
 1721.03960396 546.207920792 1721.03960396 546.207920792 1540 510 c 1,29,30
 1448.99603296 257.537381752 1448.99603296 257.537381752 1210.71013769 100.268690876 c 128,-1,31
 972.424242424 -57 972.424242424 -57 715 -57 c 0,32,33
 569 -57 569 -57 443 1 c 1,34,-1
 401 -53 l 1,35,36
 327.161290323 -162 327.161290323 -162 245 -162 c 0,37,38
 209 -162 209 -162 209 -141.1 c 128,-1,39
 209 -120.2 209 -120.2 242 -80.6 c 128,-1,40
 275 -41 275 -41 287.55078125 -21.06640625 c 128,-1,41
 300.1015625 -1.1328125 300.1015625 -1.1328125 347 58 c 1,42,43
 100 243.25 100 243.25 100 664 c 0,44,45
 100 863.560747664 100 863.560747664 211.991658271 1062.42443992 c 128,-1,46
 323.983316542 1261.28813218 323.983316542 1261.28813218 530.379658271 1389.64406609 c 128,-1,47
 736.776 1518 736.776 1518 1006 1518 c 0,48,49
 1067.16666667 1518 1067.16666667 1518 1143 1505 c 1,50,-1
 1139 1403 l 1,51,52
 1097.4 1411 1097.4 1411 1013.7 1411 c 128,-1,53
 930 1411 930 1411 835 1382.5 c 0,54,55
 559.020576132 1299.70617284 559.020576132 1299.70617284 417.382720193 1054.75599845 c 0,56,57
 328 900.176470588 328 900.176470588 328 740.588235294 c 128,-1,58
 328 581 328 581 379.5 463 c 128,-1,59
 431 345 431 345 515 274 c 1,60,-1
 892 756 l 1,0,1
608 213 m 1,61,62
 714 160 714 160 828 160 c 0,63,64
 1031.04395604 160 1031.04395604 160 1172.64537134 252.703084833 c 128,-1,65
 1314.24678663 345.406169666 1314.24678663 345.406169666 1395 496 c 1,66,-1
 1382 496 l 2,67,68
 1103 496 1103 496 955 660 c 1,69,-1
 608 213 l 1,61,62
1190 1126 m 0,70,71
 1030 1126 1030 1126 1030 987 c 0,72,73
 1030 919 1030 919 1061.5 851.5 c 128,-1,74
 1093 784 1093 784 1148.5 734.5 c 0,75,76
 1266.79770735 628.991233985 1266.79770735 628.991233985 1448 627 c 1,77,78
 1475 709.928571429 1475 709.928571429 1475 787.964285714 c 0,79,80
 1475 942.61971831 1475 942.61971831 1401.02272727 1034.30985915 c 128,-1,81
 1327.04545455 1126 1327.04545455 1126 1190 1126 c 0,70,71
EndSplineSet
EndChar

StartChar: oslash
Encoding: 248 248 138
Width: 907
Flags: W
LayerCount: 2
Fore
SplineSet
182 0 m 1,0,1
 31 77.3414634146 31 77.3414634146 31 323.5 c 0,2,3
 31 435.924050633 31 435.924050633 113.928400955 557.692335579 c 0,4,5
 196.856801909 679.460620525 196.856801909 679.460620525 327.823137797 759.730310263 c 128,-1,6
 458.789473684 840 458.789473684 840 590 840 c 0,7,8
 644 840 644 840 700 823 c 1,9,-1
 772 936 l 1,10,11
 790 962 790 962 803 983 c 128,-1,12
 816 1004 816 1004 832.293103448 1026.5 c 128,-1,13
 848.586206897 1049 848.586206897 1049 878.793103448 1049 c 128,-1,14
 909 1049 909 1049 909 1020 c 0,15,16
 909 1012 909 1012 903 1006 c 1,17,-1
 770 793 l 1,18,19
 830.571428571 757.035714286 830.571428571 757.035714286 889 684 c 1,20,21
 889 653.588235294 889 653.588235294 876.5 643.294117647 c 128,-1,22
 864 633 864 633 848 627 c 1,23,24
 789 695 789 695 729 727 c 1,25,-1
 375 160 l 1,26,27
 413.571428571 133 413.571428571 133 459.285714286 133 c 0,28,29
 552.5 133 552.5 133 633 225 c 1,30,31
 573 290.806451613 573 290.806451613 573 370.790322581 c 128,-1,32
 573 450.774193548 573 450.774193548 596.5 484.887096774 c 0,33,34
 637.911111111 545 637.911111111 545 696 545 c 0,35,36
 805 545 805 545 805 434 c 0,37,38
 805 333.428571429 805 333.428571429 748 252 c 1,39,40
 765.6 244 765.6 244 787.3 244 c 128,-1,41
 809 244 809 244 834.5 259 c 128,-1,42
 860 274 860 274 889 301 c 128,-1,43
 918 328 918 328 952 364 c 128,-1,44
 986 400 986 400 1028 442 c 1,45,-1
 1028 332 l 1,46,47
 945.470414201 244.75443787 945.470414201 244.75443787 909.735207101 218.877218935 c 128,-1,48
 874 193 874 193 844.5 181.5 c 128,-1,49
 815 170 815 170 768.727272727 170 c 128,-1,50
 722.454545455 170 722.454545455 170 705 186 c 1,51,52
 583.670886076 37.7088607595 583.670886076 37.7088607595 417 -12 c 0,53,54
 360 -29 360 -29 319 -29 c 128,-1,55
 278 -29 278 -29 260 -25 c 1,56,-1
 199 -125 l 1,57,58
 175.204545455 -168.93006993 175.204545455 -168.93006993 146.602272727 -189.465034965 c 128,-1,59
 118 -210 118 -210 102.5 -209.5 c 128,-1,60
 87 -209 87 -209 81.5 -206.5 c 128,-1,61
 76 -204 76 -204 76 -190 c 128,-1,62
 76 -176 76 -176 91 -156 c 128,-1,63
 106 -136 106 -136 117.9 -111.5 c 128,-1,64
 129.8 -87 129.8 -87 182 0 c 1,0,1
317 217 m 1,65,66
 359 284 359 284 403.5 355 c 128,-1,67
 448 426 448 426 516.058823529 532.294117647 c 128,-1,68
 584.117647059 638.588235294 584.117647059 638.588235294 655 752 c 1,69,70
 628 758 628 758 581.5 758 c 128,-1,71
 535 758 535 758 472.5 725 c 128,-1,72
 410 692 410 692 363 641.5 c 0,73,74
 260 530.829787234 260 530.829787234 260 412.970449173 c 128,-1,75
 260 295.111111111 260 295.111111111 317 217 c 1,65,66
692 283 m 1,76,77
 735 369 735 369 735 415 c 128,-1,78
 735 461 735 461 698 461 c 0,79,80
 675 461 675 461 663 436 c 128,-1,81
 651 411 651 411 651 380.5 c 0,82,83
 651 307.6 651 307.6 692 283 c 1,76,77
EndSplineSet
EndChar

StartChar: macron
Encoding: 175 175 139
Width: 1038
Flags: W
LayerCount: 2
Fore
SplineSet
270 963 m 1,0,1
 213 963 213 963 213 1004 c 0,2,3
 213 1072.43607195 213 1072.43607195 255.56779661 1087.02542373 c 0,4,5
 285.939300429 1097.43471405 285.939300429 1097.43471405 410.094650214 1106.71735703 c 128,-1,6
 534.25 1116 534.25 1116 645 1116 c 0,7,8
 854 1116 854 1116 854 1075 c 0,9,10
 854 1044.57142857 854 1044.57142857 822.344827586 1011.78571429 c 128,-1,11
 790.689655172 979 790.689655172 979 754 979 c 2,12,-1
 616 981 l 1,13,14
 516.857142857 981 516.857142857 981 270 963 c 1,0,1
EndSplineSet
EndChar

StartChar: oe
Encoding: 339 339 140
Width: 1333
Flags: W
LayerCount: 2
Fore
SplineSet
834 313 m 0,0,1
 834 82 834 82 1001 82 c 0,2,3
 1082.5 82 1082.5 82 1226 215 c 0,4,5
 1290.89097744 275.142857143 1290.89097744 275.142857143 1356.44548872 341.571428571 c 128,-1,6
 1422 408 1422 408 1454 438 c 1,7,-1
 1454 328 l 1,8,9
 1294.06139315 152.292798111 1294.06139315 152.292798111 1206.03069658 88.1463990555 c 128,-1,10
 1118 24 1118 24 1055.5 -2.5 c 128,-1,11
 993 -29 993 -29 932 -29 c 0,12,13
 701.755555556 -29 701.755555556 -29 647 125 c 1,14,15
 490.735294118 -29 490.735294118 -29 301 -29 c 0,16,17
 164.080808081 -29 164.080808081 -29 97.5404040404 73.9296875 c 128,-1,18
 31 176.859375 31 176.859375 31 317 c 0,19,20
 31 525.821052632 31 525.821052632 190.5 687 c 0,21,22
 341.90625 840 341.90625 840 526.122222222 840 c 0,23,24
 597.244444444 840 597.244444444 840 666.18597665 793.695985832 c 128,-1,25
 735.127508855 747.391971665 735.127508855 747.391971665 764 655 c 1,26,27
 909.357142857 840 909.357142857 840 1120 840 c 0,28,29
 1356 840 1356 840 1356 664 c 0,30,31
 1356 549.75 1356 549.75 1263.95454545 465.375 c 128,-1,32
 1171.90909091 381 1171.90909091 381 1057 381 c 0,33,34
 981.707317073 381 981.707317073 381 917.5 439.5 c 0,35,36
 895 460 895 460 877 489 c 1,37,38
 834 399.260869565 834 399.260869565 834 313 c 0,0,1
715 477.565217391 m 0,39,40
 715 616.923076923 715 616.923076923 661.787878788 684.461538462 c 128,-1,41
 608.575757576 752 608.575757576 752 517.216450216 752 c 128,-1,42
 425.857142857 752 425.857142857 752 342.928571429 651.38 c 128,-1,43
 260 550.76 260 550.76 260 421.808571429 c 128,-1,44
 260 292.857142857 260 292.857142857 319.68 212.928571429 c 128,-1,45
 379.36 133 379.36 133 467.370909091 133 c 128,-1,46
 555.381818182 133 555.381818182 133 611.442468001 188.059566787 c 0,47,48
 715 289.767857143 715 289.767857143 715 477.565217391 c 0,39,40
905 565 m 1,49,50
 979.565217391 467 979.565217391 467 1073 467 c 0,51,52
 1131 467 1131 467 1174 524.333333333 c 128,-1,53
 1217 581.666666667 1217 581.666666667 1217 645.833333333 c 128,-1,54
 1217 710 1217 710 1191.5 730 c 128,-1,55
 1166 750 1166 750 1122 750 c 256,56,57
 1044.5862069 750 1044.5862069 750 986.584770115 689.927083333 c 128,-1,58
 928.583333333 629.854166667 928.583333333 629.854166667 905 565 c 1,49,50
EndSplineSet
EndChar

StartChar: OE
Encoding: 338 338 141
Width: 2105
Flags: W
LayerCount: 2
Fore
SplineSet
1771.32 119 m 0,0,1
 1920.75 119 1920.75 119 2226 438 c 1,2,-1
 2226 328 l 1,3,4
 2132 245 2132 245 2054.5 174.5 c 128,-1,5
 1977 104 1977 104 1904.5 52.5 c 0,6,7
 1750.34951456 -57 1750.34951456 -57 1595 -57 c 0,8,9
 1590 -57 1590 -57 1585 -54 c 0,10,11
 1488.01886792 4.18867924528 1488.01886792 4.18867924528 1145 109 c 1,12,-1
 1110 119 l 1,13,14
 963.838187702 -6.28155339806 963.838187702 -6.28155339806 752.5 -45 c 0,15,16
 687 -57 687 -57 623 -57 c 0,17,18
 369.076923077 -57 369.076923077 -57 234.538461538 105.697674419 c 128,-1,19
 100 268.395348837 100 268.395348837 100 510.488936555 c 128,-1,20
 100 752.582524272 100 752.582524272 202.5 974.5 c 0,21,22
 377.396937159 1353.16035909 377.396937159 1353.16035909 758.5 1475 c 0,23,24
 893 1518 893 1518 1057 1518 c 2,25,-1
 1651 1518 l 2,26,27
 2271 1518 2271 1518 2271 1491 c 0,28,29
 2271 1480 2271 1480 2253 1460 c 2,30,-1
 2152 1346 l 1,31,32
 2101.6875 1311 2101.6875 1311 2046.34375 1311 c 128,-1,33
 1991 1311 1991 1311 1858.03767123 1332.2739726 c 128,-1,34
 1725.07534247 1353.54794521 1725.07534247 1353.54794521 1665 1356 c 1,35,36
 1631 1235 1631 1235 1595 1090.5 c 128,-1,37
 1559 946 1559 946 1511 795 c 1,38,39
 1629 805 1629 805 1755 805 c 1,40,-1
 1974 799 l 1,41,42
 2011 799 2011 799 2011 766 c 256,43,44
 2011 735.571428571 2011 735.571428571 1979.34482759 702.785714286 c 128,-1,45
 1947.68965517 670 1947.68965517 670 1911 670 c 0,46,47
 1621.375 670 1621.375 670 1477 659 c 1,48,-1
 1477 657 l 1,49,50
 1425.54148472 467.246724891 1425.54148472 467.246724891 1286 238 c 1,51,-1
 1319 240 l 1,52,-1
 1376 238 l 1,53,-1
 1392 238 l 2,54,55
 1402 238 1402 238 1413 240 c 1,56,57
 1423 237 1423 237 1450 226.5 c 0,58,59
 1726.42857143 119 1726.42857143 119 1771.32 119 c 0,0,1
1217 631 m 1,60,61
 1122.4 618.1 1122.4 618.1 1026 594 c 1,62,63
 977 594 977 594 977 637 c 0,64,65
 977 688.785714286 977 688.785714286 1049 714.5 c 0,66,67
 1084 727 1084 727 1135.5 737 c 128,-1,68
 1187 747 1187 747 1253 760 c 1,69,70
 1333.6061008 1037.64323607 1333.6061008 1037.64323607 1376.3030504 1131.32161804 c 0,71,72
 1451.56656347 1296.45201238 1451.56656347 1296.45201238 1544 1360 c 1,73,74
 1536.875 1361.1875 1536.875 1361.1875 1447.4375 1367.09375 c 128,-1,75
 1358 1373 1358 1373 1221.875 1382 c 128,-1,76
 1085.75 1391 1085.75 1391 1051 1391 c 0,77,78
 821.210526316 1391 821.210526316 1391 657.993113625 1275.42990654 c 128,-1,79
 494.775700935 1159.85981308 494.775700935 1159.85981308 410.387850467 981.70768432 c 128,-1,80
 326 803.555555556 326 803.555555556 326 611.938155136 c 128,-1,81
 326 420.320754717 326 420.320754717 436.376 290.160377358 c 128,-1,82
 546.752 160 546.752 160 752.376 160 c 128,-1,83
 958 160 958 160 1102 272 c 1,84,-1
 1104 279 l 1,85,86
 1126.18536585 311.045528455 1126.18536585 311.045528455 1162.59268293 439.022764228 c 128,-1,87
 1199 567 1199 567 1217 631 c 1,60,61
EndSplineSet
EndChar

StartChar: germandbls
Encoding: 223 223 142
Width: 983
Flags: W
LayerCount: 2
Fore
SplineSet
332 156 m 1,0,1
 418 88 418 88 519.318181818 88 c 128,-1,2
 620.636363636 88 620.636363636 88 670.818181818 157 c 128,-1,3
 721 226 721 226 721 309.5 c 0,4,5
 721 461.703125 721 461.703125 652.808632544 584.234488398 c 128,-1,6
 584.617265088 706.765851795 584.617265088 706.765851795 471 756 c 1,7,-1
 471 872 l 1,8,9
 643.262135922 872 643.262135922 872 742.631067961 983.25 c 128,-1,10
 842 1094.5 842 1094.5 842 1217.75 c 128,-1,11
 842 1341 842 1341 773 1381.5 c 0,12,13
 750 1395 750 1395 713.5 1395 c 128,-1,14
 677 1395 677 1395 630 1367.5 c 128,-1,15
 583 1340 583 1340 538.5 1280 c 0,16,17
 439.873005743 1147.01978302 439.873005743 1147.01978302 395 889 c 0,18,19
 395 883.384615385 395 883.384615385 374.5 787.192307692 c 128,-1,20
 354 691 354 691 337.5 611 c 128,-1,21
 321 531 321 531 302 442.5 c 128,-1,22
 283 354 283 354 240.277777778 154.62962963 c 0,23,24
 197.555555556 -44.7407407407 197.555555556 -44.7407407407 162 -184 c 1,25,-1
 -45 -184 l 1,26,27
 -47 -178 -47 -178 -47 -170.5 c 2,28,-1
 -47 -154 l 2,29,30
 -47 12.5 -47 12.5 107 551.5 c 0,31,32
 122 604 122 604 146 702 c 128,-1,33
 170 800 170 800 217 934 c 128,-1,34
 264 1068 264 1068 314 1167.5 c 0,35,36
 490.130653266 1518 490.130653266 1518 743 1518 c 0,37,38
 870.674698795 1518 870.674698795 1518 944.337349398 1430.65714286 c 128,-1,39
 1018 1343.31428571 1018 1343.31428571 1018 1210.60812325 c 128,-1,40
 1018 1077.90196078 1018 1077.90196078 910.357249071 959.70599898 c 128,-1,41
 802.714498141 841.510037175 802.714498141 841.510037175 602 819 c 1,42,43
 765.92041441 756.100306098 765.92041441 756.100306098 853.960207205 618.800153049 c 128,-1,44
 942 481.5 942 481.5 942 323.793956044 c 128,-1,45
 942 166.087912088 942 166.087912088 846.285046729 53.543956044 c 128,-1,46
 750.570093458 -59 750.570093458 -59 576.445424087 -59 c 128,-1,47
 402.320754717 -59 402.320754717 -59 283 43 c 1,48,-1
 332 156 l 1,0,1
EndSplineSet
EndChar

StartChar: ampersand
Encoding: 38 38 143
Width: 1442
Flags: W
LayerCount: 2
Fore
SplineSet
1196 328 m 1,0,1
 1298 172.315789474 1298 172.315789474 1298 47.5194331984 c 128,-1,2
 1298 -77.2769230769 1298 -77.2769230769 1228.81653779 -211.386403669 c 128,-1,3
 1159.63307558 -345.49588426 1159.63307558 -345.49588426 1046.29328198 -435.74794213 c 128,-1,4
 932.953488372 -526 932.953488372 -526 811 -526 c 1,5,6
 799 -511.6 799 -511.6 799 -494.8 c 128,-1,7
 799 -478 799 -478 817 -461 c 128,-1,8
 835 -444 835 -444 888.727272727 -401.217171717 c 0,9,10
 1042 -279.166666667 1042 -279.166666667 1042 -115.3 c 0,11,12
 1042 -12.2666666667 1042 -12.2666666667 956 154 c 1,13,14
 679.027027027 -29 679.027027027 -29 497.878682053 -29 c 128,-1,15
 316.730337079 -29 316.730337079 -29 193.365168539 66.4739130435 c 128,-1,16
 70 161.947826087 70 161.947826087 70 319 c 0,17,18
 70 516.476190476 70 516.476190476 247.5 672 c 0,19,20
 341.78220524 754.609170306 341.78220524 754.609170306 440.39110262 812.804585153 c 128,-1,21
 539 871 539 871 596 905 c 1,22,23
 567 1013.75 567 1013.75 567 1077.375 c 0,24,25
 567 1194.77142857 567 1194.77142857 640.940920798 1296.17611995 c 128,-1,26
 714.881841597 1397.58081133 714.881841597 1397.58081133 825.958162178 1457.79040567 c 128,-1,27
 937.034482759 1518 937.034482759 1518 1058.8868066 1518 c 128,-1,28
 1180.73913043 1518 1180.73913043 1518 1293.86956522 1443.65714286 c 128,-1,29
 1407 1369.31428571 1407 1369.31428571 1407 1241 c 0,30,31
 1407 1172.85 1407 1172.85 1171 1075.5 c 0,32,33
 1131 1059 1131 1059 1097.5 1045.5 c 128,-1,34
 1064 1032 1064 1032 1047 1024 c 1,35,36
 1024.48837209 1048.55813953 1024.48837209 1048.55813953 1018 1081 c 1,37,38
 1036 1091 1036 1091 1070 1105 c 0,39,40
 1219 1166.35294118 1219 1166.35294118 1219 1221.36363636 c 0,41,42
 1219 1296.98113208 1219 1296.98113208 1161.27777778 1345.99056604 c 128,-1,43
 1103.55555556 1395 1103.55555556 1395 1037.27777778 1395 c 0,44,45
 923.189189189 1395 923.189189189 1395 874.094594595 1319.3125 c 128,-1,46
 825 1243.625 825 1243.625 825 1142.3125 c 128,-1,47
 825 1041 825 1041 857.5 946 c 128,-1,48
 890 851 890 851 938 759 c 128,-1,49
 986 667 986 667 1041.5 580.5 c 128,-1,50
 1097 494 1097 494 1143 418 c 1,51,52
 1292.69199179 515.299794661 1292.69199179 515.299794661 1413 733 c 0,53,54
 1424 754 1424 754 1430.5 789.5 c 128,-1,55
 1437 825 1437 825 1449.39490446 890.515923567 c 128,-1,56
 1461.78980892 956.031847134 1461.78980892 956.031847134 1483 973 c 1,57,-1
 1522 975 l 2,58,59
 1565 978 1565 978 1565 934 c 0,60,61
 1565 851.433962264 1565 851.433962264 1508.83023139 727.436548537 c 128,-1,62
 1452.66046278 603.439134809 1452.66046278 603.439134809 1365.27417203 490.476368723 c 128,-1,63
 1277.88788129 377.513602638 1277.88788129 377.513602638 1196 328 c 1,0,1
618 805 m 1,64,65
 488.037931034 728.551724138 488.037931034 728.551724138 439.018965517 678.275862069 c 0,66,67
 342 578.769230769 342 578.769230769 342 461.468885048 c 128,-1,68
 342 344.168539326 342 344.168539326 439.395604396 244.584269663 c 128,-1,69
 536.791208791 145 536.791208791 145 666 145 c 0,70,71
 730.84 145 730.84 145 786.853014354 169.14354067 c 128,-1,72
 842.866028708 193.28708134 842.866028708 193.28708134 911 238 c 1,73,-1
 618 805 l 1,64,65
EndSplineSet
EndChar

StartChar: semicolon
Encoding: 59 59 144
Width: 483
Flags: W
LayerCount: 2
Fore
SplineSet
190 -29 m 1,0,1
 113 -29 113 -29 113 60.6621621622 c 0,2,3
 113 103.324324324 113 103.324324324 153.808510638 155.162162162 c 128,-1,4
 194.617021277 207 194.617021277 207 266.5 207 c 0,5,6
 356 207 356 207 356 90 c 0,7,8
 356 15.5 356 15.5 184 -264 c 1,9,-1
 127 -244 l 1,10,11
 170.73006135 -116.785276074 170.73006135 -116.785276074 190 -29 c 1,0,1
162 818.945945946 m 0,12,13
 162 861.891891892 162 861.891891892 203.467391304 913.445945946 c 128,-1,14
 244.934782609 965 244.934782609 965 302.967391304 965 c 128,-1,15
 361 965 361 965 386.5 941.5 c 128,-1,16
 412 918 412 918 412 889.5 c 0,17,18
 412 831.425531915 412 831.425531915 359.673913043 780.212765957 c 128,-1,19
 307.347826087 729 307.347826087 729 234.673913043 729 c 128,-1,20
 162 729 162 729 162 818.945945946 c 0,12,13
EndSplineSet
EndChar

StartChar: quoteright
Encoding: 8217 8217 145
Width: 333
Flags: W
LayerCount: 2
Fore
SplineSet
167.5 1523 m 128,-1,1
 193 1538 193 1538 237.5 1538 c 128,-1,2
 282 1538 282 1538 305 1506.5 c 128,-1,3
 328 1475 328 1475 328 1438 c 128,-1,4
 328 1401 328 1401 317.5 1370.5 c 128,-1,5
 307 1340 307 1340 290 1305.5 c 128,-1,6
 273 1271 273 1271 253 1234 c 128,-1,7
 233 1197 233 1197 214 1164.5 c 128,-1,8
 195 1132 195 1132 179 1106 c 128,-1,9
 163 1080 163 1080 156 1067 c 1,10,-1
 98 1087 l 1,11,12
 132.434782609 1178.82608696 132.434782609 1178.82608696 162 1303 c 1,13,14
 120 1303 120 1303 102 1326 c 128,-1,15
 84 1349 84 1349 84 1377 c 128,-1,16
 84 1405 84 1405 94.5 1433 c 128,-1,17
 105 1461 105 1461 123.5 1484.5 c 128,-1,0
 142 1508 142 1508 167.5 1523 c 128,-1,1
EndSplineSet
EndChar

StartChar: quoteleft
Encoding: 8216 8216 146
Width: 375
Flags: W
LayerCount: 2
Fore
SplineSet
207 1082 m 128,-1,1
 182 1067 182 1067 137.5 1067 c 128,-1,2
 93 1067 93 1067 70 1098.5 c 128,-1,3
 47 1130 47 1130 47 1175.54545455 c 0,4,5
 47 1258.5 47 1258.5 219 1538 c 1,6,-1
 276 1518 l 1,7,8
 232.26993865 1390.78527607 232.26993865 1390.78527607 213 1303 c 1,9,10
 255 1303 255 1303 273 1279.5 c 128,-1,11
 291 1256 291 1256 291 1227.5 c 128,-1,12
 291 1199 291 1199 280.5 1171.5 c 128,-1,13
 270 1144 270 1144 251 1120.5 c 128,-1,0
 232 1097 232 1097 207 1082 c 128,-1,1
EndSplineSet
EndChar

StartChar: quotedblleft
Encoding: 8220 8220 147
Width: 752
Flags: W
LayerCount: 2
Fore
SplineSet
250 1082 m 128,-1,1
 225 1067 225 1067 180.5 1067 c 128,-1,2
 136 1067 136 1067 113 1098.5 c 128,-1,3
 90 1130 90 1130 90 1175.54545455 c 0,4,5
 90 1258.5 90 1258.5 262 1538 c 1,6,-1
 319 1518 l 1,7,8
 275.26993865 1390.78527607 275.26993865 1390.78527607 256 1303 c 1,9,10
 298 1303 298 1303 316 1279.5 c 128,-1,11
 334 1256 334 1256 334 1227.5 c 128,-1,12
 334 1199 334 1199 323.5 1171.5 c 128,-1,13
 313 1144 313 1144 294 1120.5 c 128,-1,0
 275 1097 275 1097 250 1082 c 128,-1,1
555.5 1082 m 128,-1,15
 530 1067 530 1067 485.5 1067 c 128,-1,16
 441 1067 441 1067 418 1098.5 c 128,-1,17
 395 1130 395 1130 395 1176.19117647 c 0,18,19
 395 1258.5 395 1258.5 567 1538 c 1,20,-1
 625 1518 l 1,21,22
 584.470588235 1409.92156863 584.470588235 1409.92156863 561 1303 c 1,23,24
 603 1303 603 1303 621 1279.5 c 128,-1,25
 639 1256 639 1256 639 1227.5 c 128,-1,26
 639 1199 639 1199 628.5 1171.5 c 128,-1,27
 618 1144 618 1144 599.5 1120.5 c 128,-1,14
 581 1097 581 1097 555.5 1082 c 128,-1,15
EndSplineSet
EndChar

StartChar: quotedblright
Encoding: 8221 8221 148
Width: 490
Flags: W
LayerCount: 2
Fore
SplineSet
190 1303 m 1,0,1
 113 1303 113 1303 113 1380 c 0,2,3
 113 1434.32432432 113 1434.32432432 142 1471.16216216 c 0,4,5
 194.617021277 1538 194.617021277 1538 252.808510638 1538 c 128,-1,6
 311 1538 311 1538 333.5 1506.5 c 128,-1,7
 356 1475 356 1475 356 1429.45454545 c 0,8,9
 356 1346.5 356 1346.5 184 1067 c 1,10,-1
 127 1087 l 1,11,12
 171.379310345 1216.10344828 171.379310345 1216.10344828 190 1303 c 1,0,1
501.5 1523 m 128,-1,14
 527 1538 527 1538 571.5 1538 c 128,-1,15
 616 1538 616 1538 639 1506.5 c 128,-1,16
 662 1475 662 1475 662 1438 c 128,-1,17
 662 1401 662 1401 651.5 1370.5 c 128,-1,18
 641 1340 641 1340 624 1305.5 c 128,-1,19
 607 1271 607 1271 587 1234 c 128,-1,20
 567 1197 567 1197 547.5 1164.5 c 128,-1,21
 528 1132 528 1132 512.5 1106 c 128,-1,22
 497 1080 497 1080 489 1067 c 1,23,-1
 432 1087 l 1,24,25
 466.434782609 1178.82608696 466.434782609 1178.82608696 496 1303 c 1,26,27
 454 1303 454 1303 436 1326 c 128,-1,28
 418 1349 418 1349 418 1377 c 128,-1,29
 418 1405 418 1405 428.5 1433 c 128,-1,30
 439 1461 439 1461 457.5 1484.5 c 128,-1,13
 476 1508 476 1508 501.5 1523 c 128,-1,14
EndSplineSet
EndChar

StartChar: AE
Encoding: 198 198 149
Width: 1878
Flags: W
LayerCount: 2
Fore
SplineSet
1542.5 119 m 0,0,1
 1692.42857143 119 1692.42857143 119 1999 438 c 1,2,-1
 1999 328 l 1,3,4
 1905 245 1905 245 1827.5 174.5 c 128,-1,5
 1750 104 1750 104 1677.5 52.5 c 0,6,7
 1523.34951456 -57 1523.34951456 -57 1368 -57 c 0,8,9
 1363 -57 1363 -57 1358 -54 c 0,10,11
 1261.01886792 4.18867924528 1261.01886792 4.18867924528 918 109 c 1,12,-1
 897 195 l 1,13,14
 724.243902439 22.243902439 724.243902439 22.243902439 534 -38 c 0,15,16
 474 -57 474 -57 402.5 -57 c 0,17,18
 244.783505155 -57 244.783505155 -57 162.391752577 39.2891566265 c 128,-1,19
 80 135.578313253 80 135.578313253 80 328 c 0,20,21
 80 647.163265306 80 647.163265306 312.034575726 953.385766604 c 128,-1,22
 544.069151452 1259.6082679 544.069151452 1259.6082679 905 1411.5 c 0,23,24
 1158.06930693 1518 1158.06930693 1518 1423 1518 c 0,25,26
 2044 1518 2044 1518 2044 1491 c 0,27,28
 2044 1479 2044 1479 2025 1460 c 1,29,-1
 1925 1346 l 1,30,31
 1874.6875 1311 1874.6875 1311 1819.34375 1311 c 128,-1,32
 1764 1311 1764 1311 1631.03767123 1332.2739726 c 128,-1,33
 1498.07534247 1353.54794521 1498.07534247 1353.54794521 1438 1356 c 1,34,35
 1404 1235 1404 1235 1368 1090.5 c 128,-1,36
 1332 946 1332 946 1284 795 c 1,37,38
 1402 805 1402 805 1515.5 805 c 128,-1,39
 1629 805 1629 805 1747 799 c 1,40,41
 1784 799 1784 799 1784 766 c 256,42,43
 1784 735.571428571 1784 735.571428571 1752.34482759 702.785714286 c 128,-1,44
 1720.68965517 670 1720.68965517 670 1683 670 c 0,45,46
 1393.375 670 1393.375 670 1249 659 c 1,47,-1
 1249 657 l 1,48,49
 1196.73799127 464.283842795 1196.73799127 464.283842795 1059 238 c 1,50,-1
 1092 240 l 1,51,-1
 1149 238 l 1,52,-1
 1167 238 l 2,53,54
 1177 238 1177 238 1186 240 c 1,55,56
 1196 237 1196 237 1223 226.5 c 0,57,58
 1499.42857143 119 1499.42857143 119 1542.5 119 c 0,0,1
607 135 m 0,59,60
 754.8 135 754.8 135 877 276 c 1,61,-1
 877 279 l 1,62,63
 901.191082803 313.942675159 901.191082803 313.942675159 936.095541401 440.47133758 c 128,-1,64
 971 567 971 567 989 631 c 1,65,66
 893.947368421 617.736842105 893.947368421 617.736842105 799 594 c 1,67,68
 750 594 750 594 750 637 c 0,69,70
 750 688.785714286 750 688.785714286 822 714.5 c 0,71,72
 857 727 857 727 908.5 737 c 128,-1,73
 960 747 960 747 1026 760 c 1,74,75
 1138.90642202 1160.30458716 1138.90642202 1160.30458716 1212 1262 c 0,76,77
 1248.61777778 1313.59777778 1248.61777778 1313.59777778 1317 1360 c 1,78,-1
 1358 1421 l 1,79,80
 1128.56919697 1419.03905297 1128.56919697 1419.03905297 889.04545512 1268.54183463 c 128,-1,81
 649.521713266 1118.0446163 649.521713266 1118.0446163 493.760856633 894.927713555 c 128,-1,82
 338 671.810810811 338 671.810810811 338 463 c 0,83,84
 338 222.566037736 338 222.566037736 506 156 c 0,85,86
 559 135 559 135 607 135 c 0,59,60
EndSplineSet
EndChar

StartChar: dollar
Encoding: 36 36 150
Width: 1069
Flags: W
LayerCount: 2
Fore
SplineSet
315 35 m 1,0,1
 359.034782609 251.504347826 359.034782609 251.504347826 461 664 c 1,2,3
 310.172227232 789.215509468 310.172227232 789.215509468 265.586113616 837.607754734 c 0,4,5
 170 941.353658537 170 941.353658537 170 1032.17682927 c 128,-1,6
 170 1123 170 1123 213.5 1204 c 128,-1,7
 257 1285 257 1285 327.5 1345.5 c 0,8,9
 467.410417859 1465.56496852 467.410417859 1465.56496852 670 1503 c 1,10,-1
 678 1550 l 1,11,12
 709.931034483 1725.62068966 709.931034483 1725.62068966 733 1741 c 0,13,14
 742 1747 742 1747 749 1747 c 0,15,16
 788 1747 788 1747 788 1710 c 1,17,-1
 741 1513 l 1,18,19
 781 1518 781 1518 818.5 1518 c 128,-1,20
 856 1518 856 1518 916 1504 c 128,-1,21
 976 1490 976 1490 1027 1456 c 0,22,23
 1145 1377.33333333 1145 1377.33333333 1145 1227 c 0,24,25
 1145 1200.22222222 1145 1200.22222222 839.5 1030.5 c 0,26,27
 728.8 969 728.8 969 698 958 c 1,28,-1
 698 1057 l 1,29,30
 717.662650602 1068.06024096 717.662650602 1068.06024096 795.843696435 1105.16311017 c 128,-1,31
 874.024742268 1142.26597938 874.024742268 1142.26597938 919.512371134 1171.64340636 c 128,-1,32
 965 1201.02083333 965 1201.02083333 965 1225 c 0,33,34
 965 1423 965 1423 756 1423 c 1,35,-1
 721 1421 l 1,36,-1
 594 872 l 1,37,38
 756.987220447 754.763578275 756.987220447 754.763578275 810.993610224 697.381789137 c 0,39,40
 926 575.1875 926 575.1875 926 456.59375 c 0,41,42
 926 243.2 926 243.2 754.5 106 c 0,43,44
 604.747747748 -13.8018018018 604.747747748 -13.8018018018 379 -47 c 1,45,-1
 373 -80 l 2,46,47
 368 -104 368 -104 366 -127.5 c 0,48,49
 358.723404255 -213 358.723404255 -213 312.526315789 -213 c 0,50,51
 279 -213 279 -213 279 -184 c 0,52,53
 279 -161 279 -161 289 -109 c 1,54,-1
 297 -55 l 1,55,56
 286 -57 286 -57 274.5 -57 c 2,57,-1
 252 -57 l 2,58,59
 129.379310345 -57 129.379310345 -57 29.6896551724 4.51063829787 c 128,-1,60
 -70 66.0212765957 -70 66.0212765957 -70 182 c 0,61,62
 -70 246.695652174 -70 246.695652174 -22.1583476764 286.217017137 c 128,-1,63
 25.6833046472 325.7383821 25.6833046472 325.7383821 96 330 c 2,64,-1
 139 332 l 1,65,66
 135 292 135 292 135 243.5 c 128,-1,67
 135 195 135 195 137.5 160 c 0,68,69
 146.251314406 37.4815983176 146.251314406 37.4815983176 315 35 c 1,0,1
709 341.928571429 m 0,70,71
 709 404.857142857 709 404.857142857 660.986857826 468.548045742 c 128,-1,72
 612.973715651 532.238948626 612.973715651 532.238948626 530 604 c 1,73,-1
 399 41 l 1,74,75
 522.711340206 65.7422680412 522.711340206 65.7422680412 615.855670103 145.28124638 c 0,76,77
 709 224.820224719 709 224.820224719 709 341.928571429 c 0,70,71
409 1226.5 m 0,78,79
 387 1181 387 1181 387 1125 c 128,-1,80
 387 1069 387 1069 426.5 1020.5 c 128,-1,81
 466 972 466 972 526 924 c 1,82,-1
 647 1407 l 1,83,84
 474.601809955 1362.17647059 474.601809955 1362.17647059 409 1226.5 c 0,78,79
EndSplineSet
EndChar

StartChar: periodcentered
Encoding: 183 183 151
Width: 422
Flags: W
LayerCount: 2
Fore
SplineSet
78 658.662162162 m 0,0,1
 78 701.324324324 78 701.324324324 118.808510638 753.162162162 c 128,-1,2
 159.617021277 805 159.617021277 805 218.308510638 805 c 128,-1,3
 277 805 277 805 302.5 781.5 c 128,-1,4
 328 758 328 758 328 729.5 c 128,-1,5
 328 701 328 701 314.5 673 c 128,-1,6
 301 645 301 645 277.5 622 c 0,7,8
 223.347826087 569 223.347826087 569 150.673913043 569 c 128,-1,9
 78 569 78 569 78 658.662162162 c 0,0,1
EndSplineSet
EndChar

StartChar: colon
Encoding: 58 58 152
Width: 422
Flags: W
LayerCount: 2
Fore
SplineSet
78 818.945945946 m 0,0,1
 78 861.891891892 78 861.891891892 119.467391304 913.445945946 c 128,-1,2
 160.934782609 965 160.934782609 965 218.967391304 965 c 128,-1,3
 277 965 277 965 302.5 941.5 c 128,-1,4
 328 918 328 918 328 889.5 c 0,5,6
 328 831.425531915 328 831.425531915 275.673913043 780.212765957 c 128,-1,7
 223.347826087 729 223.347826087 729 150.673913043 729 c 128,-1,8
 78 729 78 729 78 818.945945946 c 0,0,1
78 60.6621621622 m 0,9,10
 78 103.324324324 78 103.324324324 118.808510638 155.162162162 c 128,-1,11
 159.617021277 207 159.617021277 207 218.308510638 207 c 128,-1,12
 277 207 277 207 302.5 183.5 c 128,-1,13
 328 160 328 160 328 131.5 c 0,14,15
 328 73.4255319149 328 73.4255319149 275.673913043 22.2127659574 c 128,-1,16
 223.347826087 -29 223.347826087 -29 150.673913043 -29 c 128,-1,17
 78 -29 78 -29 78 60.6621621622 c 0,9,10
EndSplineSet
EndChar

StartChar: exclam
Encoding: 33 33 153
Width: 608
Flags: W
LayerCount: 2
Fore
SplineSet
709 1518 m 2,0,1
 741 1518 741 1518 741 1452.81132075 c 128,-1,2
 741 1387.62264151 741 1387.62264151 419.9 515.2 c 0,3,4
 382.8 414.4 382.8 414.4 371 379 c 1,5,6
 341 369 341 369 318 369 c 128,-1,7
 295 369 295 369 295 397 c 2,8,-1
 295 416 l 2,9,10
 295 425 295 425 297 434 c 2,11,-1
 449 1296 l 1,12,13
 470.661654135 1447.63157895 470.661654135 1447.63157895 489.330827068 1482.81578947 c 128,-1,14
 508 1518 508 1518 526 1518 c 2,15,-1
 709 1518 l 2,0,1
144 60.6621621622 m 0,16,17
 144 103.324324324 144 103.324324324 184.808510638 155.162162162 c 128,-1,18
 225.617021277 207 225.617021277 207 284.308510638 207 c 128,-1,19
 343 207 343 207 368.5 183.5 c 128,-1,20
 394 160 394 160 394 131.5 c 0,21,22
 394 73.4255319149 394 73.4255319149 341.673913043 22.2127659574 c 128,-1,23
 289.347826087 -29 289.347826087 -29 216.673913043 -29 c 128,-1,24
 144 -29 144 -29 144 60.6621621622 c 0,16,17
EndSplineSet
EndChar

StartChar: quotedblbase
Encoding: 8222 8222 154
Width: 750
Flags: W
LayerCount: 2
Fore
SplineSet
190 0 m 1,0,1
 113 0 113 0 113 89.9459459459 c 0,2,3
 113 132.891891892 113 132.891891892 154.467391304 184.445945946 c 128,-1,4
 195.934782609 236 195.934782609 236 252 236 c 0,5,6
 356 236 356 236 356 119 c 0,7,8
 356 43.5 356 43.5 184 -236 c 1,9,-1
 127 -215 l 1,10,11
 171.948275862 -84.2413793103 171.948275862 -84.2413793103 190 0 c 1,0,1
501.5 220.5 m 128,-1,13
 527 236 527 236 571.5 236 c 128,-1,14
 616 236 616 236 639 204.5 c 128,-1,15
 662 173 662 173 662 127.117647059 c 0,16,17
 662 45.125 662 45.125 489 -236 c 1,18,-1
 432 -215 l 1,19,20
 467.086956522 -121.434782609 467.086956522 -121.434782609 496 0 c 1,21,22
 454 0 454 0 436 23.5 c 128,-1,23
 418 47 418 47 418 75 c 128,-1,24
 418 103 418 103 428.5 131 c 128,-1,25
 439 159 439 159 457.5 182 c 128,-1,12
 476 205 476 205 501.5 220.5 c 128,-1,13
EndSplineSet
EndChar

StartChar: ae
Encoding: 230 230 155
Width: 1219
Flags: W
LayerCount: 2
Fore
SplineSet
1339 332 m 1,0,1
 1015.77906977 -29 1015.77906977 -29 806.755388542 -29 c 128,-1,2
 597.731707317 -29 597.731707317 -29 547 131 c 1,3,-1
 547 129 l 1,4,5
 492.499254844 54.5156482861 492.499254844 54.5156482861 391.852191524 12.7578241431 c 128,-1,6
 291.205128205 -29 291.205128205 -29 223.102564103 -29 c 0,7,8
 105.724637681 -29 105.724637681 -29 50.8623188406 42.4245283019 c 128,-1,9
 -4 113.849056604 -4 113.849056604 -4 206.424528302 c 0,10,11
 -4 374.306122449 -4 374.306122449 97.7141630901 516.49837085 c 128,-1,12
 199.42832618 658.690619252 199.42832618 658.690619252 386.918708545 749.345309626 c 128,-1,13
 574.409090909 840 574.409090909 840 813 840 c 1,14,-1
 793 748 l 1,15,16
 897.266666667 840 897.266666667 840 1037.62564103 840 c 128,-1,17
 1177.98461538 840 1177.98461538 840 1225 744.5 c 0,18,19
 1241 712 1241 712 1241 661 c 0,20,21
 1241 554.313253012 1241 554.313253012 1149.74675325 469.656626506 c 128,-1,22
 1058.49350649 385 1058.49350649 385 942 385 c 0,23,24
 867.619047619 385 867.619047619 385 803 444 c 0,25,26
 780 465 780 465 762 494 c 1,27,28
 719 404.260869565 719 404.260869565 719 317 c 0,29,30
 719 86 719 86 887 86 c 0,31,32
 968.684210526 86 968.684210526 86 1111.5 220 c 0,33,34
 1168.2 273.2 1168.2 273.2 1237.6 342.6 c 128,-1,35
 1307 412 1307 412 1339 442 c 1,36,-1
 1339 332 l 1,0,1
307 131 m 0,37,38
 384.952380952 131 384.952380952 131 483 202 c 0,39,40
 512 223 512 223 535 246 c 1,41,-1
 653 764 l 1,42,43
 450.91668196 719.308496972 450.91668196 719.308496972 329.95834098 581.373546732 c 128,-1,44
 209 443.438596491 209 443.438596491 209 287.219298246 c 128,-1,45
 209 131 209 131 307 131 c 0,37,38
791 569 m 1,46,47
 865.565217391 471 865.565217391 471 958 471 c 0,48,49
 1016 471 1016 471 1059 528.333333333 c 128,-1,50
 1102 585.666666667 1102 585.666666667 1102 649.833333333 c 128,-1,51
 1102 714 1102 714 1076.5 734 c 128,-1,52
 1051 754 1051 754 1007 754 c 0,53,54
 928.879310345 754 928.879310345 754 869.420998456 691.298507463 c 128,-1,55
 809.962686567 628.597014925 809.962686567 628.597014925 791 569 c 1,46,47
EndSplineSet
EndChar

StartChar: yen
Encoding: 165 165 156
Width: 1546
Flags: W
LayerCount: 2
Fore
SplineSet
430 -436 m 2,0,1
 403 -436 403 -436 403 -401.5 c 128,-1,2
 403 -367 403 -367 463 -27 c 1,3,-1
 250 -37 l 1,4,5
 193 -37 193 -37 193 4 c 0,6,7
 193 77.75 193 77.75 242 90 c 1,8,9
 284.307692308 94.2307692308 284.307692308 94.2307692308 323.653846154 96.6153846154 c 128,-1,10
 363 99 363 99 404 101.5 c 128,-1,11
 445 104 445 104 492 106 c 1,12,-1
 510 197 l 1,13,-1
 291 188 l 1,14,15
 233 188 233 188 233 229 c 0,16,17
 233 302.5 233 302.5 283 315 c 1,18,19
 300 318 300 318 352.5 321.5 c 128,-1,20
 405 325 405 325 479 330 c 1,21,22
 464 388 464 388 422.496932515 546.466257669 c 0,23,24
 380.993865031 704.932515337 380.993865031 704.932515337 362 840 c 1,25,26
 350.168888889 897.004444444 350.168888889 897.004444444 323.431666667 1054.61333333 c 128,-1,27
 296.694444444 1212.22222222 296.694444444 1212.22222222 287 1251 c 1,28,-1
 256 1233 l 2,29,30
 245 1227 245 1227 229 1216.5 c 128,-1,31
 213 1206 213 1206 188 1192 c 1,32,-1
 188 1303 l 1,33,34
 277 1370 277 1370 331.5 1413.5 c 128,-1,35
 386 1457 386 1457 432.326923077 1493.5 c 128,-1,36
 478.653846154 1530 478.653846154 1530 505.326923077 1530 c 128,-1,37
 532 1530 532 1530 532 1509 c 1,38,-1
 536.5 1480.5 l 2,39,40
 541 1450 541 1450 567.794354839 1264.22580645 c 0,41,42
 594.588709677 1078.4516129 594.588709677 1078.4516129 645 848 c 1,43,44
 683.686327078 587.512064343 683.686327078 587.512064343 739 387 c 1,45,46
 1068.04184671 680.690243348 1068.04184671 680.690243348 1200.5 880.5 c 0,47,48
 1230 925 1230 925 1245 963 c 1,49,50
 1165.58852868 975.538653367 1165.58852868 975.538653367 1078 1049 c 0,51,52
 967 1142.09677419 967 1142.09677419 967 1286 c 0,53,54
 967 1388.47058824 967 1388.47058824 1020.68518519 1473.73529412 c 128,-1,55
 1074.37037037 1559 1074.37037037 1559 1182 1559 c 0,56,57
 1384 1559 1384 1559 1384 1063 c 1,58,59
 1514.12641084 1086.97065463 1514.12641084 1086.97065463 1640 1200 c 1,60,-1
 1640 1085 l 1,61,62
 1495 981.428571429 1495 981.428571429 1372 958 c 1,63,64
 1350.93585077 871.828480437 1350.93585077 871.828480437 1292.46792539 788.414240218 c 0,65,66
 1137.13765182 566.809716599 1137.13765182 566.809716599 897 342 c 1,67,-1
 911 342 l 2,68,69
 1120 342 1120 342 1120 301 c 0,70,71
 1120 270.571428571 1120 270.571428571 1088.34482759 237.785714286 c 128,-1,72
 1056.68965517 205 1056.68965517 205 1020 205 c 2,73,-1
 883 207 l 1,74,-1
 793 207 l 1,75,-1
 772 115 l 1,76,-1
 870 117 l 1,77,78
 1079 117 1079 117 1079 76 c 0,79,80
 1079 45.5714285714 1079 45.5714285714 1047.34482759 12.7857142857 c 128,-1,81
 1015.68965517 -20 1015.68965517 -20 979 -20 c 2,82,-1
 842 -18 l 2,83,84
 823 -18 823 -18 800 -17 c 128,-1,85
 777 -16 777 -16 743 -18 c 1,86,-1
 702 -215 l 1,87,88
 668.209302326 -367.058139535 668.209302326 -367.058139535 647.104651163 -401.529069767 c 128,-1,89
 626 -436 626 -436 608 -436 c 2,90,-1
 430 -436 l 2,0,1
1255 1069 m 1,91,-1
 1257 1108 l 1,92,93
 1257 1207.67857143 1257 1207.67857143 1235.5 1268.33928571 c 0,94,95
 1195.92405063 1380 1195.92405063 1380 1147 1380 c 0,96,97
 1092 1380 1092 1380 1092 1307 c 0,98,99
 1092 1164.81355932 1092 1164.81355932 1193.5 1096 c 0,100,101
 1223 1076 1223 1076 1255 1069 c 1,91,-1
EndSplineSet
EndChar

StartChar: equal
Encoding: 61 61 157
Width: 1120
Flags: W
LayerCount: 2
Fore
SplineSet
266 598 m 1,0,1
 209 598 209 598 209 639 c 0,2,3
 209 712.75 209 712.75 258 725 c 1,4,5
 393 752 393 752 743 752 c 0,6,7
 952 752 952 752 952 711 c 0,8,9
 952 679.571428571 952 679.571428571 920.344827586 646.785714286 c 0,10,11
 888.689655172 614 888.689655172 614 852 614 c 2,12,-1
 715 616 l 1,13,14
 582.285714286 616 582.285714286 616 266 598 c 1,0,1
225 373 m 1,15,16
 168 373 168 373 168 414 c 0,17,18
 168 487.75 168 487.75 217 500 c 1,19,20
 283.307692308 513.261538462 283.307692308 513.261538462 453.153846154 519.630769231 c 128,-1,21
 623 526 623 526 702 526 c 0,22,23
 911 526 911 526 911 485 c 0,24,25
 911 454.571428571 911 454.571428571 879.344827586 421.785714286 c 0,26,27
 847.689655172 389 847.689655172 389 811 389 c 2,28,-1
 674 391 l 1,29,30
 541.285714286 391 541.285714286 391 225 373 c 1,15,16
EndSplineSet
EndChar

StartChar: sterling
Encoding: 163 163 158
Width: 1368
Flags: W
LayerCount: 2
Fore
SplineSet
135 639 m 1,0,1
 78 639 78 639 78 680 c 0,2,3
 78 753.75 78 753.75 127 766 c 1,4,5
 206.153846154 777.307692308 206.153846154 777.307692308 340 784 c 1,6,-1
 438 1137 l 1,7,8
 460.049535604 1210.49845201 460.049535604 1210.49845201 526.5 1257.5 c 0,9,10
 547 1272 547 1272 566.5 1286.5 c 0,11,12
 714.219178082 1396.34246575 714.219178082 1396.34246575 831.632844855 1457.17123288 c 128,-1,13
 949.046511628 1518 949.046511628 1518 1002.02325581 1518 c 128,-1,14
 1055 1518 1055 1518 1116 1489.5 c 128,-1,15
 1177 1461 1177 1461 1224.5 1413.5 c 0,16,17
 1329 1309 1329 1309 1329 1178 c 0,18,19
 1329 1120.5 1329 1120.5 1286 1098.75 c 128,-1,20
 1243 1077 1243 1077 1028.32608696 958.5 c 128,-1,21
 813.652173913 840 813.652173913 840 784.826086957 840 c 128,-1,22
 756 840 756 840 756 881.285714286 c 128,-1,23
 756 922.571428571 756 922.571428571 931.5 1005.5 c 0,24,25
 1039.03027523 1056.31100917 1039.03027523 1056.31100917 1074.01513761 1088.65550459 c 128,-1,26
 1109 1121 1109 1121 1110 1147 c 1,27,28
 1109 1147 1109 1147 1105.5 1167 c 128,-1,29
 1102 1187 1102 1187 1094.5 1217 c 0,30,31
 1044.5 1417 1044.5 1417 940 1417 c 1,32,33
 893.232365145 1411.60373444 893.232365145 1411.60373444 808.788130382 1328.47894085 c 128,-1,34
 724.34389562 1245.35414725 724.34389562 1245.35414725 662 1122.5 c 0,35,36
 645 1089 645 1089 627.78440367 1004.83486239 c 128,-1,37
 610.568807339 920.669724771 610.568807339 920.669724771 580 793 c 1,38,-1
 612 793 l 2,39,40
 821 793 821 793 821 752 c 0,41,42
 821 720.571428571 821 720.571428571 789.344827586 687.785714286 c 128,-1,43
 757.689655172 655 757.689655172 655 721 655 c 2,44,-1
 584 657 l 1,45,-1
 543 657 l 1,46,47
 528 599.5 528 599.5 516 565 c 1,48,49
 541 567 541 567 564.5 567 c 2,50,-1
 612 567 l 2,51,52
 821 567 821 567 821 526 c 0,53,54
 821 495.571428571 821 495.571428571 789.344827586 462.785714286 c 128,-1,55
 757.689655172 430 757.689655172 430 721 430 c 2,56,-1
 584 432 l 1,57,-1
 538.5 432 l 2,58,59
 513 432 513 432 471 430 c 1,60,61
 455.222222222 382.666666667 455.222222222 382.666666667 408 266 c 1,62,63
 429 260 429 260 447.5 253 c 128,-1,64
 466 246 466 246 483.5 241.5 c 128,-1,65
 501 237 501 237 532.5 226.5 c 0,66,67
 855 119 855 119 918.941860465 119 c 128,-1,68
 982.88372093 119 982.88372093 119 1135 224.5 c 0,69,70
 1166 246 1166 246 1192 268 c 1,71,-1
 1192 168 l 1,72,73
 1130 133 1130 133 1074.5 93.5 c 128,-1,74
 1019 54 1019 54 964 20.5 c 0,75,76
 836.76119403 -57 836.76119403 -57 733 -57 c 0,77,78
 728 -57 728 -57 723 -54.5 c 0,79,80
 616 -1 616 -1 262 117 c 1,81,82
 35.4482758621 -29 35.4482758621 -29 -100 -29 c 0,83,84
 -158 -29 -158 -29 -194 19 c 0,85,86
 -209 39 -209 39 -209 67.5 c 128,-1,87
 -209 96 -209 96 -191 114.5 c 128,-1,88
 -173 133 -173 133 -148 147 c 128,-1,89
 -123 161 -123 161 -97 171.5 c 128,-1,90
 -71 182 -71 182 -55 190 c 2,91,-1
 207 309 l 1,92,-1
 238 420 l 1,93,-1
 94 414 l 1,94,95
 37 414 37 414 37 455 c 0,96,97
 37 528.75 37 528.75 86 541 c 1,98,99
 107.489361702 545.29787234 107.489361702 545.29787234 276 557 c 1,100,-1
 301 647 l 1,101,-1
 135 639 l 1,0,1
EndSplineSet
EndChar

StartChar: cent
Encoding: 162 162 159
Width: 778
Flags: W
LayerCount: 2
Fore
SplineSet
397 266 m 2,0,1
 512.193548387 266 512.193548387 266 698 410 c 1,2,-1
 739 330 l 1,3,4
 513.762589928 132.917266187 513.762589928 132.917266187 342 102 c 1,5,-1
 236 -360 l 2,6,7
 230 -384 230 -384 227.5 -408 c 0,8,9
 218.541666667 -494 218.541666667 -494 174.842105263 -494 c 0,10,11
 141 -494 141 -494 141 -465 c 0,12,13
 141 -446.2 141 -446.2 152 -389 c 1,14,-1
 160 -336 l 1,15,16
 190.545454545 -174.545454545 190.545454545 -174.545454545 256 96 c 1,17,18
 69.9563437926 107.448840382 69.9563437926 107.448840382 22.5 258 c 0,19,20
 8 304 8 304 8 358.5 c 0,21,22
 8 472.642857143 8 472.642857143 66.831555306 600.811602631 c 128,-1,23
 125.663110612 728.980348119 125.663110612 728.980348119 230.200520823 826.343622335 c 128,-1,24
 334.737931034 923.706896552 334.737931034 923.706896552 463 952 c 1,25,-1
 541 1270 l 2,26,27
 557 1335 557 1335 566.5 1374 c 128,-1,28
 576 1413 576 1413 585.695121951 1439.5 c 128,-1,29
 595.390243902 1466 595.390243902 1466 616 1466 c 0,30,31
 651 1466 651 1466 651 1430 c 1,32,-1
 543 963 l 1,33,-1
 561 965 l 1,34,35
 688.040816327 965 688.040816327 965 738.5 907.5 c 0,36,37
 760 883 760 883 760 840.941176471 c 128,-1,38
 760 798.882352941 760 798.882352941 723.555555556 769.941176471 c 128,-1,39
 687.111111111 741 687.111111111 741 649.055555556 741 c 128,-1,40
 611 741 611 741 599.5 756 c 128,-1,41
 588 771 588 771 567.259677419 808.709677419 c 128,-1,42
 546.519354839 846.419354839 546.519354839 846.419354839 518 860 c 1,43,-1
 381 266 l 1,44,-1
 397 266 l 2,0,1
440 860 m 1,45,46
 351.125901792 831.019315802 351.125901792 831.019315802 289.062950896 709.07106141 c 128,-1,47
 227 587.122807018 227 587.122807018 227 463.111403509 c 128,-1,48
 227 339.1 227 339.1 301 291 c 1,49,50
 311.615384615 344.076923077 311.615384615 344.076923077 324 383 c 1,51,-1
 440 860 l 1,45,46
EndSplineSet
EndChar

StartChar: bullet
Encoding: 8226 8226 160
Width: 422
Flags: W
LayerCount: 2
Fore
SplineSet
281 881 m 256,0,1
 504 881 504 881 504 712 c 0,2,3
 504 670 504 670 476.5 613.5 c 128,-1,4
 449 557 449 557 401.5 510 c 128,-1,5
 354 463 354 463 291 433 c 128,-1,6
 228 403 228 403 153.022727273 403 c 0,7,8
 78.0454545455 403 78.0454545455 403 38.0227272727 448.153846154 c 128,-1,9
 -2 493.307692308 -2 493.307692308 -2 553.153846154 c 0,10,11
 -2 673.506493506 -2 673.506493506 82.9840425532 777.253246753 c 128,-1,12
 167.968085106 881 167.968085106 881 281 881 c 256,0,1
EndSplineSet
EndChar

StartChar: exclamdown
Encoding: 161 161 161
Width: 608
Flags: W
LayerCount: 2
Fore
SplineSet
156 0 m 2,0,1
 123 0 123 0 123 59.1567164179 c 128,-1,2
 123 118.313432836 123 118.313432836 374.5 809 c 0,3,4
 408 901 408 901 434 973.5 c 128,-1,5
 460 1046 460 1046 476.5 1091 c 128,-1,6
 493 1136 493 1136 494 1139 c 1,7,8
 519 1149 519 1149 540.5 1149 c 128,-1,9
 562 1149 562 1149 565.5 1141 c 128,-1,10
 569 1133 569 1133 569 1122 c 2,11,-1
 569 1102 l 2,12,13
 569 1093 569 1093 567 1083 c 2,14,-1
 416 221 l 1,15,16
 394.106382979 67.7446808511 394.106382979 67.7446808511 375.053191489 33.8723404255 c 128,-1,17
 356 0 356 0 338 0 c 2,18,-1
 156 0 l 2,0,1
645 1546 m 0,19,20
 721 1546 721 1546 721 1456.83783784 c 0,21,22
 721 1414.67567568 721 1414.67567568 680.191489362 1362.83783784 c 128,-1,23
 639.382978723 1311 639.382978723 1311 580.691489362 1311 c 128,-1,24
 522 1311 522 1311 496.5 1334.5 c 128,-1,25
 471 1358 471 1358 471 1386.5 c 128,-1,26
 471 1415 471 1415 484.5 1442.5 c 128,-1,27
 498 1470 498 1470 521.5 1493 c 0,28,29
 575.652173913 1546 575.652173913 1546 645 1546 c 0,19,20
EndSplineSet
EndChar

StartChar: quotesingle
Encoding: 39 39 162
Width: 354
Flags: W
LayerCount: 2
Fore
SplineSet
119 1315 m 0,0,1
 119 1538 119 1538 186 1538 c 0,2,3
 296.052631579 1538 296.052631579 1538 310 1511.5 c 0,4,5
 315 1502 315 1502 315 1480.27777778 c 0,6,7
 315 1458.55555556 315 1458.55555556 296.5 1407.77777778 c 128,-1,8
 278 1357 278 1357 262.5 1309 c 128,-1,9
 247 1261 247 1261 234 1218 c 128,-1,10
 221 1175 221 1175 210.5 1139.5 c 128,-1,11
 200 1104 200 1104 193 1083 c 1,12,-1
 137 1083 l 1,13,14
 119 1182 119 1182 119 1315 c 0,0,1
EndSplineSet
EndChar

StartChar: quotesinglbase
Encoding: 8218 8218 163
Width: 373
Flags: W
LayerCount: 2
Fore
SplineSet
167.5 192 m 128,-1,1
 193 207 193 207 237.5 207 c 128,-1,2
 282 207 282 207 305 175.5 c 128,-1,3
 328 144 328 144 328 107 c 128,-1,4
 328 70 328 70 317.5 39.5 c 128,-1,5
 307 9 307 9 290 -25.5 c 128,-1,6
 273 -60 273 -60 253 -97 c 128,-1,7
 233 -134 233 -134 214 -166.5 c 128,-1,8
 195 -199 195 -199 179 -225 c 128,-1,9
 163 -251 163 -251 156 -264 c 1,10,-1
 98 -244 l 1,11,12
 131.069767442 -155.813953488 131.069767442 -155.813953488 162 -29 c 1,13,14
 120 -29 120 -29 102 -5.5 c 128,-1,15
 84 18 84 18 84 46 c 128,-1,16
 84 74 84 74 94.5 102 c 128,-1,17
 105 130 105 130 123.5 153.5 c 128,-1,0
 142 177 142 177 167.5 192 c 128,-1,1
EndSplineSet
EndChar

StartChar: quotedbl
Encoding: 34 34 164
Width: 678
Flags: W
LayerCount: 2
Fore
SplineSet
131 1262.5 m 2,0,1
 131 1538 131 1538 201 1538 c 0,2,3
 309.157894737 1538 309.157894737 1538 324.5 1511.5 c 0,4,5
 330 1502 330 1502 330 1478.75 c 0,6,7
 330 1455.5 330 1455.5 309.5 1406.25 c 128,-1,8
 289 1357 289 1357 270.5 1309 c 128,-1,9
 252 1261 252 1261 236 1218 c 128,-1,10
 220 1175 220 1175 207.5 1139.5 c 128,-1,11
 195 1104 195 1104 186 1083 c 1,12,-1
 131 1083 l 1,13,-1
 131 1262.5 l 2,0,1
399 1262.5 m 2,14,15
 399 1538 399 1538 469 1538 c 0,16,17
 577.157894737 1538 577.157894737 1538 592.5 1511.5 c 0,18,19
 598 1502 598 1502 598 1480.27777778 c 0,20,21
 598 1458.55555556 598 1458.55555556 578 1407.77777778 c 128,-1,22
 558 1357 558 1357 539 1309 c 128,-1,23
 520 1261 520 1261 495.283783784 1192.43243243 c 0,24,25
 470.567567568 1123.86486486 470.567567568 1123.86486486 455 1083 c 1,26,-1
 399 1083 l 1,27,28
 399 1262.5 l 2,14,15
EndSplineSet
EndChar

StartChar: copyright
Encoding: 169 169 165
Width: 1819
Flags: W
LayerCount: 2
Fore
SplineSet
909 831 m 0,0,1
 881 831 881 831 881 865.842105263 c 128,-1,2
 881 900.684210526 881 900.684210526 971.1875 943.404605263 c 128,-1,3
 1061.375 986.125 1061.375 986.125 1082.6875 1003.5625 c 128,-1,4
 1104 1021 1104 1021 1104 1049.05555556 c 128,-1,5
 1104 1077.11111111 1104 1077.11111111 1073.13461538 1136.55555556 c 128,-1,6
 1042.26923077 1196 1042.26923077 1196 1006 1196 c 0,7,8
 842.612903226 1196 842.612903226 1196 730.306451613 1044.63043478 c 128,-1,9
 618 893.260869565 618 893.260869565 618 727 c 0,10,11
 618 503.257425743 618 503.257425743 762.5 426 c 0,12,13
 813 399 813 399 885 399 c 0,14,15
 1090.70731707 399 1090.70731707 399 1313 616 c 1,16,-1
 1313 522 l 1,17,18
 1046.10638298 266 1046.10638298 266 811 266 c 0,19,20
 648.6 266 648.6 266 557.8 382.139534884 c 128,-1,21
 467 498.279069767 467 498.279069767 467 664 c 0,22,23
 467 907.857142857 467 907.857142857 621 1087 c 0,24,25
 720.8 1203.09387755 720.8 1203.09387755 867.5 1249 c 0,26,27
 941 1272 941 1272 1005 1272 c 0,28,29
 1115.54237288 1272 1115.54237288 1272 1186.27118644 1207.8 c 128,-1,30
 1257 1143.6 1257 1143.6 1257 1053 c 0,31,32
 1257 1011.82352941 1257 1011.82352941 1229.7 993.011764706 c 128,-1,33
 1202.4 974.2 1202.4 974.2 1111.2 928.6 c 2,34,-1
 988 867 l 2,35,36
 916 831 916 831 909 831 c 0,0,1
1584 746.5 m 0,37,38
 1581.14577881 1027.64078705 1581.14577881 1027.64078705 1411.30676037 1226.32039353 c 128,-1,39
 1241.46774194 1425 1241.46774194 1425 954 1425 c 0,40,41
 773.409638554 1425 773.409638554 1425 605.5 1339.5 c 0,42,43
 337.410172692 1202.98800205 337.410172692 1202.98800205 250.5 929 c 0,44,45
 221 836 221 836 221 722 c 0,46,47
 221 499.717391304 221 499.717391304 314.080385428 343.908920045 c 128,-1,48
 407.160770855 188.100448786 407.160770855 188.100448786 554.121481318 112.550224393 c 128,-1,49
 701.082191781 37 701.082191781 37 874.982956356 37 c 128,-1,50
 1048.88372093 37 1048.88372093 37 1215.03973823 125.754145889 c 128,-1,51
 1381.19575554 214.508291778 1381.19575554 214.508291778 1483.61782934 380.038916105 c 128,-1,52
 1586.03990314 545.569540433 1586.03990314 545.569540433 1584 746.5 c 0,37,38
710.5 1484.5 m 0,53,54
 826 1518 826 1518 954.5 1518 c 0,55,56
 1194.03773585 1518 1194.03773585 1518 1363.3153281 1409.90707965 c 128,-1,57
 1532.59292035 1301.81415929 1532.59292035 1301.81415929 1620.29646018 1126.40707965 c 128,-1,58
 1708 951 1708 951 1708 752 c 0,59,60
 1708 425.815602837 1708 425.815602837 1498.5 197 c 0,61,62
 1352.8161512 37.8843069874 1352.8161512 37.8843069874 1117 -25 c 0,63,64
 997 -57 997 -57 881.5 -57 c 0,65,66
 430.801169591 -57 430.801169591 -57 219.037363991 281.426268762 c 0,67,68
 111 454.08411215 111 454.08411215 111 711 c 0,69,70
 111 906.787878788 111 906.787878788 211.5 1088.5 c 0,71,72
 377.021863118 1387.77690402 377.021863118 1387.77690402 710.5 1484.5 c 0,53,54
EndSplineSet
EndChar

